<?xml version="1.0" encoding="utf-8"?>
<!-- Generator: Adobe Illustrator 25.0.0, SVG Export Plug-In . SVG Version: 6.00 Build 0)  -->
<svg version="1.1" id="Layer_1" xmlns="http://www.w3.org/2000/svg" xmlns:xlink="http://www.w3.org/1999/xlink" x="0px" y="0px"
	 viewBox="0 0 493 500" style="enable-background:new 0 0 493 500;" xml:space="preserve">
<style type="text/css">
	.st0{fill:#EA795B;}
	.st1{fill:#FFFFFF;}
	.st2{fill:#386294;}
	.st3{enable-background:new    ;}
</style>
<symbol  id="circle" viewBox="-4.8 -4.8 9.6 9.6">
	<circle class="st0" cx="0" cy="0" r="4.8"/>
</symbol>
<g>
	<g>
		<polygon class="st1" points="5.2,351.5 201.7,238.2 398.2,351.5 201.7,464.8 		"/>
		<path d="M201.7,238.8l195.5,112.7L201.7,464.2L6.2,351.5L201.7,238.8 M201.7,237.6L4.2,351.5l197.5,113.9l197.5-113.9L201.7,237.6
			L201.7,237.6z"/>
	</g>
	<g>
		<g>
			<g>
				<ellipse class="st0" cx="179.1" cy="409.5" rx="5.6" ry="3.2"/>
			</g>
		</g>
		<g>
			<g>
				<ellipse class="st0" cx="170" cy="404.4" rx="5.6" ry="3.2"/>
			</g>
		</g>
		<g>
			<g>
				<ellipse class="st0" cx="189.4" cy="398.8" rx="5.6" ry="3.2"/>
			</g>
		</g>
		<g>
			<g>
				<ellipse class="st0" cx="218.7" cy="374.9" rx="5.6" ry="3.2"/>
			</g>
		</g>
		<g>
			<g>
				<ellipse class="st0" cx="233.2" cy="371.6" rx="5.6" ry="3.2"/>
			</g>
		</g>
		<g>
			<g>
				<ellipse class="st0" cx="245" cy="366.7" rx="5.6" ry="3.2"/>
			</g>
		</g>
		<g>
			<g>
				<ellipse class="st0" cx="251.4" cy="350.6" rx="5.6" ry="3.2"/>
			</g>
		</g>
		<g>
			<g>
				<ellipse class="st0" cx="240.3" cy="345" rx="5.6" ry="3.2"/>
			</g>
		</g>
	</g>
	<g>
		<g>
			<g>
				<g>
					<g>
						<polygon class="st2" points="180.4,358.4 172.8,354 175.2,352.6 182.8,357 						"/>
					</g>
					<g>
						<polygon class="st2" points="175.2,358.4 172.8,357 180.4,352.6 182.8,354 						"/>
					</g>
				</g>
			</g>
		</g>
		<g>
			<g>
				<g>
					<g>
						<polygon class="st2" points="189.6,363.1 182,358.7 184.4,357.3 192,361.7 						"/>
					</g>
					<g>
						<polygon class="st2" points="184.4,363.1 182,361.7 189.6,357.3 192,358.7 						"/>
					</g>
				</g>
			</g>
		</g>
		<g>
			<g>
				<g>
					<g>
						<polygon class="st2" points="172.2,369.3 164.6,364.9 167.1,363.5 174.7,367.8 						"/>
					</g>
					<g>
						<polygon class="st2" points="167.1,369.3 164.6,367.8 172.2,363.5 174.7,364.9 						"/>
					</g>
				</g>
			</g>
		</g>
		<g>
			<g>
				<g>
					<g>
						<polygon class="st2" points="154.5,391.1 146.9,386.8 149.4,385.3 156.9,389.7 						"/>
					</g>
					<g>
						<polygon class="st2" points="149.4,391.1 146.9,389.7 154.5,385.3 156.9,386.8 						"/>
					</g>
				</g>
			</g>
		</g>
		<g>
			<g>
				<g>
					<g>
						<polygon class="st2" points="148.9,401.2 141.3,396.9 143.8,395.4 151.4,399.8 						"/>
					</g>
					<g>
						<polygon class="st2" points="143.8,401.2 141.3,399.8 148.9,395.4 151.4,396.9 						"/>
					</g>
				</g>
			</g>
		</g>
		<g>
			<g>
				<g>
					<g>
						<polygon class="st2" points="140.2,394.8 132.6,390.4 135.1,389 142.7,393.4 						"/>
					</g>
					<g>
						<polygon class="st2" points="135.1,394.8 132.6,393.4 140.2,389 142.7,390.4 						"/>
					</g>
				</g>
			</g>
		</g>
		<g>
			<g>
				<g>
					<g>
						<polygon class="st2" points="180.5,376.9 172.9,372.6 175.4,371.1 182.9,375.5 						"/>
					</g>
					<g>
						<polygon class="st2" points="175.4,376.9 172.9,375.5 180.5,371.1 182.9,372.6 						"/>
					</g>
				</g>
			</g>
		</g>
		<g>
			<g>
				<g>
					<g>
						<polygon class="st2" points="218.6,362 211,357.6 213.5,356.2 221.1,360.6 						"/>
					</g>
					<g>
						<polygon class="st2" points="213.5,362 211,360.6 218.6,356.2 221.1,357.6 						"/>
					</g>
				</g>
			</g>
		</g>
		<g>
			<g>
				<g>
					<g>
						<polygon class="st2" points="241.7,366.8 234.1,362.4 236.6,361 244.2,365.4 						"/>
					</g>
					<g>
						<polygon class="st2" points="236.6,366.8 234.1,365.4 241.7,361 244.2,362.4 						"/>
					</g>
				</g>
			</g>
		</g>
		<g>
			<g>
				<g>
					<g>
						<polygon class="st2" points="259.4,362.3 251.9,357.9 254.3,356.5 261.9,360.9 						"/>
					</g>
					<g>
						<polygon class="st2" points="254.3,362.3 251.9,360.9 259.4,356.5 261.9,357.9 						"/>
					</g>
				</g>
			</g>
		</g>
		<g>
			<g>
				<g>
					<g>
						<polygon class="st2" points="257.3,343.3 249.7,338.9 252.2,337.5 259.8,341.9 						"/>
					</g>
					<g>
						<polygon class="st2" points="252.2,343.3 249.7,341.9 257.3,337.5 259.8,338.9 						"/>
					</g>
				</g>
			</g>
		</g>
		<g>
			<g>
				<g>
					<g>
						<polygon class="st2" points="238.7,318.4 231.1,314.1 233.6,312.6 241.2,317 						"/>
					</g>
					<g>
						<polygon class="st2" points="233.6,318.4 231.1,317 238.7,312.6 241.2,314.1 						"/>
					</g>
				</g>
			</g>
		</g>
		<g>
			<g>
				<g>
					<g>
						<polygon class="st2" points="224.5,309 216.9,304.6 219.4,303.2 227,307.5 						"/>
					</g>
					<g>
						<polygon class="st2" points="219.4,309 216.9,307.5 224.5,303.2 227,304.6 						"/>
					</g>
				</g>
			</g>
		</g>
		<g>
			<g>
				<g>
					<g>
						<polygon class="st2" points="189.2,318 181.7,313.6 184.1,312.2 191.7,316.5 						"/>
					</g>
					<g>
						<polygon class="st2" points="184.1,318 181.7,316.5 189.2,312.2 191.7,313.6 						"/>
					</g>
				</g>
			</g>
		</g>
		<g>
			<g>
				<g>
					<g>
						<polygon class="st2" points="161.1,325 153.6,320.7 156,319.3 163.6,323.6 						"/>
					</g>
					<g>
						<polygon class="st2" points="156,325 153.6,323.6 161.1,319.3 163.6,320.7 						"/>
					</g>
				</g>
			</g>
		</g>
		<g>
			<g>
				<g>
					<g>
						<polygon class="st2" points="150.5,358.6 142.9,354.3 145.4,352.8 152.9,357.2 						"/>
					</g>
					<g>
						<polygon class="st2" points="145.4,358.6 142.9,357.2 150.5,352.8 152.9,354.3 						"/>
					</g>
				</g>
			</g>
		</g>
		<g>
			<g>
				<g>
					<g>
						<polygon class="st2" points="163.5,422.3 156,417.9 158.4,416.5 166,420.9 						"/>
					</g>
					<g>
						<polygon class="st2" points="158.4,422.3 156,420.9 163.5,416.5 166,417.9 						"/>
					</g>
				</g>
			</g>
		</g>
		<g>
			<g>
				<g>
					<g>
						<polygon class="st2" points="217.4,444.8 209.8,440.5 212.3,439 219.9,443.4 						"/>
					</g>
					<g>
						<polygon class="st2" points="212.3,444.8 209.8,443.4 217.4,439 219.9,440.5 						"/>
					</g>
				</g>
			</g>
		</g>
		<g>
			<g>
				<g>
					<g>
						<polygon class="st2" points="246.6,380.2 239,375.9 241.5,374.4 249.1,378.8 						"/>
					</g>
					<g>
						<polygon class="st2" points="241.5,380.2 239,378.8 246.6,374.4 249.1,375.9 						"/>
					</g>
				</g>
			</g>
		</g>
		<g>
			<g>
				<g>
					<g>
						<polygon class="st2" points="269.1,370.9 261.5,366.5 264,365.1 271.6,369.5 						"/>
					</g>
					<g>
						<polygon class="st2" points="264,370.9 261.5,369.5 269.1,365.1 271.6,366.5 						"/>
					</g>
				</g>
			</g>
		</g>
		<g>
			<g>
				<g>
					<g>
						<polygon class="st2" points="287.6,378.6 280,374.3 282.4,372.9 290,377.2 						"/>
					</g>
					<g>
						<polygon class="st2" points="282.4,378.6 280,377.2 287.6,372.9 290,374.3 						"/>
					</g>
				</g>
			</g>
		</g>
		<g>
			<g>
				<g>
					<g>
						<polygon class="st2" points="315.1,375.9 307.5,371.5 310,370.1 317.5,374.5 						"/>
					</g>
					<g>
						<polygon class="st2" points="310,375.9 307.5,374.5 315.1,370.1 317.5,371.5 						"/>
					</g>
				</g>
			</g>
		</g>
		<g>
			<g>
				<g>
					<g>
						<polygon class="st2" points="313.4,366.2 305.8,361.8 308.3,360.4 315.9,364.8 						"/>
					</g>
					<g>
						<polygon class="st2" points="308.3,366.2 305.8,364.8 313.4,360.4 315.9,361.8 						"/>
					</g>
				</g>
			</g>
		</g>
		<g>
			<g>
				<g>
					<g>
						<polygon class="st2" points="295.2,336.7 287.6,332.4 290.1,331 297.7,335.3 						"/>
					</g>
					<g>
						<polygon class="st2" points="290.1,336.7 287.6,335.3 295.2,331 297.7,332.4 						"/>
					</g>
				</g>
			</g>
		</g>
		<g>
			<g>
				<g>
					<g>
						<polygon class="st2" points="282.9,332.9 275.3,328.5 277.8,327.1 285.4,331.5 						"/>
					</g>
					<g>
						<polygon class="st2" points="277.8,332.9 275.3,331.5 282.9,327.1 285.4,328.5 						"/>
					</g>
				</g>
			</g>
		</g>
		<g>
			<g>
				<g>
					<g>
						<polygon class="st2" points="272.2,341.6 264.6,337.3 267.1,335.9 274.7,340.2 						"/>
					</g>
					<g>
						<polygon class="st2" points="267.1,341.6 264.6,340.2 272.2,335.9 274.7,337.3 						"/>
					</g>
				</g>
			</g>
		</g>
		<g>
			<g>
				<g>
					<g>
						<polygon class="st2" points="310.5,416.9 302.9,412.6 305.4,411.1 313,415.5 						"/>
					</g>
					<g>
						<polygon class="st2" points="305.4,416.9 302.9,415.5 310.5,411.1 313,412.6 						"/>
					</g>
				</g>
			</g>
		</g>
		<g>
			<g>
				<g>
					<g>
						<polygon class="st2" points="275.4,444.2 267.8,439.9 270.3,438.5 277.9,442.8 						"/>
					</g>
					<g>
						<polygon class="st2" points="270.3,444.2 267.8,442.8 275.4,438.5 277.9,439.9 						"/>
					</g>
				</g>
			</g>
		</g>
		<g>
			<g>
				<g>
					<g>
						<polygon class="st2" points="228.2,458 220.7,453.7 223.1,452.3 230.7,456.6 						"/>
					</g>
					<g>
						<polygon class="st2" points="223.1,458 220.7,456.6 228.2,452.3 230.7,453.7 						"/>
					</g>
				</g>
			</g>
		</g>
		<g>
			<g>
				<g>
					<g>
						<polygon class="st2" points="198,453.1 190.4,448.7 192.9,447.3 200.5,451.7 						"/>
					</g>
					<g>
						<polygon class="st2" points="192.9,453.1 190.4,451.7 198,447.3 200.5,448.7 						"/>
					</g>
				</g>
			</g>
		</g>
		<g>
			<g>
				<g>
					<g>
						<polygon class="st2" points="171.5,410.5 163.9,406.2 166.4,404.7 174,409.1 						"/>
					</g>
					<g>
						<polygon class="st2" points="166.4,410.5 163.9,409.1 171.5,404.7 174,406.2 						"/>
					</g>
				</g>
			</g>
		</g>
		<g>
			<g>
				<g>
					<g>
						<polygon class="st2" points="232.8,376.9 225.3,372.5 227.7,371.1 235.3,375.5 						"/>
					</g>
					<g>
						<polygon class="st2" points="227.7,376.9 225.3,375.5 232.8,371.1 235.3,372.5 						"/>
					</g>
				</g>
			</g>
		</g>
		<g>
			<g>
				<g>
					<g>
						<polygon class="st2" points="295.1,369.8 287.5,365.4 290,364 297.6,368.3 						"/>
					</g>
					<g>
						<polygon class="st2" points="290,369.8 287.5,368.3 295.1,364 297.6,365.4 						"/>
					</g>
				</g>
			</g>
		</g>
		<g>
			<g>
				<g>
					<g>
						<polygon class="st2" points="306.7,358.2 299.1,353.9 301.6,352.5 309.2,356.8 						"/>
					</g>
					<g>
						<polygon class="st2" points="301.6,358.2 299.1,356.8 306.7,352.5 309.2,353.9 						"/>
					</g>
				</g>
			</g>
		</g>
		<g>
			<g>
				<g>
					<g>
						<polygon class="st2" points="296.1,346 288.5,341.6 291,340.2 298.6,344.5 						"/>
					</g>
					<g>
						<polygon class="st2" points="291,346 288.5,344.5 296.1,340.2 298.6,341.6 						"/>
					</g>
				</g>
			</g>
		</g>
		<g>
			<g>
				<g>
					<g>
						<polygon class="st2" points="283.1,361.6 275.5,357.2 278,355.8 285.5,360.1 						"/>
					</g>
					<g>
						<polygon class="st2" points="278,361.6 275.5,360.1 283.1,355.8 285.5,357.2 						"/>
					</g>
				</g>
			</g>
		</g>
		<g>
			<g>
				<g>
					<g>
						<polygon class="st2" points="250.9,428.4 243.3,424 245.8,422.6 253.4,426.9 						"/>
					</g>
					<g>
						<polygon class="st2" points="245.8,428.4 243.3,426.9 250.9,422.6 253.4,424 						"/>
					</g>
				</g>
			</g>
		</g>
		<g>
			<g>
				<g>
					<g>
						<polygon class="st2" points="86.3,447.6 78.8,443.2 81.2,441.8 88.8,446.1 						"/>
					</g>
					<g>
						<polygon class="st2" points="81.2,447.6 78.8,446.1 86.3,441.8 88.8,443.2 						"/>
					</g>
				</g>
			</g>
		</g>
		<g>
			<g>
				<g>
					<g>
						<polygon class="st2" points="59.2,458.6 51.6,454.2 54,452.8 61.6,457.2 						"/>
					</g>
					<g>
						<polygon class="st2" points="54,458.6 51.6,457.2 59.2,452.8 61.6,454.2 						"/>
					</g>
				</g>
			</g>
		</g>
		<g>
			<g>
				<g>
					<g>
						<polygon class="st2" points="57,465.8 49.4,461.4 51.8,460 59.4,464.4 						"/>
					</g>
					<g>
						<polygon class="st2" points="51.8,465.8 49.4,464.4 57,460 59.4,461.4 						"/>
					</g>
				</g>
			</g>
		</g>
		<g>
			<g>
				<g>
					<g>
						<polygon class="st2" points="92.1,458.2 84.5,453.8 87,452.4 94.6,456.8 						"/>
					</g>
					<g>
						<polygon class="st2" points="87,458.2 84.5,456.8 92.1,452.4 94.6,453.8 						"/>
					</g>
				</g>
			</g>
		</g>
		<g>
			<g>
				<g>
					<g>
						<polygon class="st2" points="210.4,383 202.8,378.6 205.3,377.2 212.9,381.6 						"/>
					</g>
					<g>
						<polygon class="st2" points="205.3,383 202.8,381.6 210.4,377.2 212.9,378.6 						"/>
					</g>
				</g>
			</g>
		</g>
		<g>
			<g>
				<g>
					<g>
						<polygon class="st2" points="279.1,353.9 271.5,349.5 274,348.1 281.6,352.5 						"/>
					</g>
					<g>
						<polygon class="st2" points="274,353.9 271.5,352.5 279.1,348.1 281.6,349.5 						"/>
					</g>
				</g>
			</g>
		</g>
		<g>
			<g>
				<g>
					<g>
						<polygon class="st2" points="294.9,318 287.3,313.6 289.8,312.2 297.3,316.6 						"/>
					</g>
					<g>
						<polygon class="st2" points="289.8,318 287.3,316.6 294.9,312.2 297.3,313.6 						"/>
					</g>
				</g>
			</g>
		</g>
		<g>
			<g>
				<g>
					<g>
						<polygon class="st2" points="329.4,327.2 321.8,322.8 324.3,321.4 331.9,325.7 						"/>
					</g>
					<g>
						<polygon class="st2" points="324.3,327.2 321.8,325.7 329.4,321.4 331.9,322.8 						"/>
					</g>
				</g>
			</g>
		</g>
		<g>
			<g>
				<g>
					<g>
						<polygon class="st2" points="385.2,342.5 377.6,338.2 380,336.7 387.6,341.1 						"/>
					</g>
					<g>
						<polygon class="st2" points="380,342.5 377.6,341.1 385.2,336.7 387.6,338.2 						"/>
					</g>
				</g>
			</g>
		</g>
		<g>
			<g>
				<g>
					<g>
						<polygon class="st2" points="400,346.6 392.4,342.2 394.9,340.8 402.4,345.2 						"/>
					</g>
					<g>
						<polygon class="st2" points="394.9,346.6 392.4,345.2 400,340.8 402.4,342.2 						"/>
					</g>
				</g>
			</g>
		</g>
		<g>
			<g>
				<g>
					<g>
						<polygon class="st2" points="312.7,388.6 305.1,384.2 307.6,382.8 315.2,387.2 						"/>
					</g>
					<g>
						<polygon class="st2" points="307.6,388.6 305.1,387.2 312.7,382.8 315.2,384.2 						"/>
					</g>
				</g>
			</g>
		</g>
		<g>
			<g>
				<g>
					<g>
						<polygon class="st2" points="228.5,441.3 220.9,436.9 223.4,435.5 231,439.8 						"/>
					</g>
					<g>
						<polygon class="st2" points="223.4,441.3 220.9,439.8 228.5,435.5 231,436.9 						"/>
					</g>
				</g>
			</g>
		</g>
		<g>
			<g>
				<g>
					<g>
						<polygon class="st2" points="146.3,425 138.7,420.7 141.2,419.2 148.8,423.6 						"/>
					</g>
					<g>
						<polygon class="st2" points="141.2,425 138.7,423.6 146.3,419.2 148.8,420.7 						"/>
					</g>
				</g>
			</g>
		</g>
		<g>
			<g>
				<g>
					<g>
						<polygon class="st2" points="125.4,429.3 117.8,425 120.3,423.5 127.9,427.9 						"/>
					</g>
					<g>
						<polygon class="st2" points="120.3,429.3 117.8,427.9 125.4,423.5 127.9,425 						"/>
					</g>
				</g>
			</g>
		</g>
		<g>
			<g>
				<g>
					<g>
						<polygon class="st2" points="82.3,425.7 74.8,421.3 77.2,419.9 84.8,424.3 						"/>
					</g>
					<g>
						<polygon class="st2" points="77.2,425.7 74.8,424.3 82.3,419.9 84.8,421.3 						"/>
					</g>
				</g>
			</g>
		</g>
		<g>
			<g>
				<g>
					<g>
						<polygon class="st2" points="96.6,379.9 89.1,375.5 91.5,374.1 99.1,378.4 						"/>
					</g>
					<g>
						<polygon class="st2" points="91.5,379.9 89.1,378.4 96.6,374.1 99.1,375.5 						"/>
					</g>
				</g>
			</g>
		</g>
		<g>
			<g>
				<g>
					<g>
						<polygon class="st2" points="177.2,327.6 169.6,323.2 172.1,321.8 179.7,326.2 						"/>
					</g>
					<g>
						<polygon class="st2" points="172.1,327.6 169.6,326.2 177.2,321.8 179.7,323.2 						"/>
					</g>
				</g>
			</g>
		</g>
		<g>
			<g>
				<g>
					<g>
						<polygon class="st2" points="180.5,306.7 172.9,302.4 175.4,300.9 182.9,305.3 						"/>
					</g>
					<g>
						<polygon class="st2" points="175.4,306.7 172.9,305.3 180.5,300.9 182.9,302.4 						"/>
					</g>
				</g>
			</g>
		</g>
		<g>
			<g>
				<g>
					<g>
						<polygon class="st2" points="191.6,302.5 184,298.1 186.5,296.7 194.1,301.1 						"/>
					</g>
					<g>
						<polygon class="st2" points="186.5,302.5 184,301.1 191.6,296.7 194.1,298.1 						"/>
					</g>
				</g>
			</g>
		</g>
		<g>
			<g>
				<g>
					<g>
						<polygon class="st2" points="203.8,312.2 196.2,307.9 198.7,306.4 206.3,310.8 						"/>
					</g>
					<g>
						<polygon class="st2" points="198.7,312.2 196.2,310.8 203.8,306.4 206.3,307.9 						"/>
					</g>
				</g>
			</g>
		</g>
		<g>
			<g>
				<g>
					<g>
						<polygon class="st2" points="102.6,339.5 95,335.1 97.4,333.7 105,338 						"/>
					</g>
					<g>
						<polygon class="st2" points="97.4,339.5 95,338 102.6,333.7 105,335.1 						"/>
					</g>
				</g>
			</g>
		</g>
		<g>
			<g>
				<g>
					<g>
						<polygon class="st2" points="54.8,406.9 47.2,402.5 49.6,401.1 57.2,405.4 						"/>
					</g>
					<g>
						<polygon class="st2" points="49.6,406.9 47.2,405.4 54.8,401.1 57.2,402.5 						"/>
					</g>
				</g>
			</g>
		</g>
		<g>
			<g>
				<g>
					<g>
						<polygon class="st2" points="114.6,456.7 107,452.3 109.5,450.9 117.1,455.3 						"/>
					</g>
					<g>
						<polygon class="st2" points="109.5,456.7 107,455.3 114.6,450.9 117.1,452.3 						"/>
					</g>
				</g>
			</g>
		</g>
		<g>
			<g>
				<g>
					<g>
						<polygon class="st2" points="195.5,396.8 187.9,392.4 190.4,391 197.9,395.4 						"/>
					</g>
					<g>
						<polygon class="st2" points="190.4,396.8 187.9,395.4 195.5,391 197.9,392.4 						"/>
					</g>
				</g>
			</g>
		</g>
		<g>
			<g>
				<g>
					<g>
						<polygon class="st2" points="335.5,341.8 327.9,337.4 330.4,336 338,340.4 						"/>
					</g>
					<g>
						<polygon class="st2" points="330.4,341.8 327.9,340.4 335.5,336 338,337.4 						"/>
					</g>
				</g>
			</g>
		</g>
		<g>
			<g>
				<g>
					<g>
						<polygon class="st2" points="385.4,311.7 377.8,307.3 380.3,305.9 387.9,310.3 						"/>
					</g>
					<g>
						<polygon class="st2" points="380.3,311.7 377.8,310.3 385.4,305.9 387.9,307.3 						"/>
					</g>
				</g>
			</g>
		</g>
		<g>
			<g>
				<g>
					<g>
						<polygon class="st2" points="403.1,303.4 395.6,299 398,297.6 405.6,302 						"/>
					</g>
					<g>
						<polygon class="st2" points="398,303.4 395.6,302 403.1,297.6 405.6,299 						"/>
					</g>
				</g>
			</g>
		</g>
		<g>
			<g>
				<g>
					<g>
						<polygon class="st2" points="410.2,315.9 402.6,311.5 405.1,310.1 412.7,314.4 						"/>
					</g>
					<g>
						<polygon class="st2" points="405.1,315.9 402.6,314.4 410.2,310.1 412.7,311.5 						"/>
					</g>
				</g>
			</g>
		</g>
		<g>
			<g>
				<g>
					<g>
						<polygon class="st2" points="382.1,321.9 374.6,317.5 377,316.1 384.6,320.5 						"/>
					</g>
					<g>
						<polygon class="st2" points="377,321.9 374.6,320.5 382.1,316.1 384.6,317.5 						"/>
					</g>
				</g>
			</g>
		</g>
		<g>
			<g>
				<g>
					<g>
						<polygon class="st2" points="178.2,397.2 170.6,392.8 173,391.4 180.6,395.8 						"/>
					</g>
					<g>
						<polygon class="st2" points="173,397.2 170.6,395.8 178.2,391.4 180.6,392.8 						"/>
					</g>
				</g>
			</g>
		</g>
		<g>
			<g>
				<g>
					<g>
						<polygon class="st2" points="108.7,421.5 101.1,417.1 103.6,415.7 111.2,420.1 						"/>
					</g>
					<g>
						<polygon class="st2" points="103.6,421.5 101.1,420.1 108.7,415.7 111.2,417.1 						"/>
					</g>
				</g>
			</g>
		</g>
		<g>
			<g>
				<g>
					<g>
						<polygon class="st2" points="43.4,487.6 35.9,483.3 38.3,481.8 45.9,486.2 						"/>
					</g>
					<g>
						<polygon class="st2" points="38.3,487.6 35.9,486.2 43.4,481.8 45.9,483.3 						"/>
					</g>
				</g>
			</g>
		</g>
		<g>
			<g>
				<g>
					<g>
						<polygon class="st2" points="44,537.3 36.4,532.9 38.9,531.5 46.5,535.9 						"/>
					</g>
					<g>
						<polygon class="st2" points="38.9,537.3 36.4,535.9 44,531.5 46.5,532.9 						"/>
					</g>
				</g>
			</g>
		</g>
		<g>
			<g>
				<g>
					<g>
						<polygon class="st2" points="59.2,544 51.6,539.6 54.1,538.2 61.7,542.5 						"/>
					</g>
					<g>
						<polygon class="st2" points="54.1,544 51.6,542.5 59.2,538.2 61.7,539.6 						"/>
					</g>
				</g>
			</g>
		</g>
		<g>
			<g>
				<g>
					<g>
						<polygon class="st2" points="185.4,451.3 177.8,446.9 180.3,445.5 187.9,449.9 						"/>
					</g>
					<g>
						<polygon class="st2" points="180.3,451.3 177.8,449.9 185.4,445.5 187.9,446.9 						"/>
					</g>
				</g>
			</g>
		</g>
		<g>
			<g>
				<g>
					<g>
						<polygon class="st2" points="330.8,389.5 323.2,385.1 325.7,383.7 333.3,388.1 						"/>
					</g>
					<g>
						<polygon class="st2" points="325.7,389.5 323.2,388.1 330.8,383.7 333.3,385.1 						"/>
					</g>
				</g>
			</g>
		</g>
		<g>
			<g>
				<g>
					<g>
						<polygon class="st2" points="452.6,332.6 445,328.2 447.5,326.8 455,331.2 						"/>
					</g>
					<g>
						<polygon class="st2" points="447.5,332.6 445,331.2 452.6,326.8 455,328.2 						"/>
					</g>
				</g>
			</g>
		</g>
		<g>
			<g>
				<g>
					<g>
						<polygon class="st2" points="517.9,272.3 510.4,267.9 512.8,266.5 520.4,270.9 						"/>
					</g>
					<g>
						<polygon class="st2" points="512.8,272.3 510.4,270.9 517.9,266.5 520.4,267.9 						"/>
					</g>
				</g>
			</g>
		</g>
		<g>
			<g>
				<g>
					<g>
						<polygon class="st2" points="523.6,279.8 516,275.4 518.5,274 526.1,278.4 						"/>
					</g>
					<g>
						<polygon class="st2" points="518.5,279.8 516,278.4 523.6,274 526.1,275.4 						"/>
					</g>
				</g>
			</g>
		</g>
		<g>
			<g>
				<g>
					<g>
						<polygon class="st2" points="506.8,279.7 499.2,275.4 501.7,273.9 509.3,278.3 						"/>
					</g>
					<g>
						<polygon class="st2" points="501.7,279.7 499.2,278.3 506.8,273.9 509.3,275.4 						"/>
					</g>
				</g>
			</g>
		</g>
	</g>
	<g>
		<g>
			<g>
				<g>
					<g>
						<polygon class="st2" points="199.6,360.1 207.2,364.4 204.7,365.9 197.1,361.5 						"/>
					</g>
					<g>
						<polygon class="st2" points="204.7,360.1 207.2,361.5 199.6,365.9 197.1,364.4 						"/>
					</g>
				</g>
			</g>
		</g>
		<g>
			<g>
				<g>
					<g>
						<polygon class="st2" points="190.4,355.4 197.9,359.8 195.5,361.2 187.9,356.8 						"/>
					</g>
					<g>
						<polygon class="st2" points="195.5,355.4 197.9,356.8 190.4,361.2 187.9,359.8 						"/>
					</g>
				</g>
			</g>
		</g>
		<g>
			<g>
				<g>
					<g>
						<polygon class="st2" points="207.7,349.2 215.3,353.6 212.9,355 205.3,350.6 						"/>
					</g>
					<g>
						<polygon class="st2" points="212.9,349.2 215.3,350.6 207.7,355 205.3,353.6 						"/>
					</g>
				</g>
			</g>
		</g>
		<g>
			<g>
				<g>
					<g>
						<polygon class="st2" points="225.4,327.3 233,331.7 230.6,333.1 223,328.8 						"/>
					</g>
					<g>
						<polygon class="st2" points="230.6,327.3 233,328.8 225.4,333.1 223,331.7 						"/>
					</g>
				</g>
			</g>
		</g>
		<g>
			<g>
				<g>
					<g>
						<polygon class="st2" points="231,317.2 238.6,321.6 236.1,323 228.6,318.7 						"/>
					</g>
					<g>
						<polygon class="st2" points="236.1,317.2 238.6,318.7 231,323 228.6,321.6 						"/>
					</g>
				</g>
			</g>
		</g>
		<g>
			<g>
				<g>
					<g>
						<polygon class="st2" points="239.7,323.7 247.3,328.1 244.8,329.5 237.2,325.1 						"/>
					</g>
					<g>
						<polygon class="st2" points="244.8,323.7 247.3,325.1 239.7,329.5 237.2,328.1 						"/>
					</g>
				</g>
			</g>
		</g>
		<g>
			<g>
				<g>
					<g>
						<polygon class="st2" points="199.4,341.5 207,345.9 204.6,347.3 197,343 						"/>
					</g>
					<g>
						<polygon class="st2" points="204.6,341.5 207,343 199.4,347.3 197,345.9 						"/>
					</g>
				</g>
			</g>
		</g>
		<g>
			<g>
				<g>
					<g>
						<polygon class="st2" points="161.3,356.5 168.9,360.9 166.4,362.3 158.9,357.9 						"/>
					</g>
					<g>
						<polygon class="st2" points="166.4,356.5 168.9,357.9 161.3,362.3 158.9,360.9 						"/>
					</g>
				</g>
			</g>
		</g>
		<g>
			<g>
				<g>
					<g>
						<polygon class="st2" points="138.2,351.7 145.8,356 143.3,357.5 135.8,353.1 						"/>
					</g>
					<g>
						<polygon class="st2" points="143.3,351.7 145.8,353.1 138.2,357.5 135.8,356 						"/>
					</g>
				</g>
			</g>
		</g>
		<g>
			<g>
				<g>
					<g>
						<polygon class="st2" points="120.5,356.2 128.1,360.6 125.6,362 118,357.6 						"/>
					</g>
					<g>
						<polygon class="st2" points="125.6,356.2 128.1,357.6 120.5,362 118,360.6 						"/>
					</g>
				</g>
			</g>
		</g>
		<g>
			<g>
				<g>
					<g>
						<polygon class="st2" points="122.6,375.2 130.2,379.6 127.8,381 120.2,376.6 						"/>
					</g>
					<g>
						<polygon class="st2" points="127.8,375.2 130.2,376.6 122.6,381 120.2,379.6 						"/>
					</g>
				</g>
			</g>
		</g>
		<g>
			<g>
				<g>
					<g>
						<polygon class="st2" points="141.2,400 148.8,404.4 146.4,405.8 138.8,401.5 						"/>
					</g>
					<g>
						<polygon class="st2" points="146.4,400 148.8,401.5 141.2,405.8 138.8,404.4 						"/>
					</g>
				</g>
			</g>
		</g>
		<g>
			<g>
				<g>
					<g>
						<polygon class="st2" points="155.4,409.5 163,413.9 160.5,415.3 152.9,410.9 						"/>
					</g>
					<g>
						<polygon class="st2" points="160.5,409.5 163,410.9 155.4,415.3 152.9,413.9 						"/>
					</g>
				</g>
			</g>
		</g>
		<g>
			<g>
				<g>
					<g>
						<polygon class="st2" points="190.7,400.5 198.3,404.9 195.8,406.3 188.2,401.9 						"/>
					</g>
					<g>
						<polygon class="st2" points="195.8,400.5 198.3,401.9 190.7,406.3 188.2,404.9 						"/>
					</g>
				</g>
			</g>
		</g>
		<g>
			<g>
				<g>
					<g>
						<polygon class="st2" points="218.8,393.4 226.4,397.8 223.9,399.2 216.3,394.8 						"/>
					</g>
					<g>
						<polygon class="st2" points="223.9,393.4 226.4,394.8 218.8,399.2 216.3,397.8 						"/>
					</g>
				</g>
			</g>
		</g>
		<g>
			<g>
				<g>
					<g>
						<polygon class="st2" points="229.5,359.9 237.1,364.2 234.6,365.6 227,361.3 						"/>
					</g>
					<g>
						<polygon class="st2" points="234.6,359.9 237.1,361.3 229.5,365.6 227,364.2 						"/>
					</g>
				</g>
			</g>
		</g>
		<g>
			<g>
				<g>
					<g>
						<polygon class="st2" points="216.4,296.2 224,300.5 221.5,302 213.9,297.6 						"/>
					</g>
					<g>
						<polygon class="st2" points="221.5,296.2 224,297.6 216.4,302 213.9,300.5 						"/>
					</g>
				</g>
			</g>
		</g>
		<g>
			<g>
				<g>
					<g>
						<polygon class="st2" points="183.5,285.6 191.1,290 188.6,291.4 181.1,287.1 						"/>
					</g>
					<g>
						<polygon class="st2" points="188.6,285.6 191.1,287.1 183.5,291.4 181.1,290 						"/>
					</g>
				</g>
			</g>
		</g>
		<g>
			<g>
				<g>
					<g>
						<polygon class="st2" points="129.4,317.2 136.9,321.6 134.5,323 126.9,318.7 						"/>
					</g>
					<g>
						<polygon class="st2" points="134.5,317.2 136.9,318.7 129.4,323 126.9,321.6 						"/>
					</g>
				</g>
			</g>
		</g>
		<g>
			<g>
				<g>
					<g>
						<polygon class="st2" points="110.8,330.6 118.4,335 115.9,336.4 108.3,332 						"/>
					</g>
					<g>
						<polygon class="st2" points="115.9,330.6 118.4,332 110.8,336.4 108.3,335 						"/>
					</g>
				</g>
			</g>
		</g>
		<g>
			<g>
				<g>
					<g>
						<polygon class="st2" points="92.4,339.8 100,344.2 97.5,345.6 89.9,341.2 						"/>
					</g>
					<g>
						<polygon class="st2" points="97.5,339.8 100,341.2 92.4,345.6 89.9,344.2 						"/>
					</g>
				</g>
			</g>
		</g>
		<g>
			<g>
				<g>
					<g>
						<polygon class="st2" points="64.9,342.6 72.4,346.9 70,348.4 62.4,344 						"/>
					</g>
					<g>
						<polygon class="st2" points="70,342.6 72.4,344 64.9,348.4 62.4,346.9 						"/>
					</g>
				</g>
			</g>
		</g>
		<g>
			<g>
				<g>
					<g>
						<polygon class="st2" points="66.5,352.3 74.1,356.7 71.6,358.1 64.1,353.7 						"/>
					</g>
					<g>
						<polygon class="st2" points="71.6,352.3 74.1,353.7 66.5,358.1 64.1,356.7 						"/>
					</g>
				</g>
			</g>
		</g>
		<g>
			<g>
				<g>
					<g>
						<polygon class="st2" points="84.7,381.7 92.3,386.1 89.8,387.5 82.3,383.1 						"/>
					</g>
					<g>
						<polygon class="st2" points="89.8,381.7 92.3,383.1 84.7,387.5 82.3,386.1 						"/>
					</g>
				</g>
			</g>
		</g>
		<g>
			<g>
				<g>
					<g>
						<polygon class="st2" points="97,385.6 104.6,390 102.1,391.4 94.6,387 						"/>
					</g>
					<g>
						<polygon class="st2" points="102.1,385.6 104.6,387 97,391.4 94.6,390 						"/>
					</g>
				</g>
			</g>
		</g>
		<g>
			<g>
				<g>
					<g>
						<polygon class="st2" points="107.7,376.8 115.3,381.2 112.8,382.6 105.2,378.2 						"/>
					</g>
					<g>
						<polygon class="st2" points="112.8,376.8 115.3,378.2 107.7,382.6 105.2,381.2 						"/>
					</g>
				</g>
			</g>
		</g>
		<g>
			<g>
				<g>
					<g>
						<polygon class="st2" points="69.4,301.5 77,305.9 74.5,307.3 67,303 						"/>
					</g>
					<g>
						<polygon class="st2" points="74.5,301.5 77,303 69.4,307.3 67,305.9 						"/>
					</g>
				</g>
			</g>
		</g>
		<g>
			<g>
				<g>
					<g>
						<polygon class="st2" points="104.6,274.2 112.1,278.6 109.7,280 102.1,275.6 						"/>
					</g>
					<g>
						<polygon class="st2" points="109.7,274.2 112.1,275.6 104.6,280 102.1,278.6 						"/>
					</g>
				</g>
			</g>
		</g>
		<g>
			<g>
				<g>
					<g>
						<polygon class="st2" points="151.7,260.4 159.3,264.8 156.8,266.2 149.2,261.9 						"/>
					</g>
					<g>
						<polygon class="st2" points="156.8,260.4 159.3,261.9 151.7,266.2 149.2,264.8 						"/>
					</g>
				</g>
			</g>
		</g>
		<g>
			<g>
				<g>
					<g>
						<polygon class="st2" points="181.9,265.4 189.5,269.7 187,271.2 179.4,266.8 						"/>
					</g>
					<g>
						<polygon class="st2" points="187,265.4 189.5,266.8 181.9,271.2 179.4,269.7 						"/>
					</g>
				</g>
			</g>
		</g>
		<g>
			<g>
				<g>
					<g>
						<polygon class="st2" points="208.4,307.9 216,312.3 213.5,313.7 205.9,309.4 						"/>
					</g>
					<g>
						<polygon class="st2" points="213.5,307.9 216,309.4 208.4,313.7 205.9,312.3 						"/>
					</g>
				</g>
			</g>
		</g>
		<g>
			<g>
				<g>
					<g>
						<polygon class="st2" points="147.1,341.6 154.7,346 152.2,347.4 144.6,343 						"/>
					</g>
					<g>
						<polygon class="st2" points="152.2,341.6 154.7,343 147.1,347.4 144.6,346 						"/>
					</g>
				</g>
			</g>
		</g>
		<g>
			<g>
				<g>
					<g>
						<polygon class="st2" points="84.8,348.7 92.4,353.1 89.9,354.5 82.4,350.1 						"/>
					</g>
					<g>
						<polygon class="st2" points="89.9,348.7 92.4,350.1 84.8,354.5 82.4,353.1 						"/>
					</g>
				</g>
			</g>
		</g>
		<g>
			<g>
				<g>
					<g>
						<polygon class="st2" points="73.2,360.2 80.8,364.6 78.3,366 70.8,361.6 						"/>
					</g>
					<g>
						<polygon class="st2" points="78.3,360.2 80.8,361.6 73.2,366 70.8,364.6 						"/>
					</g>
				</g>
			</g>
		</g>
		<g>
			<g>
				<g>
					<g>
						<polygon class="st2" points="83.8,372.5 91.4,376.9 88.9,378.3 81.3,373.9 						"/>
					</g>
					<g>
						<polygon class="st2" points="88.9,372.5 91.4,373.9 83.8,378.3 81.3,376.9 						"/>
					</g>
				</g>
			</g>
		</g>
		<g>
			<g>
				<g>
					<g>
						<polygon class="st2" points="96.9,356.9 104.4,361.3 102,362.7 94.4,358.3 						"/>
					</g>
					<g>
						<polygon class="st2" points="102,356.9 104.4,358.3 96.9,362.7 94.4,361.3 						"/>
					</g>
				</g>
			</g>
		</g>
		<g>
			<g>
				<g>
					<g>
						<polygon class="st2" points="150,301.1 157.6,305.5 155.1,306.9 147.6,302.5 						"/>
					</g>
					<g>
						<polygon class="st2" points="155.1,301.1 157.6,302.5 150,306.9 147.6,305.5 						"/>
					</g>
				</g>
			</g>
		</g>
		<g>
			<g>
				<g>
					<g>
						<polygon class="st2" points="293.6,270.9 301.2,275.3 298.7,276.7 291.1,272.3 						"/>
					</g>
					<g>
						<polygon class="st2" points="298.7,270.9 301.2,272.3 293.6,276.7 291.1,275.3 						"/>
					</g>
				</g>
			</g>
		</g>
		<g>
			<g>
				<g>
					<g>
						<polygon class="st2" points="320.8,259.9 328.4,264.2 325.9,265.6 318.3,261.3 						"/>
					</g>
					<g>
						<polygon class="st2" points="325.9,259.9 328.4,261.3 320.8,265.6 318.3,264.2 						"/>
					</g>
				</g>
			</g>
		</g>
		<g>
			<g>
				<g>
					<g>
						<polygon class="st2" points="323,252.7 330.6,257 328.1,258.5 320.5,254.1 						"/>
					</g>
					<g>
						<polygon class="st2" points="328.1,252.7 330.6,254.1 323,258.5 320.5,257 						"/>
					</g>
				</g>
			</g>
		</g>
		<g>
			<g>
				<g>
					<g>
						<polygon class="st2" points="287.8,260.3 295.4,264.7 293,266.1 285.4,261.7 						"/>
					</g>
					<g>
						<polygon class="st2" points="293,260.3 295.4,261.7 287.8,266.1 285.4,264.7 						"/>
					</g>
				</g>
			</g>
		</g>
		<g>
			<g>
				<g>
					<g>
						<polygon class="st2" points="169.5,335.5 177.1,339.9 174.7,341.3 167.1,336.9 						"/>
					</g>
					<g>
						<polygon class="st2" points="174.7,335.5 177.1,336.9 169.5,341.3 167.1,339.9 						"/>
					</g>
				</g>
			</g>
		</g>
		<g>
			<g>
				<g>
					<g>
						<polygon class="st2" points="100.8,364.6 108.4,368.9 105.9,370.4 98.3,366 						"/>
					</g>
					<g>
						<polygon class="st2" points="105.9,364.6 108.4,366 100.8,370.4 98.3,368.9 						"/>
					</g>
				</g>
			</g>
		</g>
		<g>
			<g>
				<g>
					<g>
						<polygon class="st2" points="85.1,400.5 92.6,404.8 90.2,406.2 82.6,401.9 						"/>
					</g>
					<g>
						<polygon class="st2" points="90.2,400.5 92.6,401.9 85.1,406.2 82.6,404.8 						"/>
					</g>
				</g>
			</g>
		</g>
		<g>
			<g>
				<g>
					<g>
						<polygon class="st2" points="50.5,391.3 58.1,395.7 55.7,397.1 48.1,392.7 						"/>
					</g>
					<g>
						<polygon class="st2" points="55.7,391.3 58.1,392.7 50.5,397.1 48.1,395.7 						"/>
					</g>
				</g>
			</g>
		</g>
		<g>
			<g>
				<g>
					<g>
						<polygon class="st2" points="390.8,346.9 398.4,351.3 395.9,352.7 388.3,348.4 						"/>
					</g>
					<g>
						<polygon class="st2" points="395.9,346.9 398.4,348.4 390.8,352.7 388.3,351.3 						"/>
					</g>
				</g>
			</g>
		</g>
		<g>
			<g>
				<g>
					<g>
						<polygon class="st2" points="376,342.9 383.5,347.2 381.1,348.6 373.5,344.3 						"/>
					</g>
					<g>
						<polygon class="st2" points="381.1,342.9 383.5,344.3 376,348.6 373.5,347.2 						"/>
					</g>
				</g>
			</g>
		</g>
		<g>
			<g>
				<g>
					<g>
						<polygon class="st2" points="67.2,329.9 74.8,334.2 72.3,335.6 64.7,331.3 						"/>
					</g>
					<g>
						<polygon class="st2" points="72.3,329.9 74.8,331.3 67.2,335.6 64.7,334.2 						"/>
					</g>
				</g>
			</g>
		</g>
		<g>
			<g>
				<g>
					<g>
						<polygon class="st2" points="172.4,289.2 180,293.6 177.5,295 170,290.6 						"/>
					</g>
					<g>
						<polygon class="st2" points="177.5,289.2 180,290.6 172.4,295 170,293.6 						"/>
					</g>
				</g>
			</g>
		</g>
		<g>
			<g>
				<g>
					<g>
						<polygon class="st2" points="233.6,293.4 241.2,297.8 238.8,299.2 231.2,294.9 						"/>
					</g>
					<g>
						<polygon class="st2" points="238.8,293.4 241.2,294.9 233.6,299.2 231.2,297.8 						"/>
					</g>
				</g>
			</g>
		</g>
		<g>
			<g>
				<g>
					<g>
						<polygon class="st2" points="254.5,289.1 262.1,293.5 259.6,294.9 252.1,290.5 						"/>
					</g>
					<g>
						<polygon class="st2" points="259.6,289.1 262.1,290.5 254.5,294.9 252.1,293.5 						"/>
					</g>
				</g>
			</g>
		</g>
		<g>
			<g>
				<g>
					<g>
						<polygon class="st2" points="297.6,292.8 305.2,297.2 302.7,298.6 295.1,294.2 						"/>
					</g>
					<g>
						<polygon class="st2" points="302.7,292.8 305.2,294.2 297.6,298.6 295.1,297.2 						"/>
					</g>
				</g>
			</g>
		</g>
		<g>
			<g>
				<g>
					<g>
						<polygon class="st2" points="283.3,338.6 290.9,343 288.4,344.4 280.8,340 						"/>
					</g>
					<g>
						<polygon class="st2" points="288.4,338.6 290.9,340 283.3,344.4 280.8,343 						"/>
					</g>
				</g>
			</g>
		</g>
		<g>
			<g>
				<g>
					<g>
						<polygon class="st2" points="202.7,390.9 210.3,395.2 207.8,396.6 200.2,392.3 						"/>
					</g>
					<g>
						<polygon class="st2" points="207.8,390.9 210.3,392.3 202.7,396.6 200.2,395.2 						"/>
					</g>
				</g>
			</g>
		</g>
		<g>
			<g>
				<g>
					<g>
						<polygon class="st2" points="156.5,433.8 164.1,438.1 161.6,439.5 154,435.2 						"/>
					</g>
					<g>
						<polygon class="st2" points="161.6,433.8 164.1,435.2 156.5,439.5 154,438.1 						"/>
					</g>
				</g>
			</g>
		</g>
		<g>
			<g>
				<g>
					<g>
						<polygon class="st2" points="145.3,438 152.9,442.3 150.5,443.8 142.9,439.4 						"/>
					</g>
					<g>
						<polygon class="st2" points="150.5,438 152.9,439.4 145.3,443.8 142.9,442.3 						"/>
					</g>
				</g>
			</g>
		</g>
		<g>
			<g>
				<g>
					<g>
						<polygon class="st2" points="176.1,406.2 183.7,410.6 181.2,412 173.6,407.7 						"/>
					</g>
					<g>
						<polygon class="st2" points="181.2,406.2 183.7,407.7 176.1,412 173.6,410.6 						"/>
					</g>
				</g>
			</g>
		</g>
		<g>
			<g>
				<g>
					<g>
						<polygon class="st2" points="277.4,379 285,383.4 282.5,384.8 274.9,380.4 						"/>
					</g>
					<g>
						<polygon class="st2" points="282.5,379 285,380.4 277.4,384.8 274.9,383.4 						"/>
					</g>
				</g>
			</g>
		</g>
		<g>
			<g>
				<g>
					<g>
						<polygon class="st2" points="325.2,311.6 332.8,316 330.3,317.4 322.7,313 						"/>
					</g>
					<g>
						<polygon class="st2" points="330.3,311.6 332.8,313 325.2,317.4 322.7,316 						"/>
					</g>
				</g>
			</g>
		</g>
		<g>
			<g>
				<g>
					<g>
						<polygon class="st2" points="265.3,261.8 272.9,266.1 270.4,267.6 262.9,263.2 						"/>
					</g>
					<g>
						<polygon class="st2" points="270.4,261.8 272.9,263.2 265.3,267.6 262.9,266.1 						"/>
					</g>
				</g>
			</g>
		</g>
		<g>
			<g>
				<g>
					<g>
						<polygon class="st2" points="184.5,321.7 192,326.1 189.6,327.5 182,323.1 						"/>
					</g>
					<g>
						<polygon class="st2" points="189.6,321.7 192,323.1 184.5,327.5 182,326.1 						"/>
					</g>
				</g>
			</g>
		</g>
		<g>
			<g>
				<g>
					<g>
						<polygon class="st2" points="44.4,376.7 52,381.1 49.6,382.5 42,378.1 						"/>
					</g>
					<g>
						<polygon class="st2" points="49.6,376.7 52,378.1 44.4,382.5 42,381.1 						"/>
					</g>
				</g>
			</g>
		</g>
		<g>
			<g>
				<g>
					<g>
						<polygon class="st2" points="390.5,377.8 398.1,382.2 395.6,383.6 388.1,379.2 						"/>
					</g>
					<g>
						<polygon class="st2" points="395.6,377.8 398.1,379.2 390.5,383.6 388.1,382.2 						"/>
					</g>
				</g>
			</g>
		</g>
		<g>
			<g>
				<g>
					<g>
						<polygon class="st2" points="372.8,386.1 380.4,390.4 377.9,391.9 370.3,387.5 						"/>
					</g>
					<g>
						<polygon class="st2" points="377.9,386.1 380.4,387.5 372.8,391.9 370.3,390.4 						"/>
					</g>
				</g>
			</g>
		</g>
		<g>
			<g>
				<g>
					<g>
						<polygon class="st2" points="365.7,373.6 373.3,378 370.8,379.4 363.2,375 						"/>
					</g>
					<g>
						<polygon class="st2" points="370.8,373.6 373.3,375 365.7,379.4 363.2,378 						"/>
					</g>
				</g>
			</g>
		</g>
		<g>
			<g>
				<g>
					<g>
						<polygon class="st2" points="393.8,367.5 401.4,371.9 398.9,373.4 391.3,369 						"/>
					</g>
					<g>
						<polygon class="st2" points="398.9,367.5 401.4,369 393.8,373.4 391.3,371.9 						"/>
					</g>
				</g>
			</g>
		</g>
		<g>
			<g>
				<g>
					<g>
						<polygon class="st2" points="201.8,321.3 209.4,325.6 206.9,327.1 199.3,322.7 						"/>
					</g>
					<g>
						<polygon class="st2" points="206.9,321.3 209.4,322.7 201.8,327.1 199.3,325.6 						"/>
					</g>
				</g>
			</g>
		</g>
		<g>
			<g>
				<g>
					<g>
						<polygon class="st2" points="271.2,297 278.8,301.3 276.4,302.8 268.8,298.4 						"/>
					</g>
					<g>
						<polygon class="st2" points="276.4,297 278.8,298.4 271.2,302.8 268.8,301.3 						"/>
					</g>
				</g>
			</g>
		</g>
		<g>
			<g>
				<g>
					<g>
						<polygon class="st2" points="336.5,230.8 344.1,235.2 341.6,236.6 334,232.3 						"/>
					</g>
					<g>
						<polygon class="st2" points="341.6,230.8 344.1,232.3 336.5,236.6 334,235.2 						"/>
					</g>
				</g>
			</g>
		</g>
		<g>
			<g>
				<g>
					<g>
						<polygon class="st2" points="336,181.2 343.5,185.6 341.1,187 333.5,182.6 						"/>
					</g>
					<g>
						<polygon class="st2" points="341.1,181.2 343.5,182.6 336,187 333.5,185.6 						"/>
					</g>
				</g>
			</g>
		</g>
		<g>
			<g>
				<g>
					<g>
						<polygon class="st2" points="320.7,174.5 328.3,178.9 325.8,180.3 318.2,175.9 						"/>
					</g>
					<g>
						<polygon class="st2" points="325.8,174.5 328.3,175.9 320.7,180.3 318.2,178.9 						"/>
					</g>
				</g>
			</g>
		</g>
		<g>
			<g>
				<g>
					<g>
						<polygon class="st2" points="194.5,267.2 202.1,271.6 199.6,273 192.1,268.6 						"/>
					</g>
					<g>
						<polygon class="st2" points="199.6,267.2 202.1,268.6 194.5,273 192.1,271.6 						"/>
					</g>
				</g>
			</g>
		</g>
		<g>
			<g>
				<g>
					<g>
						<polygon class="st2" points="49.1,329 56.7,333.4 54.2,334.8 46.6,330.4 						"/>
					</g>
					<g>
						<polygon class="st2" points="54.2,329 56.7,330.4 49.1,334.8 46.6,333.4 						"/>
					</g>
				</g>
			</g>
		</g>
		<g>
			<g>
				<g>
					<g>
						<polygon class="st2" points="283.4,393.9 290.9,398.2 288.5,399.7 280.9,395.3 						"/>
					</g>
					<g>
						<polygon class="st2" points="288.5,393.9 290.9,395.3 283.4,399.7 280.9,398.2 						"/>
					</g>
				</g>
			</g>
		</g>
		<g>
			<g>
				<g>
					<g>
						<polygon class="st2" points="258,417.2 265.6,421.5 263.1,423 255.5,418.6 						"/>
					</g>
					<g>
						<polygon class="st2" points="263.1,417.2 265.6,418.6 258,423 255.5,421.5 						"/>
					</g>
				</g>
			</g>
		</g>
		<g>
			<g>
				<g>
					<g>
						<polygon class="st2" points="252.3,409.7 259.9,414.1 257.4,415.5 249.9,411.1 						"/>
					</g>
					<g>
						<polygon class="st2" points="257.4,409.7 259.9,411.1 252.3,415.5 249.9,414.1 						"/>
					</g>
				</g>
			</g>
		</g>
		<g>
			<g>
				<g>
					<g>
						<polygon class="st2" points="269.1,409.8 276.7,414.1 274.2,415.5 266.6,411.2 						"/>
					</g>
					<g>
						<polygon class="st2" points="274.2,409.8 276.7,411.2 269.1,415.5 266.6,414.1 						"/>
					</g>
				</g>
			</g>
		</g>
	</g>
	<g>
		<g>
			<defs>
				<polygon id="SVGID_1_" points="104.4,461 112.3,456.5 104.4,451.9 96.6,456.5 				"/>
			</defs>
			<clipPath id="SVGID_2_">
				<use xlink:href="#SVGID_1_"  style="overflow:visible;"/>
			</clipPath>
			<g transform="matrix(1 0 0 1 -1.525879e-05 0)" style="clip-path:url(#SVGID_2_);">
				
					<use xlink:href="#circle"  width="9.6" height="9.6" x="-4.8" y="-4.8" transform="matrix(0.8229 -0.4744 -0.8229 -0.4744 104.4268 456.4702)" style="overflow:visible;"/>
			</g>
		</g>
		<g>
			<defs>
				<polygon id="SVGID_3_" points="152.3,437.4 160.2,432.8 152.3,428.3 144.5,432.8 				"/>
			</defs>
			<clipPath id="SVGID_4_">
				<use xlink:href="#SVGID_3_"  style="overflow:visible;"/>
			</clipPath>
			<g transform="matrix(1 0 0 1 1.525879e-05 3.051758e-05)" style="clip-path:url(#SVGID_4_);">
				
					<use xlink:href="#circle"  width="9.6" height="9.6" x="-4.8" y="-4.8" transform="matrix(0.8229 -0.4744 -0.8229 -0.4744 152.3441 432.8246)" style="overflow:visible;"/>
			</g>
		</g>
		<g>
			<defs>
				<polygon id="SVGID_5_" points="224.7,431.5 232.6,427 224.7,422.4 216.8,427 				"/>
			</defs>
			<clipPath id="SVGID_6_">
				<use xlink:href="#SVGID_5_"  style="overflow:visible;"/>
			</clipPath>
			<g transform="matrix(1 0 0 1 0 0)" style="clip-path:url(#SVGID_6_);">
				
					<use xlink:href="#circle"  width="9.6" height="9.6" x="-4.8" y="-4.8" transform="matrix(0.8229 -0.4744 -0.8229 -0.4744 224.7077 426.9528)" style="overflow:visible;"/>
			</g>
		</g>
		<g>
			<defs>
				<polygon id="SVGID_7_" points="319.5,360 327.4,355.5 319.5,351 311.6,355.5 				"/>
			</defs>
			<clipPath id="SVGID_8_">
				<use xlink:href="#SVGID_7_"  style="overflow:visible;"/>
			</clipPath>
			<g transform="matrix(1 0 0 1 0 0)" style="clip-path:url(#SVGID_8_);">
				
					<use xlink:href="#circle"  width="9.6" height="9.6" x="-4.8" y="-4.8" transform="matrix(0.8229 -0.4744 -0.8229 -0.4744 319.4897 355.5114)" style="overflow:visible;"/>
			</g>
		</g>
		<g>
			<defs>
				<polygon id="SVGID_9_" points="358.2,318.5 366.1,313.9 358.2,309.4 350.4,313.9 				"/>
			</defs>
			<clipPath id="SVGID_10_">
				<use xlink:href="#SVGID_9_"  style="overflow:visible;"/>
			</clipPath>
			<g transform="matrix(1 0 0 1 0 -3.051758e-05)" style="clip-path:url(#SVGID_10_);">
				
					<use xlink:href="#circle"  width="9.6" height="9.6" x="-4.8" y="-4.8" transform="matrix(0.8229 -0.4744 -0.8229 -0.4744 358.219 313.9161)" style="overflow:visible;"/>
			</g>
		</g>
		<g>
			<defs>
				<polygon id="SVGID_11_" points="436.7,303.4 444.6,298.8 436.7,294.3 428.9,298.8 				"/>
			</defs>
			<clipPath id="SVGID_12_">
				<use xlink:href="#SVGID_11_"  style="overflow:visible;"/>
			</clipPath>
			<g transform="matrix(1 0 0 1 3.051758e-05 0)" style="clip-path:url(#SVGID_12_);">
				
					<use xlink:href="#circle"  width="9.6" height="9.6" x="-4.8" y="-4.8" transform="matrix(0.8229 -0.4744 -0.8229 -0.4744 436.7204 298.8332)" style="overflow:visible;"/>
			</g>
		</g>
		<g>
			<defs>
				<polygon id="SVGID_13_" points="318.6,382.2 326.5,377.7 318.6,373.1 310.7,377.7 				"/>
			</defs>
			<clipPath id="SVGID_14_">
				<use xlink:href="#SVGID_13_"  style="overflow:visible;"/>
			</clipPath>
			<g transform="matrix(1 0 0 1 -3.051758e-05 0)" style="clip-path:url(#SVGID_14_);">
				
					<use xlink:href="#circle"  width="9.6" height="9.6" x="-4.8" y="-4.8" transform="matrix(0.8229 -0.4744 -0.8229 -0.4744 318.6055 377.6526)" style="overflow:visible;"/>
			</g>
		</g>
	</g>
	<g>
		<g>
			<g>
				<ellipse class="st0" cx="395.4" cy="318.2" rx="5.6" ry="3.2"/>
			</g>
		</g>
		<g>
			<g>
				<ellipse class="st0" cx="404.5" cy="323.2" rx="5.6" ry="3.2"/>
			</g>
		</g>
		<g>
			<g>
				<ellipse class="st0" cx="385.1" cy="328.9" rx="5.6" ry="3.2"/>
			</g>
		</g>
		<g>
			<g>
				<ellipse class="st0" cx="355.7" cy="352.8" rx="5.6" ry="3.2"/>
			</g>
		</g>
		<g>
			<g>
				<ellipse class="st0" cx="341.2" cy="356.1" rx="5.6" ry="3.2"/>
			</g>
		</g>
		<g>
			<g>
				<ellipse class="st0" cx="329.4" cy="361" rx="5.6" ry="3.2"/>
			</g>
		</g>
		<g>
			<g>
				<ellipse class="st0" cx="323" cy="377" rx="5.6" ry="3.2"/>
			</g>
		</g>
		<g>
			<g>
				<ellipse class="st0" cx="334.1" cy="382.7" rx="5.6" ry="3.2"/>
			</g>
		</g>
	</g>
	<g>
		<g>
			<defs>
				<polygon id="SVGID_15_" points="470,266.7 462.2,271.2 470,275.7 477.9,271.2 				"/>
			</defs>
			<clipPath id="SVGID_16_">
				<use xlink:href="#SVGID_15_"  style="overflow:visible;"/>
			</clipPath>
			<g transform="matrix(1 0 0 1 0 0)" style="clip-path:url(#SVGID_16_);">
				
					<use xlink:href="#circle"  width="9.6" height="9.6" x="-4.8" y="-4.8" transform="matrix(-0.8229 0.4744 0.8229 0.4744 470.0251 271.1972)" style="overflow:visible;"/>
			</g>
		</g>
		<g>
			<defs>
				<polygon id="SVGID_17_" points="422.1,290.3 414.2,294.8 422.1,299.4 430,294.8 				"/>
			</defs>
			<clipPath id="SVGID_18_">
				<use xlink:href="#SVGID_17_"  style="overflow:visible;"/>
			</clipPath>
			<g transform="matrix(1 0 0 1 0 0)" style="clip-path:url(#SVGID_18_);">
				
					<use xlink:href="#circle"  width="9.6" height="9.6" x="-4.8" y="-4.8" transform="matrix(-0.8229 0.4744 0.8229 0.4744 422.1077 294.8427)" style="overflow:visible;"/>
			</g>
		</g>
		<g>
			<defs>
				<polygon id="SVGID_19_" points="349.7,296.2 341.9,300.7 349.7,305.2 357.6,300.7 				"/>
			</defs>
			<clipPath id="SVGID_20_">
				<use xlink:href="#SVGID_19_"  style="overflow:visible;"/>
			</clipPath>
			<g transform="matrix(1 0 0 1 0 0)" style="clip-path:url(#SVGID_20_);">
				
					<use xlink:href="#circle"  width="9.6" height="9.6" x="-4.8" y="-4.8" transform="matrix(-0.8229 0.4744 0.8229 0.4744 349.7441 300.7146)" style="overflow:visible;"/>
			</g>
		</g>
		<g>
			<defs>
				<polygon id="SVGID_21_" points="255,367.6 247.1,372.2 255,376.7 262.8,372.2 				"/>
			</defs>
			<clipPath id="SVGID_22_">
				<use xlink:href="#SVGID_21_"  style="overflow:visible;"/>
			</clipPath>
			<g transform="matrix(1 0 0 1 0 0)" style="clip-path:url(#SVGID_22_);">
				
					<use xlink:href="#circle"  width="9.6" height="9.6" x="-4.8" y="-4.8" transform="matrix(-0.8229 0.4744 0.8229 0.4744 254.9621 372.1559)" style="overflow:visible;"/>
			</g>
		</g>
		<g>
			<defs>
				<polygon id="SVGID_23_" points="216.2,409.2 208.4,413.8 216.2,418.3 224.1,413.8 				"/>
			</defs>
			<clipPath id="SVGID_24_">
				<use xlink:href="#SVGID_23_"  style="overflow:visible;"/>
			</clipPath>
			<g transform="matrix(1 0 0 1 0 -3.051758e-05)" style="clip-path:url(#SVGID_24_);">
				
					<use xlink:href="#circle"  width="9.6" height="9.6" x="-4.8" y="-4.8" transform="matrix(-0.8229 0.4744 0.8229 0.4744 216.2328 413.7513)" style="overflow:visible;"/>
			</g>
		</g>
		<g>
			<defs>
				<polygon id="SVGID_25_" points="137.7,424.3 129.9,428.8 137.7,433.4 145.6,428.8 				"/>
			</defs>
			<clipPath id="SVGID_26_">
				<use xlink:href="#SVGID_25_"  style="overflow:visible;"/>
			</clipPath>
			<g transform="matrix(1 0 0 1 -1.525879e-05 0)" style="clip-path:url(#SVGID_26_);">
				
					<use xlink:href="#circle"  width="9.6" height="9.6" x="-4.8" y="-4.8" transform="matrix(-0.8229 0.4744 0.8229 0.4744 137.7314 428.8342)" style="overflow:visible;"/>
			</g>
		</g>
		<g>
			<defs>
				<polygon id="SVGID_27_" points="255.8,345.5 248,350 255.8,354.5 263.7,350 				"/>
			</defs>
			<clipPath id="SVGID_28_">
				<use xlink:href="#SVGID_27_"  style="overflow:visible;"/>
			</clipPath>
			<g transform="matrix(1 0 0 1 1.525879e-05 0)" style="clip-path:url(#SVGID_28_);">
				
					<use xlink:href="#circle"  width="9.6" height="9.6" x="-4.8" y="-4.8" transform="matrix(-0.8229 0.4744 0.8229 0.4744 255.8463 350.0147)" style="overflow:visible;"/>
			</g>
		</g>
	</g>
	<g class="st3">
		<path d="M191.8,421.4c3.9,2.2,2.9,4.8-1.4,7.3l-5.8,3.4l9.3,5.3l-2.7,1.5l-20.6-11.9l8.5-4.9C183.3,419.7,187.9,419.1,191.8,421.4
			z M189,423c-2.7-1.6-5.4-1.2-8.2,0.4l-5.6,3.2l7.4,4.3l5.6-3.2C191,426.1,191.7,424.5,189,423z"/>
		<path d="M207.9,411.7l15.3,8.8l-2.6,1.5l-3.3-1.9c1.4,1.9,0.8,3.5-1.7,5c-3.5,2-7,2.2-10.8,0l-10.2-5.9l2.6-1.5l9.8,5.6
			c2.4,1.4,5,1.7,7.6,0.2c2.7-1.6,2.2-3.6-0.5-5.2l-9-5.2L207.9,411.7z"/>
		<path d="M234.7,404.9c4.8,2.8,5.3,6.1,1.4,8.4c-2.6,1.5-5.5,1.8-8.7,0.9l3.3,1.9l-2.6,1.5l-20.6-11.9l2.6-1.5l8.4,4.8
			c-1.4-1.8-0.9-3.5,1.6-5C224,401.8,229.9,402.1,234.7,404.9z M231.8,406.5c-3.9-2.2-8-2.7-10.8-1.1c-2.7,1.5-1.9,4.1,1.8,6.3
			c3.7,2.1,8.1,2.6,10.8,1C236.4,411.2,235.7,408.7,231.8,406.5z"/>
		<path d="M225.9,395.2l2.6-1.5l20.6,11.9l-2.6,1.5L225.9,395.2z"/>
		<path d="M233.5,390.8l3.1-1.8l2.6,1.5l-3.1,1.8L233.5,390.8z M239,393.7l2.6-1.5l15.3,8.8l-2.6,1.5L239,393.7z"/>
		<path d="M270.7,388.2c2.3,2.2,1.4,4.4-1.8,6.2c-4.5,2.6-10.5,2.6-15.5-0.3s-5.1-6.3-0.5-8.9c2.8-1.6,6.5-2.1,9.7-1.2l-1,2.1
			c-3-1-5.3-1-7.3,0.2c-2.6,1.5-2.1,3.8,2,6.2c4.1,2.4,8.1,2.6,11.2,0.8c2.1-1.2,2.2-2.8-0.3-4.6L270.7,388.2z"/>
	</g>
</g>
<g>
	<g>
		<polygon class="st1" points="4.7,237.7 201.1,124.4 397.6,237.7 201.1,350.9 		"/>
		<path d="M201.1,125l195.5,112.7L201.2,350.4L5.7,237.7L201.1,125 M201.1,123.8L3.7,237.7l197.5,113.9l197.5-113.9L201.1,123.8
			L201.1,123.8z"/>
	</g>
	<g class="st3">
		<path d="M214.1,321.6c3.6,2.1,3.2,5-1.5,7.8c-4.7,2.7-9.9,3-13.8,1l0.9-2.2c3.7,2,7.8,2,11.2,0c3.1-1.8,3.4-3.5,1-4.8
			c-2.2-1.3-4.6-1-9.3,0.6c-6,2-9.3,2.2-12.7,0.3c-3.2-1.9-2.6-4.7,2.1-7.4c4.1-2.4,9.2-2.7,12.8-1.1l-0.9,2.1
			c-3.2-1.6-7-1.6-10.2,0.3c-2.9,1.6-3.4,3.3-1.6,4.4c2.2,1.2,4,1,8.5-0.5C206.5,320.2,210.2,319.4,214.1,321.6z"/>
		<path d="M233.2,313.1c1.4,2.1,0.7,4.1-2.7,6c-4.6,2.6-10.6,2.6-15.5-0.3c-4.9-2.8-5.2-6.3-0.9-8.7c4.2-2.4,9.8-2,14.8,0.8l0,0
			l0.1,0l-11,6.4c3.9,2.2,8,2.5,11.1,0.7c2.1-1.2,2.3-2.7,0.5-4.3L233.2,313.1z M216.6,316.4l8.1-4.7c-3.7-1.9-6.4-2.1-8.8-0.7
			C213.3,312.5,213.8,314.4,216.6,316.4z"/>
		<path d="M251.1,294.6l10.7,6.1l-2.6,1.5l-10.4-6c-2.4-1.4-4.7-1.5-6.6-0.4c-2.1,1.2-1.6,3.3,1.2,4.9l9.2,5.3l-2.6,1.5l-10.4-6
			c-2.3-1.3-4.8-1.5-6.6-0.4c-2.1,1.2-1.6,3.3,1.1,4.9l9.2,5.3l-2.6,1.5l-15.3-8.8l2.6-1.5l2.9,1.7c-1.4-1.8-1-3.3,1.1-4.5
			c2.3-1.3,5.2-1.7,8-0.7c-1.5-1.9-1-3.4,1.2-4.7C244,292.8,247.7,292.6,251.1,294.6z"/>
		<path d="M246,286.1l3.1-1.8l2.6,1.5l-3.1,1.8L246,286.1z M251.5,289l2.6-1.5l15.3,8.8l-2.6,1.5L251.5,289z"/>
		<path d="M265.5,288.1l9.2-5.3l2,1.1l-9.2,5.3L265.5,288.1z"/>
		<path d="M295.4,272.4c4.8,2.8,5.4,6.1,1.4,8.4c-2.6,1.5-5.6,1.8-8.8,1l8,4.6l-2.6,1.5l-19.9-11.5l2.6-1.5l3.1,1.8
			c-1.4-1.8-0.9-3.6,1.7-5.1C284.7,269.3,290.5,269.7,295.4,272.4z M292.5,274.1c-3.9-2.2-8-2.7-10.8-1.1c-2.7,1.5-2,4.1,1.8,6.3
			c3.7,2.1,8.2,2.5,10.8,1C297.1,278.7,296.4,276.3,292.5,274.1z"/>
		<path d="M304.8,258.3l15.3,8.8l-2.6,1.5l-3.3-1.9c1.4,1.9,0.8,3.5-1.7,5c-3.5,2-7,2.2-10.8,0l-10.2-5.9l2.6-1.5l9.8,5.7
			c2.4,1.4,5,1.7,7.6,0.2c2.7-1.6,2.2-3.6-0.5-5.2l-9-5.2L304.8,258.3z"/>
		<path d="M331.6,251.6c4.8,2.8,5.3,6.1,1.4,8.4c-2.6,1.5-5.5,1.8-8.7,0.9l3.3,1.9l-2.6,1.5l-20.6-11.9l2.6-1.5l8.4,4.8
			c-1.4-1.8-0.9-3.5,1.6-5C320.9,248.5,326.8,248.8,331.6,251.6z M328.7,253.2c-3.9-2.2-8-2.7-10.8-1.1c-2.7,1.5-1.9,4.1,1.8,6.3
			c3.7,2.1,8.1,2.6,10.8,1C333.3,257.8,332.6,255.4,328.7,253.2z"/>
		<path d="M322.8,241.8l2.6-1.5l20.6,11.9l-2.6,1.5L322.8,241.8z"/>
		<path d="M330.4,237.5l3.1-1.8l2.6,1.5l-3.1,1.8L330.4,237.5z M335.9,240.4l2.6-1.5l15.3,8.8l-2.6,1.5L335.9,240.4z"/>
		<path d="M367.6,234.8c2.3,2.2,1.4,4.4-1.8,6.2c-4.5,2.6-10.5,2.6-15.5-0.3c-4.9-2.9-5.1-6.3-0.5-8.9c2.8-1.6,6.5-2.1,9.7-1.2
			l-1,2.1c-2.9-1-5.3-1-7.3,0.2c-2.6,1.5-2.1,3.8,2,6.2c4.1,2.4,8.1,2.6,11.2,0.8c2.1-1.2,2.2-2.8-0.3-4.6L367.6,234.8z"/>
	</g>
	<g>
		<g>
			<ellipse class="st0" cx="70" cy="244.6" rx="5.6" ry="3.2"/>
		</g>
	</g>
	<g>
		<g>
			<ellipse class="st0" cx="75.1" cy="238.6" rx="5.6" ry="3.2"/>
		</g>
	</g>
	<g>
		<g>
			<ellipse class="st0" cx="109.4" cy="230.7" rx="5.6" ry="3.2"/>
		</g>
	</g>
	<g>
		<g>
			<ellipse class="st0" cx="168.1" cy="292.2" rx="5.6" ry="3.2"/>
		</g>
	</g>
	<g>
		<g>
			<ellipse class="st0" cx="170.2" cy="305.5" rx="5.6" ry="3.2"/>
		</g>
	</g>
	<g>
		<g>
			<ellipse class="st0" cx="179.9" cy="238.3" rx="5.6" ry="3.2"/>
		</g>
	</g>
	<g>
		<g>
			<ellipse class="st0" cx="183.4" cy="261.2" rx="5.6" ry="3.2"/>
		</g>
	</g>
	<g>
		<g>
			<ellipse class="st0" cx="172.2" cy="270.8" rx="5.6" ry="3.2"/>
		</g>
	</g>
	<g>
		<g>
			<ellipse class="st0" cx="148.5" cy="263.1" rx="5.6" ry="3.2"/>
		</g>
	</g>
	<g>
		<g>
			<ellipse class="st0" cx="140.4" cy="241.3" rx="5.6" ry="3.2"/>
		</g>
	</g>
	<g>
		<g>
			<ellipse class="st0" cx="132.8" cy="232.2" rx="5.6" ry="3.2"/>
		</g>
	</g>
	<g>
		<g>
			<ellipse class="st0" cx="92.8" cy="263.4" rx="5.6" ry="3.2"/>
		</g>
	</g>
	<g>
		<g>
			<ellipse class="st0" cx="94.8" cy="256.3" rx="5.6" ry="3.2"/>
		</g>
	</g>
	<g>
		<g>
			<ellipse class="st0" cx="117.9" cy="203" rx="5.6" ry="3.2"/>
		</g>
	</g>
	<g>
		<g>
			<ellipse class="st0" cx="117.4" cy="276.2" rx="5.6" ry="3.2"/>
		</g>
	</g>
	<g>
		<g>
			<ellipse class="st0" cx="130.6" cy="283.7" rx="5.6" ry="3.2"/>
		</g>
	</g>
	<g>
		<g>
			<ellipse class="st0" cx="147.6" cy="292.2" rx="5.6" ry="3.2"/>
		</g>
	</g>
	<g>
		<g>
			<ellipse class="st0" cx="204.4" cy="235.3" rx="5.6" ry="3.2"/>
		</g>
	</g>
	<g>
		<g>
			<ellipse class="st0" cx="196.9" cy="225.7" rx="5.6" ry="3.2"/>
		</g>
	</g>
	<g>
		<g>
			<ellipse class="st0" cx="191.8" cy="307.5" rx="5.6" ry="3.2"/>
		</g>
	</g>
	<g>
		<g>
			<ellipse class="st0" cx="226.6" cy="222.9" rx="5.6" ry="3.2"/>
		</g>
	</g>
	<g>
		<g>
			<ellipse class="st0" cx="232.7" cy="235.6" rx="5.6" ry="3.2"/>
		</g>
	</g>
	<g>
		<g>
			<ellipse class="st0" cx="237" cy="225.1" rx="5.6" ry="3.2"/>
		</g>
	</g>
	<g>
		<g>
			<ellipse class="st0" cx="204.1" cy="297.5" rx="5.6" ry="3.2"/>
		</g>
	</g>
	<g>
		<g>
			<g>
				<g>
					<polygon class="st2" points="213.3,294.4 205.7,290 208.1,288.6 215.7,292.9 					"/>
				</g>
				<g>
					<polygon class="st2" points="208.1,294.4 205.7,292.9 213.3,288.6 215.7,290 					"/>
				</g>
			</g>
		</g>
	</g>
	<g>
		<g>
			<g>
				<g>
					<polygon class="st2" points="220.8,299.9 213.2,295.5 215.7,294.1 223.3,298.5 					"/>
				</g>
				<g>
					<polygon class="st2" points="215.7,299.9 213.2,298.5 220.8,294.1 223.3,295.5 					"/>
				</g>
			</g>
		</g>
	</g>
	<g>
		<g>
			<g>
				<g>
					<polygon class="st2" points="203.6,303.8 196,299.4 198.4,298 206,302.4 					"/>
				</g>
				<g>
					<polygon class="st2" points="198.4,303.8 196,302.4 203.6,298 206,299.4 					"/>
				</g>
			</g>
		</g>
	</g>
	<g>
		<g>
			<g>
				<g>
					<polygon class="st2" points="102.2,248.8 94.6,244.4 97.1,243 104.7,247.4 					"/>
				</g>
				<g>
					<polygon class="st2" points="97.1,248.8 94.6,247.4 102.2,243 104.7,244.4 					"/>
				</g>
			</g>
		</g>
	</g>
	<g>
		<g>
			<g>
				<g>
					<polygon class="st2" points="83.1,262.1 75.5,257.7 77.9,256.3 85.5,260.6 					"/>
				</g>
				<g>
					<polygon class="st2" points="77.9,262.1 75.5,260.6 83.1,256.3 85.5,257.7 					"/>
				</g>
			</g>
		</g>
	</g>
	<g>
		<g>
			<g>
				<g>
					<polygon class="st2" points="45.2,240.1 37.6,235.8 40.1,234.4 47.7,238.7 					"/>
				</g>
				<g>
					<polygon class="st2" points="40.1,240.1 37.6,238.7 45.2,234.4 47.7,235.8 					"/>
				</g>
			</g>
		</g>
	</g>
	<g>
		<g>
			<g>
				<g>
					<polygon class="st2" points="111.7,206.4 104.1,202 106.6,200.6 114.2,204.9 					"/>
				</g>
				<g>
					<polygon class="st2" points="106.6,206.4 104.1,204.9 111.7,200.6 114.2,202 					"/>
				</g>
			</g>
		</g>
	</g>
	<g>
		<g>
			<g>
				<g>
					<polygon class="st2" points="163.7,289.2 156.1,284.9 158.6,283.5 166.1,287.8 					"/>
				</g>
				<g>
					<polygon class="st2" points="158.6,289.2 156.1,287.8 163.7,283.5 166.1,284.9 					"/>
				</g>
			</g>
		</g>
	</g>
	<g>
		<g>
			<g>
				<g>
					<polygon class="st2" points="174.7,227.6 167.1,223.2 169.6,221.8 177.1,226.2 					"/>
				</g>
				<g>
					<polygon class="st2" points="169.6,227.6 167.1,226.2 174.7,221.8 177.1,223.2 					"/>
				</g>
			</g>
		</g>
	</g>
	<g>
		<g>
			<g>
				<g>
					<polygon class="st2" points="124.4,267.6 116.8,263.3 119.3,261.9 126.9,266.2 					"/>
				</g>
				<g>
					<polygon class="st2" points="119.3,267.6 116.8,266.2 124.4,261.9 126.9,263.3 					"/>
				</g>
			</g>
		</g>
	</g>
	<g>
		<g>
			<g>
				<g>
					<polygon class="st2" points="136.2,267.7 128.6,263.3 131.1,261.9 138.7,266.3 					"/>
				</g>
				<g>
					<polygon class="st2" points="131.1,267.7 128.6,266.3 136.2,261.9 138.7,263.3 					"/>
				</g>
			</g>
		</g>
	</g>
	<g>
		<g>
			<g>
				<g>
					<polygon class="st2" points="118,236.2 110.4,231.9 112.9,230.4 120.5,234.8 					"/>
				</g>
				<g>
					<polygon class="st2" points="112.9,236.2 110.4,234.8 118,230.4 120.5,231.9 					"/>
				</g>
			</g>
		</g>
	</g>
	<g>
		<g>
			<g>
				<g>
					<polygon class="st2" points="112.5,188.9 104.9,184.5 107.4,183.1 114.9,187.5 					"/>
				</g>
				<g>
					<polygon class="st2" points="107.4,188.9 104.9,187.5 112.5,183.1 114.9,184.5 					"/>
				</g>
			</g>
		</g>
	</g>
	<g>
		<g>
			<g>
				<g>
					<polygon class="st2" points="127.2,290.2 119.6,285.8 122,284.4 129.6,288.8 					"/>
				</g>
				<g>
					<polygon class="st2" points="122,290.2 119.6,288.8 127.2,284.4 129.6,285.8 					"/>
				</g>
			</g>
		</g>
	</g>
	<g>
		<g>
			<g>
				<g>
					<polygon class="st2" points="190.7,246.3 183.1,241.9 185.6,240.5 193.2,244.9 					"/>
				</g>
				<g>
					<polygon class="st2" points="185.6,246.3 183.1,244.9 190.7,240.5 193.2,241.9 					"/>
				</g>
			</g>
		</g>
	</g>
	<g>
		<g>
			<g>
				<g>
					<polygon class="st2" points="169.9,264.6 162.3,260.3 164.7,258.9 172.3,263.2 					"/>
				</g>
				<g>
					<polygon class="st2" points="164.7,264.6 162.3,263.2 169.9,258.9 172.3,260.3 					"/>
				</g>
			</g>
		</g>
	</g>
	<g>
		<g>
			<ellipse class="st0" cx="164" cy="246.6" rx="5.6" ry="3.2"/>
		</g>
	</g>
	<g>
		<g>
			<ellipse class="st0" cx="169.1" cy="240.6" rx="5.6" ry="3.2"/>
		</g>
	</g>
	<g>
		<g>
			<ellipse class="st0" cx="203.4" cy="232.7" rx="5.6" ry="3.2"/>
		</g>
	</g>
	<g>
		<g>
			<ellipse class="st0" cx="277" cy="205.2" rx="5.6" ry="3.2"/>
		</g>
	</g>
	<g>
		<g>
			<ellipse class="st0" cx="279.2" cy="218.5" rx="5.6" ry="3.2"/>
		</g>
	</g>
	<g>
		<g>
			<ellipse class="st0" cx="273.9" cy="240.3" rx="5.6" ry="3.2"/>
		</g>
	</g>
	<g>
		<g>
			<ellipse class="st0" cx="277.4" cy="263.2" rx="5.6" ry="3.2"/>
		</g>
	</g>
	<g>
		<g>
			<ellipse class="st0" cx="266.2" cy="272.8" rx="5.6" ry="3.2"/>
		</g>
	</g>
	<g>
		<g>
			<ellipse class="st0" cx="242.5" cy="265.1" rx="5.6" ry="3.2"/>
		</g>
	</g>
	<g>
		<g>
			<ellipse class="st0" cx="234.4" cy="243.3" rx="5.6" ry="3.2"/>
		</g>
	</g>
	<g>
		<g>
			<ellipse class="st0" cx="226.8" cy="234.2" rx="5.6" ry="3.2"/>
		</g>
	</g>
	<g>
		<g>
			<ellipse class="st0" cx="186.8" cy="265.4" rx="5.6" ry="3.2"/>
		</g>
	</g>
	<g>
		<g>
			<ellipse class="st0" cx="188.8" cy="258.3" rx="5.6" ry="3.2"/>
		</g>
	</g>
	<g>
		<g>
			<ellipse class="st0" cx="212.9" cy="337" rx="5.6" ry="3.2"/>
		</g>
	</g>
	<g>
		<g>
			<ellipse class="st0" cx="327.4" cy="270.2" rx="5.6" ry="3.2"/>
		</g>
	</g>
	<g>
		<g>
			<ellipse class="st0" cx="301.6" cy="286.7" rx="5.6" ry="3.2"/>
		</g>
	</g>
	<g>
		<g>
			<ellipse class="st0" cx="256.6" cy="205.2" rx="5.6" ry="3.2"/>
		</g>
	</g>
	<g>
		<g>
			<ellipse class="st0" cx="298.4" cy="237.3" rx="5.6" ry="3.2"/>
		</g>
	</g>
	<g>
		<g>
			<ellipse class="st0" cx="290.9" cy="227.7" rx="5.6" ry="3.2"/>
		</g>
	</g>
	<g>
		<g>
			<ellipse class="st0" cx="300.8" cy="220.5" rx="5.6" ry="3.2"/>
		</g>
	</g>
	<g>
		<g>
			<ellipse class="st0" cx="320.6" cy="224.9" rx="5.6" ry="3.2"/>
		</g>
	</g>
	<g>
		<g>
			<ellipse class="st0" cx="326.7" cy="237.6" rx="5.6" ry="3.2"/>
		</g>
	</g>
	<g>
		<g>
			<ellipse class="st0" cx="331" cy="227.1" rx="5.6" ry="3.2"/>
		</g>
	</g>
	<g>
		<g>
			<ellipse class="st0" cx="313.1" cy="210.5" rx="5.6" ry="3.2"/>
		</g>
	</g>
	<g>
		<g>
			<g>
				<g>
					<polygon class="st2" points="322.3,207.4 314.7,203 317.1,201.6 324.7,205.9 					"/>
				</g>
				<g>
					<polygon class="st2" points="317.1,207.4 314.7,205.9 322.3,201.6 324.7,203 					"/>
				</g>
			</g>
		</g>
	</g>
	<g>
		<g>
			<g>
				<g>
					<polygon class="st2" points="329.8,212.9 322.2,208.5 324.7,207.1 332.3,211.5 					"/>
				</g>
				<g>
					<polygon class="st2" points="324.7,212.9 322.2,211.5 329.8,207.1 332.3,208.5 					"/>
				</g>
			</g>
		</g>
	</g>
	<g>
		<g>
			<g>
				<g>
					<polygon class="st2" points="312.6,216.8 305,212.4 307.4,211 315,215.4 					"/>
				</g>
				<g>
					<polygon class="st2" points="307.4,216.8 305,215.4 312.6,211 315,212.4 					"/>
				</g>
			</g>
		</g>
	</g>
	<g>
		<g>
			<g>
				<g>
					<polygon class="st2" points="196.2,250.8 188.6,246.4 191.1,245 198.7,249.4 					"/>
				</g>
				<g>
					<polygon class="st2" points="191.1,250.8 188.6,249.4 196.2,245 198.7,246.4 					"/>
				</g>
			</g>
		</g>
	</g>
	<g>
		<g>
			<g>
				<g>
					<polygon class="st2" points="177.1,264.1 169.5,259.7 171.9,258.3 179.5,262.6 					"/>
				</g>
				<g>
					<polygon class="st2" points="171.9,264.1 169.5,262.6 177.1,258.3 179.5,259.7 					"/>
				</g>
			</g>
		</g>
	</g>
	<g>
		<g>
			<g>
				<g>
					<polygon class="st2" points="139.2,242.1 131.6,237.8 134.1,236.4 141.7,240.7 					"/>
				</g>
				<g>
					<polygon class="st2" points="134.1,242.1 131.6,240.7 139.2,236.4 141.7,237.8 					"/>
				</g>
			</g>
		</g>
	</g>
	<g>
		<g>
			<g>
				<g>
					<polygon class="st2" points="206.7,340.4 199.1,336 201.6,334.6 209.2,339 					"/>
				</g>
				<g>
					<polygon class="st2" points="201.6,340.4 199.1,339 206.7,334.6 209.2,336 					"/>
				</g>
			</g>
		</g>
	</g>
	<g>
		<g>
			<g>
				<g>
					<polygon class="st2" points="272.7,202.2 265.1,197.9 267.6,196.5 275.1,200.8 					"/>
				</g>
				<g>
					<polygon class="st2" points="267.6,202.2 265.1,200.8 272.7,196.5 275.1,197.9 					"/>
				</g>
			</g>
		</g>
	</g>
	<g>
		<g>
			<g>
				<g>
					<polygon class="st2" points="268.7,229.6 261.1,225.2 263.6,223.8 271.1,228.2 					"/>
				</g>
				<g>
					<polygon class="st2" points="263.6,229.6 261.1,228.2 268.7,223.8 271.1,225.2 					"/>
				</g>
			</g>
		</g>
	</g>
	<g>
		<g>
			<g>
				<g>
					<polygon class="st2" points="218.4,269.6 210.8,265.3 213.3,263.9 220.9,268.2 					"/>
				</g>
				<g>
					<polygon class="st2" points="213.3,269.6 210.8,268.2 218.4,263.9 220.9,265.3 					"/>
				</g>
			</g>
		</g>
	</g>
	<g>
		<g>
			<g>
				<g>
					<polygon class="st2" points="230.2,269.7 222.6,265.3 225.1,263.9 232.7,268.3 					"/>
				</g>
				<g>
					<polygon class="st2" points="225.1,269.7 222.6,268.3 230.2,263.9 232.7,265.3 					"/>
				</g>
			</g>
		</g>
	</g>
	<g>
		<g>
			<g>
				<g>
					<polygon class="st2" points="212,238.2 204.4,233.9 206.9,232.4 214.5,236.8 					"/>
				</g>
				<g>
					<polygon class="st2" points="206.9,238.2 204.4,236.8 212,232.4 214.5,233.9 					"/>
				</g>
			</g>
		</g>
	</g>
	<g>
		<g>
			<g>
				<g>
					<polygon class="st2" points="268.5,280.9 260.9,276.5 263.4,275.1 270.9,279.5 					"/>
				</g>
				<g>
					<polygon class="st2" points="263.4,280.9 260.9,279.5 268.5,275.1 270.9,276.5 					"/>
				</g>
			</g>
		</g>
	</g>
	<g>
		<g>
			<g>
				<g>
					<polygon class="st2" points="298.1,293.2 290.6,288.8 293,287.4 300.6,291.8 					"/>
				</g>
				<g>
					<polygon class="st2" points="293,293.2 290.6,291.8 298.1,287.4 300.6,288.8 					"/>
				</g>
			</g>
		</g>
	</g>
	<g>
		<g>
			<g>
				<g>
					<polygon class="st2" points="284.7,248.3 277.1,243.9 279.6,242.5 287.2,246.9 					"/>
				</g>
				<g>
					<polygon class="st2" points="279.6,248.3 277.1,246.9 284.7,242.5 287.2,243.9 					"/>
				</g>
			</g>
		</g>
	</g>
	<g>
		<g>
			<g>
				<g>
					<polygon class="st2" points="263.9,266.6 256.3,262.3 258.7,260.9 266.3,265.2 					"/>
				</g>
				<g>
					<polygon class="st2" points="258.7,266.6 256.3,265.2 263.9,260.9 266.3,262.3 					"/>
				</g>
			</g>
		</g>
	</g>
</g>
<g>
	<g>
		<polygon class="st1" points="6.9,123.5 203.4,10.2 399.9,123.5 203.4,236.8 		"/>
		<path d="M203.4,10.8l195.5,112.7L203.4,236.2L7.9,123.5L203.4,10.8 M203.4,9.6L5.9,123.5l197.5,113.9l197.5-113.9L203.4,9.6
			L203.4,9.6z"/>
	</g>
	<g>
		<g>
			<ellipse class="st0" cx="170.4" cy="82.8" rx="5.6" ry="3.2"/>
		</g>
	</g>
	<g>
		<g>
			<ellipse class="st0" cx="186.2" cy="85.9" rx="5.6" ry="3.2"/>
		</g>
	</g>
	<g>
		<g>
			<ellipse class="st0" cx="141.8" cy="105.3" rx="5.6" ry="3.2"/>
		</g>
	</g>
	<g>
		<g>
			<ellipse class="st0" cx="155.9" cy="126.6" rx="5.6" ry="3.2"/>
		</g>
	</g>
	<g>
		<g>
			<ellipse class="st0" cx="154.4" cy="141.8" rx="5.6" ry="3.2"/>
		</g>
	</g>
	<g>
		<g>
			<ellipse class="st0" cx="180.4" cy="132.2" rx="5.6" ry="3.2"/>
		</g>
	</g>
	<g>
		<g>
			<ellipse class="st0" cx="256.2" cy="81.1" rx="5.6" ry="3.2"/>
		</g>
	</g>
	<g>
		<g>
			<ellipse class="st0" cx="284.4" cy="72.7" rx="5.6" ry="3.2"/>
		</g>
	</g>
	<g>
		<g>
			<ellipse class="st0" cx="305.7" cy="80.2" rx="5.6" ry="3.2"/>
		</g>
	</g>
	<g>
		<g>
			<ellipse class="st0" cx="294" cy="94.7" rx="5.6" ry="3.2"/>
		</g>
	</g>
	<g>
		<g>
			<ellipse class="st0" cx="264.6" cy="103.9" rx="5.6" ry="3.2"/>
		</g>
	</g>
	<g>
		<g>
			<ellipse class="st0" cx="231.1" cy="158.1" rx="5.6" ry="3.2"/>
		</g>
	</g>
	<g>
		<g>
			<ellipse class="st0" cx="171.1" cy="176.2" rx="5.6" ry="3.2"/>
		</g>
	</g>
	<g>
		<g>
			<ellipse class="st0" cx="116.5" cy="172.9" rx="5.6" ry="3.2"/>
		</g>
	</g>
	<g>
		<g>
			<ellipse class="st0" cx="97.5" cy="160.2" rx="5.6" ry="3.2"/>
		</g>
	</g>
	<g>
		<g>
			<ellipse class="st0" cx="52.7" cy="135.2" rx="5.6" ry="3.2"/>
		</g>
	</g>
	<g>
		<g>
			<ellipse class="st0" cx="80.1" cy="114" rx="5.6" ry="3.2"/>
		</g>
	</g>
	<g>
		<g>
			<ellipse class="st0" cx="118.8" cy="86.1" rx="5.6" ry="3.2"/>
		</g>
	</g>
	<g>
		<g>
			<ellipse class="st0" cx="185.1" cy="51.3" rx="5.6" ry="3.2"/>
		</g>
	</g>
	<g>
		<g>
			<ellipse class="st0" cx="204.1" cy="55.7" rx="5.6" ry="3.2"/>
		</g>
	</g>
	<g>
		<g>
			<ellipse class="st0" cx="225.9" cy="110.2" rx="5.6" ry="3.2"/>
		</g>
	</g>
	<g>
		<g>
			<ellipse class="st0" cx="203.4" cy="162.2" rx="5.6" ry="3.2"/>
		</g>
	</g>
	<g>
		<g>
			<ellipse class="st0" cx="163.6" cy="195.5" rx="5.6" ry="3.2"/>
		</g>
	</g>
	<g>
		<g>
			<ellipse class="st0" cx="189.9" cy="195.1" rx="5.6" ry="3.2"/>
		</g>
	</g>
	<g>
		<g>
			<ellipse class="st0" cx="270.7" cy="130.6" rx="5.6" ry="3.2"/>
		</g>
	</g>
	<g>
		<g>
			<ellipse class="st0" cx="337.8" cy="102.4" rx="5.6" ry="3.2"/>
		</g>
	</g>
	<g>
		<g>
			<ellipse class="st0" cx="282.8" cy="145.3" rx="5.6" ry="3.2"/>
		</g>
	</g>
	<g>
		<g>
			<ellipse class="st0" cx="293.2" cy="164.5" rx="5.6" ry="3.2"/>
		</g>
	</g>
	<g>
		<g>
			<ellipse class="st0" cx="168.2" cy="99.4" rx="5.6" ry="3.2"/>
		</g>
	</g>
	<g>
		<g>
			<ellipse class="st0" cx="206.4" cy="165.5" rx="5.6" ry="3.2"/>
		</g>
	</g>
	<g>
		<g>
			<ellipse class="st0" cx="219.8" cy="174.5" rx="5.6" ry="3.2"/>
		</g>
	</g>
	<g>
		<g>
			<ellipse class="st0" cx="202.1" cy="129.4" rx="5.6" ry="3.2"/>
		</g>
	</g>
	<g>
		<g>
			<ellipse class="st0" cx="227.1" cy="124.3" rx="5.6" ry="3.2"/>
		</g>
	</g>
	<g>
		<g>
			<ellipse class="st0" cx="236.8" cy="112.5" rx="5.6" ry="3.2"/>
		</g>
	</g>
	<g>
		<g>
			<ellipse class="st0" cx="248.3" cy="137.7" rx="5.6" ry="3.2"/>
		</g>
	</g>
	<g>
		<g>
			<ellipse class="st0" cx="58.8" cy="105.4" rx="5.6" ry="3.2"/>
		</g>
	</g>
	<g>
		<g>
			<ellipse class="st0" cx="72.8" cy="131.3" rx="5.6" ry="3.2"/>
		</g>
	</g>
	<g>
		<g>
			<ellipse class="st0" cx="93.3" cy="141" rx="5.6" ry="3.2"/>
		</g>
	</g>
	<g>
		<g>
			<ellipse class="st0" cx="95.2" cy="122.5" rx="5.6" ry="3.2"/>
		</g>
	</g>
	<g>
		<g>
			<ellipse class="st0" cx="80.9" cy="95.2" rx="5.6" ry="3.2"/>
		</g>
	</g>
	<g>
		<g>
			<ellipse class="st0" cx="302.5" cy="155.2" rx="5.6" ry="3.2"/>
		</g>
	</g>
	<g>
		<g>
			<ellipse class="st0" cx="273" cy="100" rx="5.6" ry="3.2"/>
		</g>
	</g>
	<g>
		<g>
			<ellipse class="st0" cx="231.9" cy="63.7" rx="5.6" ry="3.2"/>
		</g>
	</g>
	<g>
		<g>
			<ellipse class="st0" cx="209.5" cy="59.2" rx="5.6" ry="3.2"/>
		</g>
	</g>
	<g>
		<g>
			<ellipse class="st0" cx="160.2" cy="45.2" rx="5.6" ry="3.2"/>
		</g>
	</g>
	<g>
		<g>
			<ellipse class="st0" cx="164.6" cy="79.6" rx="5.6" ry="3.2"/>
		</g>
	</g>
	<g>
		<g>
			<ellipse class="st0" cx="172.2" cy="126.7" rx="5.6" ry="3.2"/>
		</g>
	</g>
	<g>
		<g>
			<ellipse class="st0" cx="194.4" cy="198.2" rx="5.6" ry="3.2"/>
		</g>
	</g>
	<g>
		<g>
			<ellipse class="st0" cx="211" cy="208.5" rx="5.6" ry="3.2"/>
		</g>
	</g>
	<g>
		<g>
			<ellipse class="st0" cx="265" cy="185.4" rx="5.6" ry="3.2"/>
		</g>
	</g>
	<g>
		<g>
			<ellipse class="st0" cx="285.9" cy="132.7" rx="5.6" ry="3.2"/>
		</g>
	</g>
	<g>
		<g>
			<ellipse class="st0" cx="281.3" cy="81" rx="5.6" ry="3.2"/>
		</g>
	</g>
	<g>
		<g>
			<ellipse class="st0" cx="299.6" cy="99.9" rx="5.6" ry="3.2"/>
		</g>
	</g>
	<g>
		<g>
			<ellipse class="st0" cx="104.1" cy="80.7" rx="5.6" ry="3.2"/>
		</g>
	</g>
	<g>
		<g>
			<ellipse class="st0" cx="131.6" cy="148" rx="5.6" ry="3.2"/>
		</g>
	</g>
	<g>
		<g>
			<ellipse class="st0" cx="123" cy="78.8" rx="5.6" ry="3.2"/>
		</g>
	</g>
	<g>
		<g>
			<ellipse class="st0" cx="144" cy="72.6" rx="5.6" ry="3.2"/>
		</g>
	</g>
	<g>
		<g>
			<ellipse class="st0" cx="216.6" cy="152.2" rx="5.6" ry="3.2"/>
		</g>
	</g>
	<g class="st3">
		<path d="M222.1,210.8l-3.1,1.8c-1.9-0.3-5.6-1.9-8.5-3.1c-2.1-0.8-3.8-0.7-6.2,0.7l-5.7,3.3l9.4,5.4l-2.7,1.6l-20.6-11.9l8.7-5
			c4.3-2.5,8.7-3.1,12.4-1c2.4,1.4,2.6,3.3,0.7,5.1c2.1-0.8,4-0.7,5.9,0.1C218,209.9,220.3,210.7,222.1,210.8z M203.1,204.2
			c-2.5-1.4-5.1-1-7.9,0.6l-5.8,3.4l7.3,4.2l5.8-3.3C205.2,207.4,205.7,205.7,203.1,204.2z"/>
		<path d="M234.9,199.2c1.4,2.1,0.7,4.1-2.7,6c-4.6,2.6-10.6,2.6-15.5-0.3c-4.9-2.8-5.2-6.3-0.9-8.7c4.2-2.4,9.8-2,14.8,0.8l0,0
			l0.1,0l-11,6.4c3.9,2.2,8,2.5,11.1,0.7c2.1-1.2,2.3-2.7,0.5-4.3L234.9,199.2z M218.3,202.5l8.1-4.7c-3.7-1.9-6.4-2.1-8.8-0.7
			C215,198.6,215.5,200.5,218.3,202.5z"/>
		<path d="M248.5,190.2c3,1.8,2.5,4.1-1.2,6.3c-2.9,1.6-6.9,2.2-9.6,1.2l0.8-1.9c2.5,1,5.2,0.8,7.4-0.4c2.2-1.3,2.5-2.4,0.9-3.3
			s-3.3-0.7-6.4,0.5c-4.4,1.7-7.3,1.9-10,0.4c-2.5-1.5-2.5-3.8,1.3-6c3-1.8,6.7-2.2,9.4-1.2l-1.2,1.8c-2.3-0.9-4.7-0.7-6.8,0.5
			c-1.9,1.1-2.4,2.3-0.8,3.2c1.5,0.9,3,0.6,6.2-0.6C243.2,189,245.9,188.8,248.5,190.2z"/>
		<path d="M236.6,178.7l3.1-1.8l2.6,1.5l-3.1,1.8L236.6,178.7z M242.1,181.6l2.6-1.5l15.3,8.8l-2.6,1.5L242.1,181.6z"/>
		<path d="M258.3,166.2l20.6,11.9l-2.6,1.5l-3.3-1.9c1.4,1.8,0.9,3.6-1.7,5c-3.9,2.3-9.8,2-14.6-0.8c-4.8-2.8-5.3-6.2-1.4-8.4
			c2.5-1.5,5.5-1.8,8.7-1l-8.4-4.8L258.3,166.2z M268.6,175c-3.7-2.2-8.2-2.6-10.8-1c-2.8,1.6-2,4,1.8,6.2c3.8,2.2,8,2.6,10.8,1
			C273,179.7,272.3,177.2,268.6,175z"/>
		<path d="M293.2,165.6c1.4,2.1,0.7,4.1-2.7,6c-4.6,2.6-10.6,2.6-15.5-0.3c-4.9-2.8-5.2-6.3-0.9-8.7c4.2-2.4,9.8-2,14.8,0.8l0,0
			l0.1,0l-11,6.4c3.9,2.2,8,2.5,11.1,0.7c2.1-1.2,2.3-2.7,0.5-4.3L293.2,165.6z M276.6,168.9l8.1-4.7c-3.7-1.9-6.4-2.1-8.8-0.7
			C273.3,165,273.8,166.9,276.6,168.9z"/>
		<path d="M303.5,152l10.3,5.9l-2.6,1.5l-10-5.8c-2.3-1.3-5-1.6-7.5-0.2c-2.6,1.5-2.1,3.6,0.5,5.2l9.2,5.3l-2.6,1.5l-15.3-8.8
			l2.6-1.5l3,1.7c-1.5-1.9-1-3.5,1.5-4.9C296,150,300,150,303.5,152z"/>
		<path d="M324.9,148l2.3,1.3c-0.3,0.8-1.2,1.7-2.6,2.6c-3,1.8-6.2,1.8-8.8,0.2l-9.7-5.6l-3.5,2l-1-1.2l2.9-1.7l-4-2.3l2.6-1.5
			l4,2.3l5.5-3.2l1,1.2l-4.9,2.8l9.1,5.2c1.8,1.1,3.5,1.1,5.2,0.1C324.1,149.8,324.7,148.9,324.9,148z"/>
		<path d="M310.9,135.8l3.1-1.8l2.6,1.5l-3.1,1.8L310.9,135.8z M316.4,138.7l2.6-1.5l15.3,8.8l-2.6,1.5L316.4,138.7z"/>
		<path d="M340.6,130.1l10.8,6.2l-2.6,1.5l-2.9-1.7c1.1,1.5,0.6,3.3-1.7,4.6c-3,1.8-6.9,2-9.5,0.5c-2.6-1.5-2.3-3.5,0.7-6.1l3.4-3
			l-0.6-0.3c-2.3-1.3-4.8-1.3-7.1,0.1c-2.5,1.4-2.4,3-0.5,4.4l-3.3,0.7c-2.1-1.6-1.4-4.2,2.2-6.2
			C333.3,128.5,337.4,128.3,340.6,130.1z M342.8,134.4l-2.9-1.6l-2.9,2.8c-1.6,1.5-1.7,2.8,0.1,3.8c2,1.1,4.1,1,6.1-0.1
			C345.4,137.9,345.3,135.8,342.8,134.4z"/>
		<path d="M335.4,121.7l2.6-1.5l20.6,11.9l-2.6,1.5L335.4,121.7z"/>
	</g>
</g>
</svg>
