<?xml version="1.0" encoding="utf-8"?>
<!-- Generator: Adobe Illustrator 25.0.0, SVG Export Plug-In . SVG Version: 6.00 Build 0)  -->
<svg version="1.1" xmlns="http://www.w3.org/2000/svg" xmlns:xlink="http://www.w3.org/1999/xlink" x="0px" y="0px"
	 viewBox="0 0 752.6 785" style="enable-background:new 0 0 752.6 785;" xml:space="preserve">
<style type="text/css">
	.st0{fill:none;stroke:#000000;stroke-width:2;stroke-linecap:round;stroke-miterlimit:10;stroke-dasharray:0,5.9636;}
	.st1{display:none;}
	.st2{display:inline;}
	.st3{fill:none;stroke:#000000;stroke-width:0.75;stroke-miterlimit:10;}
	.st4{fill:#FFFFFF;}
	.st5{display:none;fill:#FFFFFF;}
	.st6{fill:none;stroke:#FFFFFF;stroke-width:3;stroke-linecap:round;stroke-miterlimit:10;stroke-dasharray:0,5.9636;}
	.st7{fill:#231F20;}
	.st8{font-family:'GangsterGrotesk-Regular';}
	.st9{font-size:18px;}
	.st10{font-size:24px;}
	.st11{opacity:0.25;fill:#231F20;}
	.st12{font-size:17px;}
	
		.st13{opacity:0.25;fill:none;stroke:#000000;stroke-width:2;stroke-linecap:round;stroke-miterlimit:10;stroke-dasharray:0,5.9636;}
	.st14{font-size:20px;}
	.st15{fill:none;stroke:#000000;stroke-width:2;stroke-miterlimit:10;}
</style>
<g id="Layer_2">
</g>
<g id="Layer_1">
	<line class="st0" x1="195.3" y1="569.1" x2="648" y2="569.1"/>
	<path class="st0" d="M210,569.1c277.3,0,390.4-87.7,390.4-87.7"/>
	<path class="st0" d="M210,569.1c277.3,0,380.4,75.4,380.4,75.4"/>
	<g id="initial_center_of_mass" class="st1">
		<g class="st2">
			<line class="st3" x1="-410.7" y1="-3469.4" x2="-398.7" y2="-3481.4"/>
			<line class="st3" x1="-410.7" y1="-3481.4" x2="-398.7" y2="-3469.4"/>
		</g>
	</g>
	<g>
		<path class="st4" d="M397.4,555c-6.7-31.8-19.7-65.8-45.5-86.1C322,445.3,185.3,448.6,181.2,449c-13.7,1.5-27.7,3.4-41.3,6
			C20.2,478.2,17.2,587.8,110.6,653.9c44.2,31.3,97.5,25.9,148.2,26.7C337,681.8,417.4,650.1,397.4,555z"/>
		<path class="st5" d="M1135.9,643.7c-10.1-53.9-8.9-135.1-80.4-138c-66.2-2.7-138.3-55.3-198.4-12.1c-28,20.2-70.8,35.3-79.6,69.6
			c-25.4,98.1,95.5,165,196,145.1C1032.6,696.6,1151.5,727.2,1135.9,643.7z"/>
		<ellipse class="st5" cx="208.1" cy="571.1" rx="173.4" ry="129.2"/>
		<g>
			<line class="st6" x1="108.4" y1="615.3" x2="210" y2="569.1"/>
			<line class="st6" x1="102.7" y1="531.9" x2="210" y2="569.1"/>
			<line class="st6" x1="208.1" y1="487.4" x2="210" y2="569.1"/>
			<line class="st6" x1="306.8" y1="524.5" x2="210" y2="569.1"/>
			<line class="st6" x1="336.6" y1="617.5" x2="210" y2="569.1"/>
			<line class="st6" x1="220.4" y1="665.8" x2="210" y2="569.1"/>
		</g>
		<text transform="matrix(1 0 0 1 57.6713 524.3005)"><tspan x="0" y="0" class="st7 st8 st9">Indigenous </tspan><tspan x="0" y="21" class="st7 st8 st9">Museum</tspan></text>
		<text transform="matrix(1 0 0 1 171.0219 476.0002)"><tspan x="0" y="0" class="st7 st8 st9">Union </tspan><tspan x="0" y="21" class="st7 st8 st9">Church</tspan></text>
		<text transform="matrix(1 0 0 1 134.673 566.607)"><tspan x="0" y="0" class="st7 st8 st10">Development </tspan><tspan x="6.5" y="24" class="st7 st8 st10">Partnership</tspan></text>
		<text transform="matrix(1 0 0 1 85.4308 624.403)" class="st7 st8 st9">UW</text>
		<text transform="matrix(1 0 0 1 273.3259 509.8937)"><tspan x="0" y="0" class="st7 st8 st9">Ecumenical </tspan><tspan x="0" y="21" class="st7 st8 st9">Housing</tspan></text>
		<text transform="matrix(1 0 0 1 137.0365 632.3356)"><tspan x="0" y="0" class="st7 st8 st9">Community </tspan><tspan x="0" y="21" class="st7 st8 st9">Land Trust</tspan></text>
		<text transform="matrix(1 0 0 1 254.918 623.372)"><tspan x="0" y="0" class="st7 st8 st9">Healthcare </tspan><tspan x="0" y="21" class="st7 st8 st9">Workers Union</tspan></text>
		<g>
			<text transform="matrix(1 0 0 1 11.5291 665.2775)" class="st11 st8 st12">funding</text>
			<text transform="matrix(1 0 0 1 86.7633 704.8183)" class="st11 st8 st12">tenants</text>
			<text transform="matrix(1 0 0 1 6.6017 476.1266)" class="st11 st8 st12">donors</text>
			<text transform="matrix(1 0 0 1 42.0532 424.928)" class="st11 st8 st12">programming</text>
			<text transform="matrix(1 0 0 1 297.3811 715.4772)" class="st11 st8 st12">tenants</text>
			<text transform="matrix(1 0 0 1 418.4908 676.8039)" class="st11 st8 st12">funding</text>
			<text transform="matrix(1 0 0 1 316.7397 440.5637)" class="st11 st8 st12">tenants</text>
			<text transform="matrix(1 0 0 1 415.6156 484.725)" class="st11 st8 st12">donors</text>
			<text transform="matrix(1 0 0 1 147.759 735.936)" class="st11 st8 st12">expertise</text>
			<line class="st13" x1="321.4" y1="492.6" x2="342.4" y2="445.5"/>
			<line class="st13" x1="68" y1="507.2" x2="39.1" y2="481.4"/>
			<line class="st13" x1="86.8" y1="627.2" x2="52" y2="653.9"/>
			<line class="st13" x1="182.1" y1="657.2" x2="186.3" y2="722"/>
			<line class="st13" x1="99.8" y1="627.5" x2="113.9" y2="689.6"/>
			<line class="st13" x1="306.2" y1="650.2" x2="325.8" y2="700.5"/>
			<line class="st13" x1="446.6" y1="672.5" x2="357.2" y2="647.6"/>
			<line class="st13" x1="370.3" y1="498.3" x2="415.6" y2="484.7"/>
			<line class="st13" x1="93" y1="503.3" x2="93" y2="429.9"/>
		</g>
		<path class="st4" d="M180.7,631.1c-2.6,0-2.6,4,0,4C183.3,635.1,183.3,631.1,180.7,631.1z"/>
	</g>
	<path class="st4" d="M673.8,643.6c-19.3-23.9-52.8-5.3-86.9-12.1c-51.8-10.2-57,69-4,60.9C615.7,687.4,696.9,688.8,673.8,643.6z"/>
	<path class="st4" d="M744.4,569.5c-15.6-39.3-108.7-32.2-89.5,16.3c7.5,18.8,28.3,12,47.4,14.1
		C728.2,602.8,753.1,591.4,744.4,569.5z"/>
	<path class="st4" d="M643.6,470.8c-26.7-46.2-117.2-11.1-77.9,31.9C590.1,529.5,676.2,527.3,643.6,470.8z"/>
	<text transform="matrix(1 0 0 1 566.387 476.0008)"><tspan x="0" y="0" class="st7 st8 st14">City of </tspan><tspan x="0" y="21" class="st7 st8 st14">Seattle</tspan></text>
	<text transform="matrix(1 0 0 1 556.3789 657.2128)"><tspan x="0" y="0" class="st7 st8 st14">Aff. Housing </tspan><tspan x="0" y="21" class="st7 st8 st14">Developer</tspan></text>
	<text transform="matrix(1 0 0 1 665.5123 569.0587)"><tspan x="0" y="0" class="st7 st8 st14">LIHTC </tspan><tspan x="0" y="21" class="st7 st8 st14">Investor</tspan></text>
	<path class="st0" d="M145.2,146.9C296.5,146.9,430,37.7,430,37.7"/>
	<path class="st0" d="M145.2,146.9C296.5,151.9,430,256.2,430,256.2"/>
	<line class="st0" x1="125.4" y1="146.9" x2="558.6" y2="146.9"/>
	<path class="st4" d="M517.1,244.1c-19.3-23.9-52.8-5.3-86.9-12.1c-51.8-10.2-57,69-4,60.9C458.9,287.9,540.2,289.4,517.1,244.1z"/>
	<path class="st4" d="M655.5,144.1c-15.6-39.3-108.7-32.2-89.5,16.3c7.5,18.8,28.3,12,47.4,14.1
		C639.2,177.3,664.2,165.9,655.5,144.1z"/>
	<path class="st4" d="M476.5,25.2C449.8-21,359.2,14.2,398.6,57.2C423,83.9,509.1,81.7,476.5,25.2z"/>
	<path class="st4" d="M101,163.2c26.7,46.2,117.2,11.1,77.9-31.9C154.5,104.6,68.4,106.7,101,163.2z"/>
	<text transform="matrix(1 0 0 1 397.9149 34.6951)"><tspan x="0" y="0" class="st7 st8 st14">City of </tspan><tspan x="0" y="21" class="st7 st8 st14">Seattle</tspan></text>
	<text transform="matrix(1 0 0 1 397.9149 254.7734)"><tspan x="0" y="0" class="st7 st8 st14">Aff. Housing </tspan><tspan x="0" y="21" class="st7 st8 st14">Developer</tspan></text>
	<text transform="matrix(1 0 0 1 575.026 144.2906)"><tspan x="0" y="0" class="st7 st8 st14">LIHTC </tspan><tspan x="0" y="21" class="st7 st8 st14">Investor</tspan></text>
	<text transform="matrix(1 0 0 1 109.5623 146.7847)"><tspan x="0" y="0" class="st7 st8 st14">Union </tspan><tspan x="0" y="21" class="st7 st8 st14">Church</tspan></text>
	<g>
		<g>
			<line class="st15" x1="376.3" y1="329.2" x2="376.3" y2="355.3"/>
			<g>
				<polygon points="368.9,349.7 376.3,352.9 383.7,349.7 376.3,367.3 				"/>
			</g>
		</g>
	</g>
</g>
</svg>
