<?xml version="1.0" encoding="utf-8"?>
<!-- Generator: Adobe Illustrator 25.0.0, SVG Export Plug-In . SVG Version: 6.00 Build 0)  -->
<svg version="1.1" id="Layer_1" xmlns="http://www.w3.org/2000/svg" xmlns:xlink="http://www.w3.org/1999/xlink" x="0px" y="0px"
	 viewBox="0 0 108.5 34.4" style="enable-background:new 0 0 108.5 34.4;" xml:space="preserve">
<style type="text/css">
	.st0{fill:none;}
	.st1{fill:none;stroke:#000000;stroke-width:2;stroke-miterlimit:10;}
	.st2{fill:url(#SVGID_1_);stroke:#000000;stroke-width:10;stroke-miterlimit:10;}
	.st3{stroke:#FFFFFF;stroke-width:10;stroke-miterlimit:10;}
	.st4{fill:none;stroke:#000000;stroke-width:0.75;stroke-miterlimit:10;}
</style>
<pattern  x="-801.8" y="-623.8" width="40" height="149" patternUnits="userSpaceOnUse" id="New_Pattern" viewBox="0 -149 40 149" style="overflow:visible;">
	<g>
		<rect y="-149" class="st0" width="40" height="149"/>
		<line class="st1" x1="36" y1="-149" x2="36" y2="0"/>
		<line class="st1" x1="28" y1="-149" x2="28" y2="0"/>
		<line class="st1" x1="20" y1="-149" x2="20" y2="0"/>
		<line class="st1" x1="12" y1="-149" x2="12" y2="0"/>
		<line class="st1" x1="4" y1="-149" x2="4" y2="0"/>
	</g>
</pattern>
<pattern  id="SVGID_1_" xlink:href="#New_Pattern" patternTransform="matrix(0.617 0.9035 -0.9035 0.617 -12680.0703 6347.8833)">
</pattern>
<path class="st2" d="M731.3-324.2"/>
<path class="st3" d="M837.1-324.2"/>
<g>
	<path class="st4" d="M14.7,27c-3.1,0-3.1-1.6-3.1-6.3c0-6.3,0-15.5,0-15.5L3.7,5.2c0,0,0,9.4,0,15.7s3.1,9.5,9.4,9.5s9.5,0,9.5,0
		V5.2l-7.9,0L14.7,27z"/>
	<path class="st4" d="M35.3,8.6c3.1,0,3.1,1.6,3.1,6.3c0,6.3,0,15.6,0,15.6l7.9-0.1c0,0,0-9.5,0-15.8s-3.1-9.4-9.4-9.4
		c-6.3,0-9.5,0-9.5,0v25.2l7.9,0V8.6z"/>
	<path class="st4" d="M92.6,8.6c3.1,0,3.1,1.6,3.1,6.3c0,6.3,0,15.6,0,15.6l7.9-0.1c0,0,0-9.5,0-15.8s-3.1-9.4-9.4-9.4s-9.5,0-9.5,0
		v25.2l7.9,0V8.6z"/>
	<path class="st4" d="M79.9,14.6c0-6.3-3.1-9.5-9.4-9.4c-6.3,0-9.5,0-9.5,0s0.1,9.4,0,15.7c0,6.3,3.1,9.5,9.4,9.5c6.3,0,9.4,0,9.4,0
		S80,20.9,79.9,14.6z M72.1,14.9c0,4.7,0,12.2,0,12.2c-3.1,0-3.2-1.6-3.1-6.3c0-4.7,0-12.1,0-12.1C72.1,8.6,72.1,10.1,72.1,14.9z"/>
	<path class="st4" d="M49.7,5.2h4.2c2,0,3.7,1.6,3.7,3.7v21.6h-4.2c-2,0-3.7-1.6-3.7-3.7V5.2z"/>
</g>
</svg>
