<?xml version="1.0" encoding="utf-8"?>
<!-- Generator: Adobe Illustrator 24.2.1, SVG Export Plug-In . SVG Version: 6.00 Build 0)  -->
<svg version="1.1" xmlns="http://www.w3.org/2000/svg" xmlns:xlink="http://www.w3.org/1999/xlink" x="0px" y="0px"
	 viewBox="0 0 524.09 379.52" style="enable-background:new 0 0 524.09 379.52;" xml:space="preserve">
<style type="text/css">
	.st0{fill:none;}
	.st1{fill:none;stroke:#000000;stroke-width:0.5;}
	.st2{fill:none;stroke:#000000;stroke-width:0.3;stroke-dasharray:2,2;}
	.st3{fill:#FFFFFF;stroke:#000000;stroke-miterlimit:10;}
	.st4{display:none;}
	.st5{display:inline;fill:url(#SVGID_1_);}
	.st6{display:inline;fill:url(#SVGID_2_);}
	.st7{display:inline;fill:url(#SVGID_3_);}
</style>
<pattern  x="-45.9" y="-97.48" width="72" height="72" patternUnits="userSpaceOnUse" id="Burlap" viewBox="12.83 -83 72 72" style="overflow:visible;">
	<g>
		<rect x="12.83" y="-83" class="st0" width="72" height="72"/>
		<g>
			<line class="st1" x1="83.16" y1="-10.83" x2="97.83" y2="-10.83"/>
		</g>
		<g>
			<line class="st1" x1="11.17" y1="-10.83" x2="25.83" y2="-10.83"/>
		</g>
		<g>
			<line class="st1" x1="81.33" y1="-76" x2="96" y2="-76"/>
			<line class="st1" x1="79.66" y1="-69.33" x2="94.33" y2="-69.33"/>
			<line class="st1" x1="83.16" y1="-82.84" x2="97.83" y2="-82.84"/>
			<line class="st1" x1="84.16" y1="-52" x2="98.83" y2="-52"/>
			<line class="st1" x1="88.67" y1="-80.17" x2="74" y2="-80.17"/>
			<line class="st1" x1="92.17" y1="-74.67" x2="77.5" y2="-74.67"/>
			<line class="st1" x1="74.33" y1="-66.49" x2="89" y2="-66.49"/>
			<line class="st1" x1="78" y1="-17.49" x2="92.66" y2="-17.49"/>
			<line class="st1" x1="74.33" y1="-12.83" x2="89" y2="-12.83"/>
			<line class="st1" x1="79.66" y1="-14.83" x2="94.33" y2="-14.83"/>
			<line class="st1" x1="75" y1="-19.83" x2="89.66" y2="-19.83"/>
			<line class="st1" x1="79.66" y1="-28.49" x2="94.33" y2="-28.49"/>
			<line class="st1" x1="76.33" y1="-24.16" x2="91" y2="-24.16"/>
			<line class="st1" x1="89.83" y1="-59.67" x2="75.17" y2="-59.67"/>
			<line class="st1" x1="90.33" y1="-56.17" x2="75.67" y2="-56.17"/>
			<line class="st1" x1="93.33" y1="-54.17" x2="78.67" y2="-54.17"/>
			<line class="st1" x1="79" y1="-64.34" x2="93.67" y2="-64.34"/>
			<line class="st1" x1="89.5" y1="-50.16" x2="74.83" y2="-50.16"/>
			<line class="st1" x1="93.5" y1="-48.16" x2="78.83" y2="-48.16"/>
			<line class="st1" x1="87.83" y1="-45.83" x2="73.17" y2="-45.83"/>
			<line class="st1" x1="76" y1="-31.49" x2="90.67" y2="-31.49"/>
			<line class="st1" x1="78" y1="-35.83" x2="92.66" y2="-35.83"/>
			<line class="st1" x1="78" y1="-41.16" x2="92.66" y2="-41.16"/>
			<line class="st1" x1="80.66" y1="-38.49" x2="95.33" y2="-38.49"/>
			<line class="st1" x1="82.66" y1="-43.49" x2="97.33" y2="-43.49"/>
		</g>
		<g>
			<line class="st1" x1="22.5" y1="-77.33" x2="22.5" y2="-62.67"/>
			<line class="st1" x1="25" y1="-74.33" x2="25" y2="-59.67"/>
			<line class="st1" x1="21.33" y1="-64.67" x2="21.33" y2="-50"/>
			<line class="st1" x1="28.67" y1="-64.33" x2="28.67" y2="-49.67"/>
			<line class="st1" x1="19" y1="-71.33" x2="19" y2="-56.67"/>
			<line class="st1" x1="31" y1="-74.33" x2="31" y2="-59.67"/>
			<line class="st1" x1="36.5" y1="-74.33" x2="36.5" y2="-59.67"/>
			<line class="st1" x1="37.83" y1="-70.67" x2="37.83" y2="-56"/>
			<line class="st1" x1="34" y1="-79.83" x2="34" y2="-65.17"/>
			<line class="st1" x1="27.5" y1="-77.83" x2="27.5" y2="-63.17"/>
			<line class="st1" x1="14" y1="-72" x2="28.67" y2="-72"/>
			<line class="st1" x1="9.33" y1="-76" x2="24" y2="-76"/>
			<line class="st1" x1="7.67" y1="-69.33" x2="22.33" y2="-69.33"/>
			<line class="st1" x1="26" y1="-75.67" x2="40.67" y2="-75.67"/>
			<line class="st1" x1="20.83" y1="-73.83" x2="35.5" y2="-73.83"/>
			<line class="st1" x1="24.5" y1="-65.66" x2="39.17" y2="-65.66"/>
			<line class="st1" x1="17.83" y1="-68.17" x2="32.5" y2="-68.17"/>
			<line class="st1" x1="51.33" y1="-73" x2="51.33" y2="-58.34"/>
			<line class="st1" x1="48.83" y1="-70" x2="48.83" y2="-55.34"/>
			<line class="st1" x1="54.83" y1="-67" x2="54.83" y2="-52.34"/>
			<line class="st1" x1="56.17" y1="-59.67" x2="56.17" y2="-45"/>
			<line class="st1" x1="57.5" y1="-67" x2="57.5" y2="-52.34"/>
			<line class="st1" x1="42.83" y1="-70" x2="42.83" y2="-55.34"/>
			<line class="st1" x1="32.67" y1="-66.67" x2="32.67" y2="-52"/>
			<line class="st1" x1="41.17" y1="-76.5" x2="41.17" y2="-61.84"/>
			<line class="st1" x1="39.5" y1="-79.83" x2="39.5" y2="-65.17"/>
			<line class="st1" x1="46.33" y1="-74.83" x2="46.33" y2="-60.17"/>
			<line class="st1" x1="54.83" y1="-68.34" x2="40.17" y2="-68.34"/>
			<line class="st1" x1="46.5" y1="-70.33" x2="31.83" y2="-70.33"/>
			<line class="st1" x1="55.33" y1="-64.84" x2="40.67" y2="-64.84"/>
			<line class="st1" x1="49.67" y1="-60.99" x2="35" y2="-60.99"/>
			<line class="st1" x1="58.33" y1="-62.84" x2="43.67" y2="-62.84"/>
			<line class="st1" x1="83.67" y1="-81.83" x2="83.67" y2="-67.17"/>
			<line class="st1" x1="79" y1="-81.83" x2="79" y2="-67.17"/>
			<line class="st1" x1="71.17" y1="-81.83" x2="71.17" y2="-67.17"/>
			<line class="st1" x1="88.67" y1="-80.17" x2="74" y2="-80.17"/>
			<line class="st1" x1="87.17" y1="-77.67" x2="72.5" y2="-77.67"/>
			<line class="st1" x1="83.17" y1="-73.16" x2="68.5" y2="-73.16"/>
			<line class="st1" x1="75.17" y1="-74.49" x2="60.5" y2="-74.49"/>
			<line class="st1" x1="92.17" y1="-74.67" x2="77.5" y2="-74.67"/>
			<line class="st1" x1="54.33" y1="-80.5" x2="54.33" y2="-65.83"/>
			<line class="st1" x1="58.83" y1="-77.5" x2="58.83" y2="-62.83"/>
			<line class="st1" x1="52.83" y1="-74.5" x2="52.83" y2="-59.84"/>
			<line class="st1" x1="65.5" y1="-78.17" x2="65.5" y2="-63.5"/>
			<line class="st1" x1="75" y1="-74.17" x2="75" y2="-59.5"/>
			<line class="st1" x1="67.83" y1="-83" x2="67.83" y2="-68.33"/>
			<line class="st1" x1="63" y1="-82" x2="63" y2="-67.33"/>
			<line class="st1" x1="52.67" y1="-80.67" x2="67.33" y2="-80.67"/>
			<line class="st1" x1="59.83" y1="-78.83" x2="74.5" y2="-78.83"/>
			<line class="st1" x1="51.5" y1="-77.17" x2="66.17" y2="-77.17"/>
			<line class="st1" x1="52.33" y1="-72.33" x2="67" y2="-72.33"/>
			<line class="st1" x1="58" y1="-67.49" x2="72.67" y2="-67.49"/>
			<line class="st1" x1="61.67" y1="-69.49" x2="76.33" y2="-69.49"/>
			<line class="st1" x1="49.33" y1="-70.33" x2="64" y2="-70.33"/>
			<line class="st1" x1="44.33" y1="-81.33" x2="44.33" y2="-66.67"/>
			<line class="st1" x1="42.67" y1="-82" x2="42.67" y2="-67.34"/>
			<line class="st1" x1="36.67" y1="-81.33" x2="36.67" y2="-66.67"/>
			<line class="st1" x1="14.83" y1="-44.67" x2="14.83" y2="-30"/>
			<line class="st1" x1="14.33" y1="-61.17" x2="14.33" y2="-46.5"/>
			<line class="st1" x1="15.5" y1="-73.17" x2="15.5" y2="-58.5"/>
			<line class="st1" x1="13.5" y1="-75.67" x2="13.5" y2="-61"/>
			<line class="st1" x1="11.17" y1="-82.84" x2="25.83" y2="-82.84"/>
			<line class="st1" x1="19.5" y1="-81.17" x2="34.17" y2="-81.17"/>
			<line class="st1" x1="14" y1="-78.67" x2="28.67" y2="-78.67"/>
			<line class="st1" x1="36" y1="-78" x2="50.67" y2="-78"/>
			<line class="st1" x1="31" y1="-79.33" x2="45.67" y2="-79.33"/>
			<line class="st1" x1="33" y1="-82" x2="47.67" y2="-82"/>
			<line class="st1" x1="38.33" y1="-73.67" x2="53" y2="-73.67"/>
			<line class="st1" x1="54.5" y1="-58.83" x2="39.83" y2="-58.83"/>
			<line class="st1" x1="58.5" y1="-56.83" x2="43.83" y2="-56.83"/>
			<line class="st1" x1="52.83" y1="-54.49" x2="38.17" y2="-54.49"/>
			<line class="st1" x1="31" y1="-48.67" x2="31" y2="-34"/>
			<line class="st1" x1="34.5" y1="-42.67" x2="34.5" y2="-28"/>
			<line class="st1" x1="28.83" y1="-46.34" x2="14.17" y2="-46.34"/>
			<line class="st1" x1="39.83" y1="-42.34" x2="25.17" y2="-42.34"/>
			<line class="st1" x1="35" y1="-40.5" x2="20.33" y2="-40.5"/>
			<line class="st1" x1="38" y1="-38.5" x2="23.33" y2="-38.5"/>
			<line class="st1" x1="50.83" y1="-57.5" x2="50.83" y2="-42.84"/>
			<line class="st1" x1="52.17" y1="-51.67" x2="52.17" y2="-37"/>
			<line class="st1" x1="36" y1="-56.17" x2="36" y2="-41.5"/>
			<line class="st1" x1="39.17" y1="-61.5" x2="39.17" y2="-46.84"/>
			<line class="st1" x1="44.5" y1="-53.17" x2="44.5" y2="-38.5"/>
			<line class="st1" x1="47.5" y1="-58.67" x2="47.5" y2="-44"/>
			<line class="st1" x1="45.83" y1="-59" x2="45.83" y2="-44.34"/>
			<line class="st1" x1="41" y1="-56.67" x2="41" y2="-42"/>
			<line class="st1" x1="37.67" y1="-43.16" x2="52.33" y2="-43.16"/>
			<line class="st1" x1="40.33" y1="-41.83" x2="55" y2="-41.83"/>
			<line class="st1" x1="43" y1="-44.49" x2="57.67" y2="-44.49"/>
			<line class="st1" x1="43" y1="-49.83" x2="57.67" y2="-49.83"/>
			<line class="st1" x1="45.67" y1="-47.16" x2="60.33" y2="-47.16"/>
			<line class="st1" x1="59" y1="-49.83" x2="73.66" y2="-49.83"/>
			<line class="st1" x1="47.67" y1="-52.16" x2="62.33" y2="-52.16"/>
			<line class="st1" x1="74.33" y1="-66.49" x2="89" y2="-66.49"/>
			<line class="st1" x1="58.33" y1="-59.49" x2="73" y2="-59.49"/>
			<line class="st1" x1="56.33" y1="-61.83" x2="71" y2="-61.83"/>
			<line class="st1" x1="29" y1="-46" x2="43.67" y2="-46"/>
			<line class="st1" x1="29.33" y1="-48" x2="44" y2="-48"/>
			<line class="st1" x1="43.17" y1="-37.16" x2="28.5" y2="-37.16"/>
			<line class="st1" x1="34.83" y1="-62.17" x2="34.83" y2="-47.5"/>
			<line class="st1" x1="32.67" y1="-65.67" x2="32.67" y2="-51"/>
			<line class="st1" x1="23.67" y1="-57" x2="38.33" y2="-57"/>
			<line class="st1" x1="16.67" y1="-58.34" x2="31.33" y2="-58.34"/>
			<line class="st1" x1="18.33" y1="-60.34" x2="33" y2="-60.34"/>
			<line class="st1" x1="17" y1="-63" x2="31.67" y2="-63"/>
			<line class="st1" x1="26.33" y1="-63" x2="41" y2="-63"/>
			<line class="st1" x1="19.83" y1="-39.33" x2="19.83" y2="-24.67"/>
			<line class="st1" x1="22.33" y1="-36.33" x2="22.33" y2="-21.67"/>
			<line class="st1" x1="18.67" y1="-26.67" x2="18.67" y2="-12"/>
			<line class="st1" x1="15.67" y1="-29" x2="15.67" y2="-14.33"/>
			<line class="st1" x1="26" y1="-26.33" x2="26" y2="-11.67"/>
			<line class="st1" x1="28.33" y1="-36.33" x2="28.33" y2="-21.67"/>
			<line class="st1" x1="37.83" y1="-44.67" x2="37.83" y2="-30"/>
			<line class="st1" x1="71.33" y1="-23" x2="71.33" y2="-8.33"/>
			<line class="st1" x1="74.17" y1="-35.67" x2="74.17" y2="-21"/>
			<line class="st1" x1="70.83" y1="-19" x2="56.17" y2="-19"/>
			<line class="st1" x1="75.33" y1="-14.83" x2="60.67" y2="-14.83"/>
			<line class="st1" x1="72.67" y1="-12.83" x2="58" y2="-12.83"/>
			<line class="st1" x1="76.67" y1="-16.5" x2="62" y2="-16.5"/>
			<line class="st1" x1="76.33" y1="-30.5" x2="76.33" y2="-15.83"/>
			<line class="st1" x1="72.83" y1="-24.5" x2="72.83" y2="-9.83"/>
			<line class="st1" x1="61.5" y1="-35.17" x2="61.5" y2="-20.5"/>
			<line class="st1" x1="59.83" y1="-32.5" x2="59.83" y2="-17.83"/>
			<line class="st1" x1="57.83" y1="-26.67" x2="57.83" y2="-12"/>
			<line class="st1" x1="80" y1="-28.67" x2="80" y2="-14"/>
			<line class="st1" x1="81.67" y1="-34.67" x2="81.67" y2="-20"/>
			<line class="st1" x1="84" y1="-37" x2="84" y2="-22.33"/>
			<line class="st1" x1="78" y1="-17.49" x2="92.67" y2="-17.49"/>
			<line class="st1" x1="74.33" y1="-12.83" x2="89" y2="-12.83"/>
			<line class="st1" x1="79.67" y1="-14.83" x2="94.33" y2="-14.83"/>
			<line class="st1" x1="75" y1="-19.83" x2="89.67" y2="-19.83"/>
			<line class="st1" x1="72" y1="-26.49" x2="86.67" y2="-26.49"/>
			<line class="st1" x1="79.67" y1="-28.49" x2="94.33" y2="-28.49"/>
			<line class="st1" x1="76.33" y1="-24.16" x2="91" y2="-24.16"/>
			<line class="st1" x1="78.17" y1="-19" x2="78.17" y2="-4.33"/>
			<line class="st1" x1="82.5" y1="-21.67" x2="82.5" y2="-7"/>
			<line class="st1" x1="16.33" y1="-34.67" x2="31" y2="-34.67"/>
			<line class="st1" x1="21" y1="-15.33" x2="35.67" y2="-15.33"/>
			<line class="st1" x1="17.83" y1="-32.17" x2="32.5" y2="-32.17"/>
			<line class="st1" x1="21.83" y1="-27.66" x2="36.5" y2="-27.66"/>
			<line class="st1" x1="32.83" y1="-30.66" x2="47.5" y2="-30.66"/>
			<line class="st1" x1="13.67" y1="-30.5" x2="28.34" y2="-30.5"/>
			<line class="st1" x1="30.5" y1="-31" x2="30.5" y2="-16.33"/>
			<line class="st1" x1="45.17" y1="-33.34" x2="30.5" y2="-33.34"/>
			<line class="st1" x1="47" y1="-22.99" x2="32.33" y2="-22.99"/>
			<line class="st1" x1="48.67" y1="-21.33" x2="34" y2="-21.33"/>
			<line class="st1" x1="47.17" y1="-26.33" x2="32.5" y2="-26.33"/>
			<line class="st1" x1="51.84" y1="-28.99" x2="37.17" y2="-28.99"/>
			<line class="st1" x1="32.17" y1="-24.17" x2="32.17" y2="-9.5"/>
			<line class="st1" x1="25.33" y1="-45" x2="25.33" y2="-30.34"/>
			<line class="st1" x1="23.67" y1="-50.34" x2="23.67" y2="-35.67"/>
			<line class="st1" x1="26.67" y1="-53.34" x2="26.67" y2="-38.67"/>
			<line class="st1" x1="21.33" y1="-51.67" x2="21.33" y2="-37"/>
			<line class="st1" x1="17.67" y1="-50.67" x2="17.67" y2="-36"/>
			<line class="st1" x1="19.67" y1="-55.34" x2="19.67" y2="-40.67"/>
			<line class="st1" x1="21" y1="-19" x2="35.67" y2="-19"/>
			<line class="st1" x1="13.83" y1="-20.67" x2="28.5" y2="-20.67"/>
			<line class="st1" x1="15.67" y1="-22.33" x2="30.33" y2="-22.33"/>
			<line class="st1" x1="42.33" y1="-33" x2="42.33" y2="-18.33"/>
			<line class="st1" x1="39.32" y1="-40" x2="39.32" y2="-25.33"/>
			<line class="st1" x1="38.67" y1="-23.33" x2="38.67" y2="-8.67"/>
			<line class="st1" x1="46" y1="-23" x2="46" y2="-8.33"/>
			<line class="st1" x1="36.33" y1="-30" x2="36.33" y2="-15.33"/>
			<line class="st1" x1="48.33" y1="-33" x2="48.33" y2="-18.33"/>
			<line class="st1" x1="43.83" y1="-24.17" x2="43.83" y2="-9.5"/>
			<line class="st1" x1="40.83" y1="-28.17" x2="40.83" y2="-13.5"/>
			<line class="st1" x1="41" y1="-12" x2="55.67" y2="-12"/>
			<line class="st1" x1="43" y1="-14.33" x2="57.67" y2="-14.33"/>
			<line class="st1" x1="50" y1="-25.33" x2="50" y2="-10.67"/>
			<line class="st1" x1="45.33" y1="-37.67" x2="45.33" y2="-23"/>
			<line class="st1" x1="67.83" y1="-25.33" x2="67.83" y2="-10.67"/>
			<line class="st1" x1="60.83" y1="-17.33" x2="60.83" y2="-2.67"/>
			<line class="st1" x1="47" y1="-42.34" x2="47" y2="-27.67"/>
			<line class="st1" x1="41" y1="-15.67" x2="55.67" y2="-15.67"/>
			<line class="st1" x1="34" y1="-17" x2="48.67" y2="-17"/>
			<line class="st1" x1="26" y1="-13.67" x2="40.67" y2="-13.67"/>
			<line class="st1" x1="20.67" y1="-12.33" x2="35.33" y2="-12.33"/>
			<line class="st1" x1="35.67" y1="-19" x2="50.33" y2="-19"/>
			<line class="st1" x1="14.33" y1="-25" x2="29" y2="-25"/>
			<line class="st1" x1="23.67" y1="-25" x2="38.33" y2="-25"/>
			<line class="st1" x1="29.33" y1="-52.16" x2="44" y2="-52.16"/>
			<line class="st1" x1="20.67" y1="-55" x2="35.33" y2="-55"/>
			<line class="st1" x1="19.5" y1="-49.67" x2="34.17" y2="-49.67"/>
			<line class="st1" x1="12.17" y1="-52" x2="26.83" y2="-52"/>
			<line class="st1" x1="60" y1="-65.67" x2="60" y2="-51"/>
			<line class="st1" x1="63.67" y1="-55.67" x2="63.67" y2="-41"/>
			<line class="st1" x1="65.66" y1="-63" x2="65.66" y2="-48.33"/>
			<line class="st1" x1="71.5" y1="-65.67" x2="71.5" y2="-51"/>
			<line class="st1" x1="72.83" y1="-62" x2="72.83" y2="-47.34"/>
			<line class="st1" x1="69" y1="-71.17" x2="69" y2="-56.5"/>
			<line class="st1" x1="61.5" y1="-69.17" x2="61.5" y2="-54.5"/>
			<line class="st1" x1="59.5" y1="-56.99" x2="74.17" y2="-56.99"/>
			<line class="st1" x1="53.17" y1="-34.67" x2="53.17" y2="-20"/>
			<line class="st1" x1="54.5" y1="-27.33" x2="54.5" y2="-12.67"/>
			<line class="st1" x1="51.17" y1="-37.67" x2="51.17" y2="-23"/>
			<line class="st1" x1="55.84" y1="-34.67" x2="55.84" y2="-20"/>
			<line class="st1" x1="77.83" y1="-61.34" x2="77.83" y2="-46.67"/>
			<line class="st1" x1="67.67" y1="-58" x2="67.67" y2="-43.34"/>
			<line class="st1" x1="76.17" y1="-67.83" x2="76.17" y2="-53.17"/>
			<line class="st1" x1="79.83" y1="-72.5" x2="79.83" y2="-57.84"/>
			<line class="st1" x1="81.34" y1="-70.33" x2="81.34" y2="-55.67"/>
			<line class="st1" x1="83.33" y1="-65.5" x2="83.33" y2="-50.84"/>
			<line class="st1" x1="89.83" y1="-59.67" x2="75.17" y2="-59.67"/>
			<line class="st1" x1="82.83" y1="-62.67" x2="68.17" y2="-62.67"/>
			<line class="st1" x1="77.17" y1="-65" x2="62.5" y2="-65"/>
			<line class="st1" x1="81.5" y1="-71.34" x2="66.83" y2="-71.34"/>
			<line class="st1" x1="90.33" y1="-56.17" x2="75.67" y2="-56.17"/>
			<line class="st1" x1="84.67" y1="-52.33" x2="70" y2="-52.33"/>
			<line class="st1" x1="93.33" y1="-54.17" x2="78.67" y2="-54.17"/>
			<line class="st1" x1="54.67" y1="-48.17" x2="54.67" y2="-33.5"/>
			<line class="st1" x1="57.17" y1="-45.17" x2="57.17" y2="-30.5"/>
			<line class="st1" x1="72.5" y1="-42.17" x2="72.5" y2="-27.5"/>
			<line class="st1" x1="59.67" y1="-48.67" x2="59.67" y2="-34"/>
			<line class="st1" x1="50.67" y1="-40" x2="65.33" y2="-40"/>
			<line class="st1" x1="56.33" y1="-35.16" x2="71" y2="-35.16"/>
			<line class="st1" x1="79" y1="-64.34" x2="93.67" y2="-64.34"/>
			<line class="st1" x1="89.5" y1="-50.16" x2="74.83" y2="-50.16"/>
			<line class="st1" x1="93.5" y1="-48.16" x2="78.83" y2="-48.16"/>
			<line class="st1" x1="87.83" y1="-45.83" x2="73.17" y2="-45.83"/>
			<line class="st1" x1="66" y1="-40" x2="66" y2="-25.33"/>
			<line class="st1" x1="69.5" y1="-34" x2="69.5" y2="-19.33"/>
			<line class="st1" x1="65.5" y1="-26.33" x2="65.5" y2="-11.67"/>
			<line class="st1" x1="63.17" y1="-28.67" x2="63.17" y2="-14"/>
			<line class="st1" x1="73" y1="-29.84" x2="58.33" y2="-29.84"/>
			<line class="st1" x1="65" y1="-32.5" x2="50.33" y2="-32.5"/>
			<line class="st1" x1="54.67" y1="-35.5" x2="40" y2="-35.5"/>
			<line class="st1" x1="64.83" y1="-51.17" x2="64.83" y2="-36.5"/>
			<line class="st1" x1="51.83" y1="-19.33" x2="51.83" y2="-4.67"/>
			<line class="st1" x1="77.83" y1="-36.17" x2="77.83" y2="-21.5"/>
			<line class="st1" x1="71" y1="-47.5" x2="71" y2="-32.84"/>
			<line class="st1" x1="74.16" y1="-52.84" x2="74.16" y2="-38.17"/>
			<line class="st1" x1="67.5" y1="-41.5" x2="67.5" y2="-26.84"/>
			<line class="st1" x1="79.5" y1="-44.5" x2="79.5" y2="-29.84"/>
			<line class="st1" x1="82.5" y1="-50" x2="82.5" y2="-35.34"/>
			<line class="st1" x1="80.83" y1="-50.34" x2="80.83" y2="-35.67"/>
			<line class="st1" x1="76" y1="-48" x2="76" y2="-33.34"/>
			<line class="st1" x1="72.67" y1="-34.49" x2="87.33" y2="-34.49"/>
			<line class="st1" x1="76" y1="-31.49" x2="90.67" y2="-31.49"/>
			<line class="st1" x1="78" y1="-35.83" x2="92.67" y2="-35.83"/>
			<line class="st1" x1="78" y1="-41.16" x2="92.67" y2="-41.16"/>
			<line class="st1" x1="80.66" y1="-38.49" x2="95.33" y2="-38.49"/>
			<line class="st1" x1="82.66" y1="-43.49" x2="97.33" y2="-43.49"/>
			<line class="st1" x1="51" y1="-21.16" x2="65.67" y2="-21.16"/>
			<line class="st1" x1="55.33" y1="-23.83" x2="70" y2="-23.83"/>
			<line class="st1" x1="54.67" y1="-28.49" x2="69.33" y2="-28.49"/>
			<line class="st1" x1="39" y1="-38.49" x2="53.67" y2="-38.49"/>
			<line class="st1" x1="64" y1="-37.34" x2="78.67" y2="-37.34"/>
			<line class="st1" x1="64.33" y1="-39.34" x2="79" y2="-39.34"/>
			<line class="st1" x1="69.83" y1="-53.5" x2="69.83" y2="-38.84"/>
			<line class="st1" x1="67.67" y1="-57" x2="67.67" y2="-42.34"/>
			<line class="st1" x1="61.33" y1="-51.33" x2="61.33" y2="-36.67"/>
			<line class="st1" x1="58.67" y1="-45.67" x2="73.33" y2="-45.67"/>
			<line class="st1" x1="61.33" y1="-54.34" x2="76" y2="-54.34"/>
			<line class="st1" x1="64.33" y1="-43.49" x2="79" y2="-43.49"/>
			<line class="st1" x1="81.33" y1="-76" x2="96" y2="-76"/>
			<line class="st1" x1="79.67" y1="-69.33" x2="94.33" y2="-69.33"/>
			<line class="st1" x1="16.67" y1="-80.17" x2="2" y2="-80.17"/>
			<line class="st1" x1="20.17" y1="-74.67" x2="5.5" y2="-74.67"/>
			<line class="st1" x1="2.33" y1="-66.49" x2="17" y2="-66.49"/>
			<line class="st1" x1="6" y1="-17.49" x2="20.67" y2="-17.49"/>
			<line class="st1" x1="2.33" y1="-12.83" x2="17" y2="-12.83"/>
			<line class="st1" x1="7.67" y1="-14.83" x2="22.33" y2="-14.83"/>
			<line class="st1" x1="3" y1="-19.83" x2="17.67" y2="-19.83"/>
			<line class="st1" x1="7.67" y1="-28.49" x2="22.33" y2="-28.49"/>
			<line class="st1" x1="4.33" y1="-24.16" x2="19" y2="-24.16"/>
			<line class="st1" x1="17.83" y1="-59.67" x2="3.17" y2="-59.67"/>
			<line class="st1" x1="18.33" y1="-56.17" x2="3.67" y2="-56.17"/>
			<line class="st1" x1="21.33" y1="-54.17" x2="6.67" y2="-54.17"/>
			<line class="st1" x1="7" y1="-64.34" x2="21.67" y2="-64.34"/>
			<line class="st1" x1="17.5" y1="-50.16" x2="2.83" y2="-50.16"/>
			<line class="st1" x1="21.5" y1="-48.16" x2="6.83" y2="-48.16"/>
			<line class="st1" x1="15.83" y1="-45.83" x2="1.17" y2="-45.83"/>
			<line class="st1" x1="4" y1="-31.49" x2="18.67" y2="-31.49"/>
			<line class="st1" x1="6" y1="-35.83" x2="20.67" y2="-35.83"/>
			<line class="st1" x1="6" y1="-41.16" x2="20.67" y2="-41.16"/>
			<line class="st1" x1="8.67" y1="-38.49" x2="23.33" y2="-38.49"/>
			<line class="st1" x1="10.67" y1="-43.49" x2="25.33" y2="-43.49"/>
			<line class="st1" x1="25.83" y1="-18.17" x2="25.83" y2="-3.5"/>
			<line class="st1" x1="23.17" y1="-20.5" x2="23.17" y2="-5.83"/>
			<line class="st1" x1="76.17" y1="-14.67" x2="76.17" y2="0"/>
			<line class="st1" x1="73.67" y1="-15.33" x2="73.67" y2="-0.67"/>
			<line class="st1" x1="50.33" y1="-14.67" x2="50.33" y2="0"/>
			<line class="st1" x1="81.5" y1="-14.67" x2="81.5" y2="0"/>
			<line class="st1" x1="56" y1="-16.5" x2="56" y2="-1.83"/>
			<line class="st1" x1="29.67" y1="-15.33" x2="29.67" y2="-0.67"/>
			<line class="st1" x1="14.67" y1="-15.5" x2="14.67" y2="-0.83"/>
			<line class="st1" x1="19.67" y1="-17.5" x2="19.67" y2="-2.83"/>
			<line class="st1" x1="47.67" y1="-14.67" x2="47.67" y2="0"/>
			<line class="st1" x1="71.33" y1="-23" x2="71.33" y2="-8.33"/>
			<line class="st1" x1="46" y1="-23" x2="46" y2="-8.33"/>
		</g>
		<g>
			<line class="st1" x1="16.67" y1="-80.17" x2="2" y2="-80.17"/>
			<line class="st1" x1="15.17" y1="-77.67" x2="0.5" y2="-77.67"/>
			<line class="st1" x1="20.17" y1="-74.67" x2="5.5" y2="-74.67"/>
			<line class="st1" x1="2.33" y1="-66.49" x2="17" y2="-66.49"/>
			<line class="st1" x1="6" y1="-17.49" x2="20.67" y2="-17.49"/>
			<line class="st1" x1="2.33" y1="-12.83" x2="17" y2="-12.83"/>
			<line class="st1" x1="7.67" y1="-14.83" x2="22.33" y2="-14.83"/>
			<line class="st1" x1="3" y1="-19.83" x2="17.67" y2="-19.83"/>
			<line class="st1" x1="0" y1="-26.49" x2="14.67" y2="-26.49"/>
			<line class="st1" x1="7.67" y1="-28.49" x2="22.33" y2="-28.49"/>
			<line class="st1" x1="4.33" y1="-24.16" x2="19" y2="-24.16"/>
			<line class="st1" x1="17.84" y1="-59.67" x2="3.17" y2="-59.67"/>
			<line class="st1" x1="18.34" y1="-56.17" x2="3.67" y2="-56.17"/>
			<line class="st1" x1="21.34" y1="-54.17" x2="6.67" y2="-54.17"/>
			<line class="st1" x1="7" y1="-64.34" x2="21.67" y2="-64.34"/>
			<line class="st1" x1="17.5" y1="-50.16" x2="2.83" y2="-50.16"/>
			<line class="st1" x1="21.5" y1="-48.16" x2="6.83" y2="-48.16"/>
			<line class="st1" x1="15.84" y1="-45.83" x2="1.17" y2="-45.83"/>
			<line class="st1" x1="0.67" y1="-34.49" x2="15.33" y2="-34.49"/>
			<line class="st1" x1="4" y1="-31.49" x2="18.67" y2="-31.49"/>
			<line class="st1" x1="6" y1="-35.83" x2="20.67" y2="-35.83"/>
			<line class="st1" x1="6" y1="-41.16" x2="20.67" y2="-41.16"/>
			<line class="st1" x1="8.67" y1="-38.49" x2="23.33" y2="-38.49"/>
			<line class="st1" x1="10.67" y1="-43.49" x2="25.33" y2="-43.49"/>
			<line class="st1" x1="9.33" y1="-76" x2="24" y2="-76"/>
			<line class="st1" x1="7.67" y1="-69.33" x2="22.33" y2="-69.33"/>
		</g>
		<g>
			<line class="st1" x1="71.33" y1="-95" x2="71.33" y2="-80.34"/>
			<line class="st1" x1="72.83" y1="-96.5" x2="72.83" y2="-81.84"/>
			<line class="st1" x1="78.17" y1="-91" x2="78.17" y2="-76.34"/>
			<line class="st1" x1="82.5" y1="-93.67" x2="82.5" y2="-79"/>
			<line class="st1" x1="32.17" y1="-96.17" x2="32.17" y2="-81.5"/>
			<line class="st1" x1="38.67" y1="-95.33" x2="38.67" y2="-80.67"/>
			<line class="st1" x1="46" y1="-95" x2="46" y2="-80.33"/>
			<line class="st1" x1="43.83" y1="-96.17" x2="43.83" y2="-81.5"/>
			<line class="st1" x1="50" y1="-97.33" x2="50" y2="-82.67"/>
			<line class="st1" x1="67.83" y1="-97.33" x2="67.83" y2="-82.67"/>
			<line class="st1" x1="60.83" y1="-89.33" x2="60.83" y2="-74.67"/>
			<line class="st1" x1="51.83" y1="-91.34" x2="51.83" y2="-76.67"/>
			<line class="st1" x1="25.83" y1="-90.17" x2="25.83" y2="-75.5"/>
			<line class="st1" x1="23.17" y1="-92.5" x2="23.17" y2="-77.83"/>
			<line class="st1" x1="76.17" y1="-86.67" x2="76.17" y2="-72"/>
			<line class="st1" x1="73.67" y1="-87.33" x2="73.67" y2="-72.67"/>
			<line class="st1" x1="50.33" y1="-86.67" x2="50.33" y2="-72"/>
			<line class="st1" x1="81.5" y1="-86.67" x2="81.5" y2="-72"/>
			<line class="st1" x1="56" y1="-88.5" x2="56" y2="-73.83"/>
			<line class="st1" x1="29.67" y1="-87.34" x2="29.67" y2="-72.67"/>
			<line class="st1" x1="14.67" y1="-87.5" x2="14.67" y2="-72.83"/>
			<line class="st1" x1="19.67" y1="-89.5" x2="19.67" y2="-74.83"/>
			<line class="st1" x1="47.67" y1="-86.67" x2="47.67" y2="-72"/>
			<line class="st1" x1="71.33" y1="-95" x2="71.33" y2="-80.34"/>
			<line class="st1" x1="46" y1="-95" x2="46" y2="-80.33"/>
		</g>
	</g>
</pattern>
<pattern  x="-45.9" y="-97.48" width="72" height="72" patternUnits="userSpaceOnUse" id="USGS_19_Land_Inundation" viewBox="73 -72 72 72" style="overflow:visible;">
	<g>
		<rect x="73" y="-72" class="st0" width="72" height="72"/>
		<g>
			<line class="st2" x1="144" y1="-1" x2="217.44" y2="-1"/>
			<line class="st2" x1="144" y1="-5" x2="217.44" y2="-5"/>
			<line class="st2" x1="144" y1="-9" x2="217.44" y2="-9"/>
			<line class="st2" x1="144" y1="-13" x2="217.44" y2="-13"/>
			<line class="st2" x1="144" y1="-17" x2="217.44" y2="-17"/>
			<line class="st2" x1="144" y1="-21" x2="217.44" y2="-21"/>
			<line class="st2" x1="144" y1="-25" x2="217.44" y2="-25"/>
			<line class="st2" x1="144" y1="-29" x2="217.44" y2="-29"/>
			<line class="st2" x1="144" y1="-33" x2="217.44" y2="-33"/>
			<line class="st2" x1="144" y1="-37" x2="217.44" y2="-37"/>
			<line class="st2" x1="144" y1="-41" x2="217.44" y2="-41"/>
			<line class="st2" x1="144" y1="-45" x2="217.44" y2="-45"/>
			<line class="st2" x1="144" y1="-49" x2="217.44" y2="-49"/>
			<line class="st2" x1="144" y1="-53" x2="217.44" y2="-53"/>
			<line class="st2" x1="144" y1="-57" x2="217.44" y2="-57"/>
			<line class="st2" x1="144" y1="-61" x2="217.44" y2="-61"/>
			<line class="st2" x1="144" y1="-65" x2="217.44" y2="-65"/>
			<line class="st2" x1="144" y1="-69" x2="217.44" y2="-69"/>
		</g>
		<g>
			<line class="st2" x1="72" y1="-1" x2="145.44" y2="-1"/>
			<line class="st2" x1="72" y1="-5" x2="145.44" y2="-5"/>
			<line class="st2" x1="72" y1="-9" x2="145.44" y2="-9"/>
			<line class="st2" x1="72" y1="-13" x2="145.44" y2="-13"/>
			<line class="st2" x1="72" y1="-17" x2="145.44" y2="-17"/>
			<line class="st2" x1="72" y1="-21" x2="145.44" y2="-21"/>
			<line class="st2" x1="72" y1="-25" x2="145.44" y2="-25"/>
			<line class="st2" x1="72" y1="-29" x2="145.44" y2="-29"/>
			<line class="st2" x1="72" y1="-33" x2="145.44" y2="-33"/>
			<line class="st2" x1="72" y1="-37" x2="145.44" y2="-37"/>
			<line class="st2" x1="72" y1="-41" x2="145.44" y2="-41"/>
			<line class="st2" x1="72" y1="-45" x2="145.44" y2="-45"/>
			<line class="st2" x1="72" y1="-49" x2="145.44" y2="-49"/>
			<line class="st2" x1="72" y1="-53" x2="145.44" y2="-53"/>
			<line class="st2" x1="72" y1="-57" x2="145.44" y2="-57"/>
			<line class="st2" x1="72" y1="-61" x2="145.44" y2="-61"/>
			<line class="st2" x1="72" y1="-65" x2="145.44" y2="-65"/>
			<line class="st2" x1="72" y1="-69" x2="145.44" y2="-69"/>
			<line class="st2" x1="74.04" y1="-3" x2="147.48" y2="-3"/>
			<line class="st2" x1="74.04" y1="-7" x2="147.48" y2="-7"/>
			<line class="st2" x1="74.04" y1="-11" x2="147.48" y2="-11"/>
			<line class="st2" x1="74.04" y1="-15" x2="147.48" y2="-15"/>
			<line class="st2" x1="74.04" y1="-19" x2="147.48" y2="-19"/>
			<line class="st2" x1="74.04" y1="-23" x2="147.48" y2="-23"/>
			<line class="st2" x1="74.04" y1="-27" x2="147.48" y2="-27"/>
			<line class="st2" x1="74.04" y1="-31" x2="147.48" y2="-31"/>
			<line class="st2" x1="74.04" y1="-35" x2="147.48" y2="-35"/>
			<line class="st2" x1="74.04" y1="-39" x2="147.48" y2="-39"/>
			<line class="st2" x1="74.04" y1="-43" x2="147.48" y2="-43"/>
			<line class="st2" x1="74.04" y1="-47" x2="147.48" y2="-47"/>
			<line class="st2" x1="74.04" y1="-51" x2="147.48" y2="-51"/>
			<line class="st2" x1="74.04" y1="-55" x2="147.48" y2="-55"/>
			<line class="st2" x1="74.04" y1="-59" x2="147.48" y2="-59"/>
			<line class="st2" x1="74.04" y1="-63" x2="147.48" y2="-63"/>
			<line class="st2" x1="74.04" y1="-67" x2="147.48" y2="-67"/>
			<line class="st2" x1="74.04" y1="-71" x2="147.48" y2="-71"/>
		</g>
		<g>
			<line class="st2" x1="0" y1="-1" x2="73.44" y2="-1"/>
			<line class="st2" x1="0" y1="-5" x2="73.44" y2="-5"/>
			<line class="st2" x1="0" y1="-9" x2="73.44" y2="-9"/>
			<line class="st2" x1="0" y1="-13" x2="73.44" y2="-13"/>
			<line class="st2" x1="0" y1="-17" x2="73.44" y2="-17"/>
			<line class="st2" x1="0" y1="-21" x2="73.44" y2="-21"/>
			<line class="st2" x1="0" y1="-25" x2="73.44" y2="-25"/>
			<line class="st2" x1="0" y1="-29" x2="73.44" y2="-29"/>
			<line class="st2" x1="0" y1="-33" x2="73.44" y2="-33"/>
			<line class="st2" x1="0" y1="-37" x2="73.44" y2="-37"/>
			<line class="st2" x1="0" y1="-41" x2="73.44" y2="-41"/>
			<line class="st2" x1="0" y1="-45" x2="73.44" y2="-45"/>
			<line class="st2" x1="0" y1="-49" x2="73.44" y2="-49"/>
			<line class="st2" x1="0" y1="-53" x2="73.44" y2="-53"/>
			<line class="st2" x1="0" y1="-57" x2="73.44" y2="-57"/>
			<line class="st2" x1="0" y1="-61" x2="73.44" y2="-61"/>
			<line class="st2" x1="0" y1="-65" x2="73.44" y2="-65"/>
			<line class="st2" x1="0" y1="-69" x2="73.44" y2="-69"/>
			<line class="st2" x1="2.04" y1="-3" x2="75.48" y2="-3"/>
			<line class="st2" x1="2.04" y1="-7" x2="75.48" y2="-7"/>
			<line class="st2" x1="2.04" y1="-11" x2="75.48" y2="-11"/>
			<line class="st2" x1="2.04" y1="-15" x2="75.48" y2="-15"/>
			<line class="st2" x1="2.04" y1="-19" x2="75.48" y2="-19"/>
			<line class="st2" x1="2.04" y1="-23" x2="75.48" y2="-23"/>
			<line class="st2" x1="2.04" y1="-27" x2="75.48" y2="-27"/>
			<line class="st2" x1="2.04" y1="-31" x2="75.48" y2="-31"/>
			<line class="st2" x1="2.04" y1="-35" x2="75.48" y2="-35"/>
			<line class="st2" x1="2.04" y1="-39" x2="75.48" y2="-39"/>
			<line class="st2" x1="2.04" y1="-43" x2="75.48" y2="-43"/>
			<line class="st2" x1="2.04" y1="-47" x2="75.48" y2="-47"/>
			<line class="st2" x1="2.04" y1="-51" x2="75.48" y2="-51"/>
			<line class="st2" x1="2.04" y1="-55" x2="75.48" y2="-55"/>
			<line class="st2" x1="2.04" y1="-59" x2="75.48" y2="-59"/>
			<line class="st2" x1="2.04" y1="-63" x2="75.48" y2="-63"/>
			<line class="st2" x1="2.04" y1="-67" x2="75.48" y2="-67"/>
			<line class="st2" x1="2.04" y1="-71" x2="75.48" y2="-71"/>
		</g>
	</g>
</pattern>
<pattern  x="-45.9" y="-97.48" width="72" height="72" patternUnits="userSpaceOnUse" id="USGS_22_Gravel_Beach" viewBox="0.35 -72 72 72" style="overflow:visible;">
	<g>
		<rect x="0.35" y="-72" class="st0" width="72" height="72"/>
		<g>
			<path d="M21.35-68.9c-0.09,0-0.18-0.04-0.25-0.1c-0.06-0.07-0.1-0.16-0.1-0.25s0.04-0.18,0.1-0.25c0.14-0.13,0.36-0.13,0.49,0
				c0.07,0.07,0.11,0.16,0.11,0.25s-0.04,0.18-0.1,0.25C21.53-68.94,21.44-68.9,21.35-68.9z"/>
			<path d="M20.35-63.65c-0.09,0-0.18-0.04-0.25-0.1C20.04-63.82,20-63.91,20-64c0-0.1,0.04-0.19,0.11-0.25
				c0.11-0.12,0.35-0.13,0.49,0c0.06,0.06,0.1,0.15,0.1,0.25c0,0.09-0.04,0.18-0.1,0.25C20.53-63.69,20.45-63.65,20.35-63.65z"/>
			<path d="M20.6-61.4c-0.09,0-0.18-0.04-0.25-0.1c-0.06-0.07-0.1-0.16-0.1-0.25s0.04-0.18,0.1-0.25c0.13-0.13,0.36-0.13,0.5,0
				c0.06,0.07,0.1,0.16,0.1,0.25s-0.04,0.18-0.1,0.25C20.78-61.44,20.69-61.4,20.6-61.4z"/>
			<path d="M15.6-61.4c-0.09,0-0.18-0.04-0.25-0.1c-0.06-0.07-0.1-0.16-0.1-0.25c0-0.1,0.04-0.18,0.1-0.25
				c0.12-0.12,0.36-0.13,0.5,0c0.06,0.07,0.1,0.16,0.1,0.25s-0.04,0.18-0.1,0.25C15.78-61.44,15.69-61.4,15.6-61.4z"/>
			<path d="M23.1-51.9c-0.09,0-0.18-0.04-0.25-0.1c-0.06-0.07-0.1-0.16-0.1-0.25s0.04-0.18,0.1-0.25c0.14-0.13,0.36-0.13,0.49,0
				c0.07,0.07,0.11,0.16,0.11,0.25s-0.04,0.18-0.1,0.25C23.28-51.94,23.19-51.9,23.1-51.9z"/>
			<path d="M15.6-48.9c-0.09,0-0.18-0.04-0.25-0.1c-0.06-0.07-0.1-0.16-0.1-0.25c0-0.1,0.04-0.19,0.11-0.25
				c0.11-0.12,0.35-0.13,0.49,0c0.06,0.06,0.1,0.15,0.1,0.25c0,0.09-0.04,0.18-0.1,0.25C15.78-48.94,15.69-48.9,15.6-48.9z"/>
			<path d="M14.35-47.9c-0.09,0-0.18-0.04-0.25-0.1c-0.06-0.07-0.1-0.16-0.1-0.25s0.04-0.18,0.1-0.25c0.14-0.13,0.36-0.13,0.49,0
				c0.07,0.07,0.11,0.16,0.11,0.25s-0.04,0.18-0.1,0.25C14.53-47.94,14.45-47.9,14.35-47.9z"/>
			<path d="M24.35-44.9c-0.09,0-0.18-0.04-0.25-0.1c-0.06-0.07-0.1-0.16-0.1-0.25c0-0.1,0.04-0.19,0.11-0.25
				c0.11-0.12,0.36-0.13,0.49,0c0.06,0.07,0.1,0.16,0.1,0.25s-0.04,0.18-0.1,0.24C24.53-44.94,24.44-44.9,24.35-44.9z"/>
			<path d="M31.1-46.15c-0.09,0-0.18-0.04-0.25-0.1c-0.06-0.07-0.1-0.16-0.1-0.25s0.04-0.18,0.1-0.25c0.14-0.13,0.36-0.13,0.49,0
				c0.07,0.07,0.11,0.16,0.11,0.25s-0.04,0.18-0.1,0.25C31.28-46.19,31.19-46.15,31.1-46.15z"/>
			<path d="M31.6-48.65c-0.09,0-0.18-0.04-0.25-0.1c-0.06-0.07-0.1-0.16-0.1-0.25c0-0.1,0.04-0.19,0.11-0.25
				c0.12-0.13,0.35-0.13,0.49,0c0.06,0.06,0.1,0.15,0.1,0.25c0,0.09-0.04,0.18-0.1,0.25C31.78-48.69,31.7-48.65,31.6-48.65z"/>
			<path d="M29.6-53.65c-0.09,0-0.18-0.04-0.25-0.1c-0.06-0.07-0.1-0.16-0.1-0.25s0.04-0.18,0.1-0.25c0.14-0.13,0.36-0.13,0.49,0
				c0.07,0.07,0.11,0.16,0.11,0.25s-0.04,0.18-0.1,0.25C29.78-53.69,29.69-53.65,29.6-53.65z"/>
			<path d="M34.35-52.15c-0.09,0-0.18-0.04-0.25-0.1c-0.06-0.07-0.1-0.16-0.1-0.25s0.04-0.18,0.1-0.25c0.14-0.13,0.36-0.13,0.49,0
				c0.07,0.07,0.11,0.16,0.11,0.25s-0.04,0.18-0.1,0.25C34.53-52.19,34.44-52.15,34.35-52.15z"/>
			<path d="M31.85-57.15c-0.09,0-0.18-0.04-0.25-0.1c-0.06-0.07-0.1-0.16-0.1-0.25s0.04-0.18,0.1-0.25c0.14-0.13,0.36-0.13,0.49,0
				c0.07,0.07,0.11,0.16,0.11,0.25s-0.04,0.18-0.1,0.25C32.03-57.19,31.94-57.15,31.85-57.15z"/>
			<path d="M32.1-60.15c-0.09,0-0.18-0.04-0.25-0.1c-0.06-0.07-0.1-0.16-0.1-0.25s0.04-0.18,0.1-0.25c0.14-0.13,0.36-0.13,0.5,0
				c0.06,0.07,0.1,0.16,0.1,0.25s-0.04,0.18-0.1,0.25C32.28-60.19,32.19-60.15,32.1-60.15z"/>
			<path d="M32.6-64.9c-0.09,0-0.18-0.04-0.25-0.1c-0.06-0.07-0.1-0.16-0.1-0.25s0.04-0.18,0.1-0.25c0.14-0.13,0.36-0.13,0.49,0
				c0.07,0.07,0.11,0.16,0.11,0.25s-0.04,0.18-0.1,0.25C32.78-64.94,32.69-64.9,32.6-64.9z"/>
			<path d="M32.35-68.9c-0.09,0-0.18-0.04-0.25-0.1c-0.06-0.07-0.1-0.16-0.1-0.25c0-0.1,0.04-0.19,0.11-0.25
				c0.12-0.13,0.35-0.13,0.49,0c0.06,0.06,0.1,0.15,0.1,0.25c0,0.09-0.04,0.18-0.1,0.25C32.53-68.94,32.44-68.9,32.35-68.9z"/>
			<path d="M34.35-70.65c-0.09,0-0.18-0.04-0.25-0.11C34.04-70.81,34-70.91,34-71c0-0.1,0.04-0.19,0.11-0.25
				c0.12-0.13,0.36-0.13,0.49,0c0.06,0.06,0.1,0.15,0.1,0.25c0,0.09-0.04,0.19-0.11,0.25C34.53-70.69,34.44-70.65,34.35-70.65z"/>
			<path d="M41.85-64.9c-0.09,0-0.18-0.04-0.25-0.1c-0.07-0.07-0.1-0.16-0.1-0.25s0.04-0.18,0.1-0.25c0.15-0.14,0.36-0.13,0.49,0
				c0.07,0.07,0.11,0.16,0.11,0.25s-0.04,0.18-0.1,0.25C42.03-64.94,41.94-64.9,41.85-64.9z"/>
			<path d="M45.85-65.15c-0.09,0-0.18-0.04-0.25-0.1c-0.06-0.07-0.1-0.15-0.1-0.25s0.04-0.18,0.1-0.25c0.14-0.13,0.36-0.13,0.49,0
				c0.07,0.07,0.11,0.16,0.11,0.25s-0.04,0.18-0.1,0.25C46.03-65.19,45.94-65.15,45.85-65.15z"/>
			<path d="M42.85-58.4c-0.09,0-0.18-0.04-0.25-0.1c-0.06-0.07-0.1-0.16-0.1-0.25c0-0.1,0.04-0.19,0.11-0.25
				c0.12-0.13,0.35-0.13,0.49,0c0.06,0.06,0.1,0.15,0.1,0.25c0,0.09-0.04,0.18-0.1,0.25C43.03-58.44,42.94-58.4,42.85-58.4z"/>
			<path d="M47.35-57.65c-0.09,0-0.18-0.04-0.25-0.1C47.04-57.82,47-57.91,47-58c0-0.1,0.04-0.19,0.11-0.25
				c0.12-0.13,0.35-0.13,0.49,0c0.06,0.07,0.1,0.16,0.1,0.25s-0.03,0.17-0.1,0.24C47.53-57.69,47.44-57.65,47.35-57.65z"/>
			<path d="M47.35-55.65c-0.09,0-0.18-0.04-0.25-0.1C47.04-55.82,47-55.91,47-56c0-0.1,0.04-0.19,0.11-0.25
				c0.12-0.13,0.36-0.13,0.49,0c0.06,0.07,0.1,0.16,0.1,0.25s-0.04,0.17-0.1,0.24C47.53-55.69,47.44-55.65,47.35-55.65z"/>
			<path d="M39.35-51.15c-0.09,0-0.18-0.04-0.25-0.1c-0.06-0.07-0.1-0.16-0.1-0.25s0.04-0.18,0.1-0.25c0.14-0.13,0.36-0.13,0.49,0
				c0.07,0.06,0.11,0.16,0.11,0.25s-0.04,0.18-0.1,0.25C39.53-51.19,39.44-51.15,39.35-51.15z"/>
			<path d="M50.6-58.4c-0.09,0-0.18-0.04-0.25-0.1c-0.07-0.07-0.1-0.16-0.1-0.25s0.03-0.18,0.1-0.25c0.14-0.13,0.37-0.13,0.5,0
				c0.06,0.07,0.1,0.16,0.1,0.25s-0.04,0.18-0.1,0.25C50.78-58.44,50.69-58.4,50.6-58.4z"/>
			<path d="M52.6-59.9c-0.09,0-0.18-0.04-0.25-0.11c-0.06-0.06-0.1-0.15-0.1-0.24c0-0.1,0.04-0.19,0.11-0.25
				c0.12-0.12,0.35-0.13,0.49,0c0.06,0.06,0.1,0.15,0.1,0.25c0,0.09-0.04,0.18-0.1,0.25C52.78-59.94,52.69-59.9,52.6-59.9z"/>
			<path d="M55.1-60.9c-0.09,0-0.18-0.04-0.25-0.11c-0.06-0.06-0.1-0.15-0.1-0.24c0-0.1,0.04-0.19,0.11-0.25
				c0.12-0.13,0.35-0.13,0.49,0c0.06,0.06,0.1,0.15,0.1,0.25c0,0.09-0.04,0.18-0.1,0.25C55.28-60.94,55.19-60.9,55.1-60.9z"/>
			<path d="M56.85-71.15c-0.09,0-0.18-0.04-0.25-0.1c-0.06-0.07-0.1-0.16-0.1-0.25s0.04-0.18,0.1-0.25c0.12-0.13,0.37-0.13,0.5,0.01
				c0.06,0.06,0.1,0.15,0.1,0.24s-0.04,0.18-0.1,0.25C57.03-71.19,56.94-71.15,56.85-71.15z"/>
			<path d="M68.35-68.9c-0.09,0-0.18-0.04-0.25-0.1c-0.06-0.07-0.1-0.16-0.1-0.25c0-0.1,0.04-0.19,0.11-0.25
				c0.11-0.12,0.35-0.13,0.49,0c0.06,0.06,0.1,0.15,0.1,0.25c0,0.09-0.04,0.18-0.1,0.25C68.53-68.94,68.45-68.9,68.35-68.9z"/>
			<path d="M68.35-61.65c-0.09,0-0.18-0.04-0.25-0.11C68.04-61.82,68-61.91,68-62s0.04-0.18,0.1-0.25c0.13-0.13,0.36-0.13,0.5,0
				c0.06,0.07,0.1,0.16,0.1,0.25c0,0.1-0.04,0.18-0.11,0.25C68.53-61.69,68.44-61.65,68.35-61.65z"/>
			<path d="M64.6-59.65c-0.09,0-0.18-0.04-0.25-0.1c-0.06-0.07-0.1-0.16-0.1-0.25s0.04-0.18,0.1-0.25c0.13-0.13,0.36-0.13,0.49,0
				c0.07,0.07,0.11,0.16,0.11,0.25s-0.04,0.18-0.1,0.25C64.78-59.69,64.69-59.65,64.6-59.65z"/>
			<path d="M65.6-56.15c-0.09,0-0.18-0.04-0.25-0.1c-0.06-0.07-0.1-0.16-0.1-0.25c0-0.1,0.04-0.18,0.1-0.25
				c0.12-0.12,0.37-0.13,0.5,0c0.06,0.07,0.1,0.16,0.1,0.25s-0.04,0.18-0.1,0.25C65.78-56.19,65.69-56.15,65.6-56.15z"/>
			<path d="M64.35-52.15c-0.09,0-0.18-0.04-0.25-0.11c-0.06-0.06-0.1-0.15-0.1-0.24s0.04-0.18,0.1-0.25c0.13-0.13,0.37-0.13,0.5,0
				c0.06,0.07,0.1,0.16,0.1,0.25c0,0.1-0.04,0.18-0.11,0.25C64.53-52.19,64.44-52.15,64.35-52.15z"/>
			<path d="M66.6-52.15c-0.09,0-0.18-0.04-0.25-0.1c-0.06-0.07-0.1-0.16-0.1-0.25c0-0.1,0.04-0.19,0.11-0.25
				c0.11-0.12,0.35-0.13,0.49,0c0.06,0.06,0.1,0.15,0.1,0.25c0,0.09-0.04,0.18-0.1,0.25C66.78-52.19,66.69-52.15,66.6-52.15z"/>
			<path d="M68.35-50.65c-0.09,0-0.18-0.04-0.25-0.1C68.04-50.82,68-50.91,68-51s0.04-0.18,0.1-0.25c0.13-0.13,0.36-0.13,0.5,0
				c0.06,0.07,0.1,0.16,0.1,0.25s-0.04,0.18-0.1,0.25C68.53-50.69,68.44-50.65,68.35-50.65z"/>
			<path d="M7.35-19.65c-0.09,0-0.18-0.04-0.25-0.1C7.04-19.82,7-19.91,7-20s0.04-0.18,0.1-0.25c0.12-0.12,0.36-0.13,0.5,0
				c0.06,0.07,0.1,0.16,0.1,0.25s-0.04,0.18-0.1,0.25C7.53-19.69,7.44-19.65,7.35-19.65z"/>
			<path d="M7.6-17.4c-0.09,0-0.18-0.04-0.25-0.1c-0.06-0.07-0.1-0.16-0.1-0.25s0.04-0.18,0.1-0.25c0.12-0.13,0.36-0.13,0.5,0
				c0.06,0.07,0.1,0.16,0.1,0.25s-0.04,0.18-0.1,0.25C7.78-17.44,7.69-17.4,7.6-17.4z"/>
			<path d="M2.6-17.4c-0.09,0-0.18-0.04-0.25-0.1c-0.06-0.07-0.1-0.16-0.1-0.25s0.04-0.18,0.1-0.25c0.12-0.12,0.36-0.13,0.5,0
				c0.06,0.07,0.1,0.16,0.1,0.25s-0.04,0.18-0.1,0.25C2.78-17.44,2.69-17.4,2.6-17.4z"/>
			<path d="M10.1-7.9c-0.09,0-0.18-0.04-0.25-0.1c-0.06-0.07-0.1-0.16-0.1-0.25s0.04-0.18,0.1-0.25c0.13-0.13,0.36-0.13,0.49,0
				c0.07,0.07,0.11,0.16,0.11,0.25S10.41-8.07,10.35-8C10.28-7.94,10.19-7.9,10.1-7.9z"/>
			<path d="M1.35-3.9C1.26-3.9,1.17-3.94,1.1-4C1.04-4.07,1-4.16,1-4.25S1.04-4.43,1.1-4.5c0.12-0.12,0.36-0.13,0.5,0
				c0.06,0.07,0.1,0.16,0.1,0.25S1.66-4.07,1.6-4C1.53-3.94,1.44-3.9,1.35-3.9z"/>
			<path d="M11.35-0.9c-0.09,0-0.18-0.04-0.25-0.1C11.04-1.07,11-1.16,11-1.25s0.04-0.18,0.1-0.25c0.12-0.12,0.37-0.13,0.5,0
				c0.06,0.07,0.1,0.16,0.1,0.25S11.66-1.07,11.6-1C11.53-0.94,11.44-0.9,11.35-0.9z"/>
			<path d="M18.6-4.65c-0.09,0-0.18-0.04-0.25-0.1c-0.06-0.07-0.1-0.16-0.1-0.25s0.04-0.19,0.1-0.25c0.12-0.12,0.36-0.13,0.49,0
				c0.07,0.07,0.11,0.16,0.11,0.25s-0.04,0.18-0.1,0.25C18.78-4.69,18.69-4.65,18.6-4.65z"/>
			<path d="M16.6-9.65c-0.09,0-0.18-0.04-0.25-0.1c-0.06-0.07-0.1-0.16-0.1-0.25c0-0.09,0.04-0.18,0.1-0.25
				c0.12-0.13,0.36-0.13,0.5,0c0.06,0.07,0.1,0.16,0.1,0.25c0,0.09-0.04,0.18-0.1,0.25C16.78-9.69,16.69-9.65,16.6-9.65z"/>
			<path d="M19.85-14.15c-0.09,0-0.18-0.04-0.25-0.1c-0.06-0.07-0.1-0.16-0.1-0.25c0-0.1,0.04-0.19,0.11-0.25
				c0.12-0.12,0.36-0.13,0.49,0c0.06,0.06,0.1,0.15,0.1,0.25c0,0.09-0.04,0.18-0.1,0.25C20.03-14.19,19.94-14.15,19.85-14.15z"/>
			<path d="M19.1-16.15c-0.09,0-0.18-0.04-0.25-0.1c-0.06-0.07-0.1-0.16-0.1-0.25c0-0.1,0.04-0.19,0.11-0.25
				c0.11-0.12,0.35-0.13,0.49,0c0.06,0.06,0.1,0.15,0.1,0.25c0,0.09-0.04,0.18-0.1,0.25C19.28-16.19,19.19-16.15,19.1-16.15z"/>
			<path d="M16.6-17.15c-0.09,0-0.18-0.04-0.25-0.1c-0.06-0.07-0.1-0.16-0.1-0.25c0-0.1,0.04-0.19,0.11-0.25
				c0.11-0.12,0.35-0.13,0.49,0c0.06,0.06,0.1,0.15,0.1,0.25c0,0.09-0.04,0.18-0.1,0.25C16.78-17.19,16.69-17.15,16.6-17.15z"/>
			<path d="M19.6-20.9c-0.09,0-0.18-0.04-0.25-0.1c-0.06-0.07-0.1-0.16-0.1-0.25c0-0.1,0.04-0.19,0.11-0.25
				c0.12-0.12,0.36-0.13,0.49,0c0.06,0.06,0.1,0.15,0.1,0.25c0,0.09-0.04,0.18-0.1,0.25C19.78-20.94,19.69-20.9,19.6-20.9z"/>
			<path d="M19.35-24.9c-0.09,0-0.18-0.04-0.25-0.1c-0.06-0.07-0.1-0.16-0.1-0.25s0.04-0.18,0.1-0.25c0.12-0.12,0.36-0.13,0.5,0
				c0.06,0.07,0.1,0.16,0.1,0.25s-0.04,0.18-0.1,0.25C19.53-24.94,19.44-24.9,19.35-24.9z"/>
			<path d="M16.6-24.65c-0.09,0-0.18-0.04-0.25-0.1c-0.06-0.07-0.1-0.16-0.1-0.25s0.04-0.18,0.1-0.25c0.12-0.13,0.36-0.13,0.5,0
				c0.06,0.07,0.1,0.16,0.1,0.25s-0.04,0.18-0.1,0.25C16.78-24.69,16.69-24.65,16.6-24.65z"/>
			<path d="M32.85-21.15c-0.09,0-0.18-0.04-0.25-0.1c-0.06-0.07-0.1-0.16-0.1-0.25c0-0.1,0.04-0.19,0.11-0.25
				c0.12-0.13,0.35-0.13,0.49,0c0.06,0.06,0.1,0.15,0.1,0.25c0,0.09-0.04,0.18-0.1,0.25C33.03-21.19,32.94-21.15,32.85-21.15z"/>
			<path d="M27.6-17.65c-0.09,0-0.18-0.04-0.25-0.1c-0.06-0.07-0.1-0.16-0.1-0.25s0.04-0.18,0.1-0.25c0.13-0.13,0.36-0.13,0.5,0
				c0.06,0.07,0.1,0.16,0.1,0.25s-0.04,0.18-0.1,0.25C27.78-17.69,27.69-17.65,27.6-17.65z"/>
			<path d="M32.35-16.15c-0.09,0-0.18-0.04-0.25-0.1c-0.06-0.07-0.1-0.16-0.1-0.25s0.04-0.18,0.1-0.25c0.13-0.13,0.36-0.13,0.5,0
				c0.06,0.07,0.1,0.16,0.1,0.25s-0.04,0.18-0.1,0.25C32.53-16.19,32.44-16.15,32.35-16.15z"/>
			<path d="M32.35-14.4c-0.09,0-0.18-0.04-0.24-0.1C32.04-14.57,32-14.66,32-14.75c0-0.1,0.04-0.19,0.1-0.25
				c0.13-0.13,0.36-0.13,0.5,0c0.06,0.06,0.1,0.15,0.1,0.25c0,0.09-0.04,0.18-0.1,0.25C32.53-14.44,32.44-14.4,32.35-14.4z"/>
			<path d="M34.35-13.65c-0.09,0-0.18-0.04-0.25-0.1C34.04-13.82,34-13.91,34-14s0.04-0.18,0.1-0.25c0.13-0.13,0.37-0.13,0.5,0
				c0.06,0.07,0.1,0.16,0.1,0.25s-0.04,0.18-0.1,0.25C34.53-13.69,34.44-13.65,34.35-13.65z"/>
			<path d="M26.35-7.15c-0.09,0-0.18-0.04-0.25-0.1C26.04-7.32,26-7.41,26-7.5s0.04-0.18,0.1-0.25c0.14-0.13,0.36-0.13,0.49,0
				c0.07,0.07,0.11,0.16,0.11,0.25s-0.04,0.18-0.1,0.25C26.53-7.19,26.44-7.15,26.35-7.15z"/>
			<path d="M36.35-15.65c-0.09,0-0.18-0.04-0.25-0.1C36.04-15.82,36-15.91,36-16s0.04-0.18,0.1-0.25c0.15-0.13,0.36-0.13,0.49,0
				c0.07,0.07,0.11,0.16,0.11,0.25s-0.04,0.18-0.1,0.25C36.53-15.69,36.44-15.65,36.35-15.65z"/>
			<path d="M39.6-15.9c-0.09,0-0.18-0.04-0.24-0.1c-0.07-0.07-0.11-0.16-0.11-0.25s0.04-0.18,0.1-0.25c0.14-0.13,0.36-0.13,0.5,0
				c0.06,0.07,0.1,0.16,0.1,0.25s-0.04,0.18-0.1,0.25C39.78-15.94,39.69-15.9,39.6-15.9z"/>
			<path d="M42.1-21.15c-0.09,0-0.18-0.04-0.25-0.1c-0.06-0.07-0.1-0.16-0.1-0.25s0.04-0.18,0.1-0.25c0.14-0.13,0.36-0.13,0.5,0
				c0.06,0.07,0.1,0.16,0.1,0.25s-0.04,0.18-0.1,0.25C42.28-21.19,42.19-21.15,42.1-21.15z"/>
			<path d="M43.85-27.15c-0.09,0-0.18-0.04-0.25-0.11c-0.06-0.06-0.1-0.15-0.1-0.24s0.04-0.18,0.1-0.25c0.13-0.13,0.36-0.13,0.5,0
				c0.06,0.07,0.1,0.16,0.1,0.25s-0.04,0.18-0.1,0.25C44.03-27.19,43.94-27.15,43.85-27.15z"/>
			<path d="M51.35-21.4c-0.09,0-0.18-0.04-0.25-0.1c-0.07-0.08-0.1-0.16-0.1-0.25s0.04-0.18,0.1-0.25c0.14-0.14,0.36-0.13,0.5,0
				c0.06,0.07,0.1,0.16,0.1,0.25s-0.04,0.18-0.1,0.25C51.53-21.44,51.44-21.4,51.35-21.4z"/>
			<path d="M52.35-25.4c-0.09,0-0.18-0.04-0.25-0.11c-0.06-0.06-0.1-0.15-0.1-0.24c0-0.1,0.04-0.19,0.11-0.25
				c0.11-0.12,0.35-0.13,0.49,0c0.06,0.06,0.1,0.15,0.1,0.25c0,0.09-0.04,0.18-0.1,0.25C52.53-25.44,52.44-25.4,52.35-25.4z"/>
			<path d="M55.35-24.9c-0.1,0-0.19-0.04-0.25-0.11c-0.06-0.06-0.1-0.15-0.1-0.24s0.04-0.19,0.1-0.25c0.13-0.13,0.36-0.13,0.49,0
				c0.07,0.07,0.11,0.15,0.11,0.25c0,0.09-0.04,0.18-0.1,0.25C55.53-24.94,55.44-24.9,55.35-24.9z"/>
			<path d="M55.35-17.65c-0.1,0-0.19-0.04-0.25-0.11C55.04-17.82,55-17.91,55-18c0-0.1,0.04-0.19,0.11-0.25
				c0.11-0.12,0.35-0.13,0.49,0c0.06,0.06,0.1,0.15,0.1,0.25c0,0.09-0.04,0.18-0.1,0.25C55.53-17.69,55.44-17.65,55.35-17.65z"/>
			<path d="M51.6-15.65c-0.09,0-0.18-0.04-0.25-0.1c-0.06-0.07-0.1-0.16-0.1-0.25s0.04-0.18,0.1-0.25c0.13-0.13,0.37-0.13,0.5,0
				c0.07,0.07,0.1,0.16,0.1,0.25s-0.04,0.18-0.1,0.25C51.78-15.69,51.7-15.65,51.6-15.65z"/>
			<path d="M51.35-8.15c-0.09,0-0.18-0.04-0.25-0.1C51.04-8.32,51-8.41,51-8.5s0.03-0.18,0.1-0.24c0.15-0.15,0.36-0.14,0.49-0.01
				c0.07,0.07,0.11,0.16,0.11,0.25s-0.04,0.18-0.1,0.25C51.53-8.19,51.45-8.15,51.35-8.15z"/>
			<path d="M53.6-8.15c-0.09,0-0.18-0.04-0.25-0.1c-0.06-0.07-0.1-0.16-0.1-0.25c0-0.1,0.04-0.19,0.11-0.25
				c0.11-0.12,0.36-0.13,0.49,0.01c0.06,0.05,0.1,0.14,0.1,0.24c0,0.09-0.04,0.18-0.1,0.25C53.78-8.19,53.69-8.15,53.6-8.15z"/>
			<path d="M56.35-8.9c-0.09,0-0.18-0.04-0.25-0.1C56.04-9.07,56-9.16,56-9.25s0.04-0.18,0.1-0.25c0.13-0.13,0.35-0.13,0.49,0
				c0.07,0.07,0.11,0.16,0.11,0.25S56.66-9.07,56.6-9C56.53-8.94,56.44-8.9,56.35-8.9z"/>
			<path d="M58.6-10.4c-0.09,0-0.18-0.04-0.25-0.11c-0.06-0.06-0.1-0.15-0.1-0.24s0.04-0.18,0.1-0.25c0.13-0.13,0.36-0.13,0.5,0
				c0.06,0.07,0.1,0.15,0.1,0.25c0,0.09-0.04,0.18-0.1,0.25C58.78-10.44,58.69-10.4,58.6-10.4z"/>
			<path d="M21.35-44.9c-0.09,0-0.18-0.04-0.25-0.1c-0.06-0.07-0.1-0.16-0.1-0.25s0.04-0.18,0.1-0.25c0.14-0.13,0.36-0.13,0.49,0
				c0.07,0.07,0.11,0.16,0.11,0.25s-0.04,0.18-0.1,0.25C21.53-44.94,21.44-44.9,21.35-44.9z"/>
			<path d="M23.1-47.9c-0.09,0-0.18-0.04-0.25-0.1c-0.06-0.07-0.1-0.16-0.1-0.25s0.04-0.18,0.1-0.25c0.14-0.13,0.36-0.13,0.5,0
				c0.06,0.07,0.1,0.16,0.1,0.25s-0.04,0.18-0.1,0.25C23.28-47.94,23.19-47.9,23.1-47.9z"/>
			<path d="M39.35-47.15c-0.09,0-0.18-0.04-0.25-0.1c-0.06-0.07-0.1-0.16-0.1-0.25s0.04-0.18,0.1-0.25c0.13-0.13,0.37-0.13,0.5,0
				c0.06,0.07,0.1,0.16,0.1,0.25s-0.04,0.18-0.1,0.25C39.53-47.19,39.44-47.15,39.35-47.15z"/>
			<path d="M46.6-42.9c-0.09,0-0.18-0.04-0.25-0.1c-0.07-0.07-0.1-0.16-0.1-0.25s0.04-0.18,0.1-0.24c0.15-0.15,0.36-0.14,0.49-0.01
				c0.07,0.07,0.11,0.16,0.11,0.25s-0.04,0.18-0.1,0.25C46.78-42.94,46.69-42.9,46.6-42.9z"/>
			<path d="M55.6-43.9c-0.09,0-0.18-0.04-0.25-0.1c-0.06-0.07-0.1-0.16-0.1-0.25s0.04-0.18,0.1-0.25c0.12-0.12,0.36-0.14,0.5,0
				c0.06,0.07,0.1,0.16,0.1,0.25s-0.04,0.18-0.1,0.25C55.78-43.94,55.69-43.9,55.6-43.9z"/>
			<path d="M51.6-46.65c-0.09,0-0.18-0.04-0.25-0.1c-0.06-0.07-0.1-0.16-0.1-0.25s0.04-0.18,0.1-0.25c0.13-0.13,0.37-0.13,0.5,0
				c0.07,0.07,0.1,0.16,0.1,0.25s-0.04,0.18-0.1,0.25C51.78-46.69,51.69-46.65,51.6-46.65z"/>
			<path d="M52.35-42.4c-0.1,0-0.18-0.04-0.25-0.1c-0.06-0.07-0.1-0.16-0.1-0.25s0.04-0.18,0.1-0.25c0.14-0.13,0.36-0.13,0.49,0
				c0.07,0.07,0.11,0.16,0.11,0.25s-0.04,0.18-0.1,0.25C52.53-42.44,52.44-42.4,52.35-42.4z"/>
			<path d="M62.85-36.4c-0.09,0-0.18-0.04-0.25-0.1c-0.06-0.07-0.1-0.16-0.1-0.25c0-0.1,0.04-0.19,0.11-0.25
				c0.11-0.12,0.36-0.13,0.49,0.01c0.06,0.05,0.1,0.14,0.1,0.24c0,0.09-0.04,0.18-0.1,0.25C63.03-36.44,62.94-36.4,62.85-36.4z"/>
			<path d="M57.1-32.9c-0.09,0-0.18-0.04-0.25-0.1c-0.06-0.07-0.1-0.16-0.1-0.25s0.04-0.18,0.1-0.25c0.13-0.13,0.36-0.13,0.49,0
				c0.07,0.07,0.11,0.16,0.11,0.25s-0.04,0.18-0.1,0.25C57.28-32.94,57.19-32.9,57.1-32.9z"/>
			<path d="M48.6-34.65c-0.09,0-0.18-0.04-0.24-0.1c-0.07-0.07-0.11-0.16-0.11-0.25s0.04-0.18,0.1-0.25
				c0.12-0.13,0.37-0.13,0.5,0.01c0.06,0.06,0.1,0.14,0.1,0.24c0,0.09-0.04,0.18-0.1,0.25C48.78-34.69,48.69-34.65,48.6-34.65z"/>
			<path d="M48.35-30.65c-0.1,0-0.19-0.04-0.25-0.11C48.04-30.82,48-30.91,48-31s0.04-0.18,0.1-0.25c0.12-0.12,0.36-0.13,0.5,0
				c0.06,0.07,0.1,0.16,0.1,0.25s-0.04,0.18-0.1,0.25C48.53-30.69,48.44-30.65,48.35-30.65z"/>
			<path d="M53.85-26.9c-0.09,0-0.19-0.04-0.25-0.11c-0.06-0.05-0.1-0.14-0.1-0.24s0.04-0.18,0.11-0.25c0.11-0.12,0.35-0.13,0.49,0
				c0.06,0.07,0.1,0.16,0.1,0.25s-0.04,0.18-0.1,0.25C54.03-26.94,53.94-26.9,53.85-26.9z"/>
			<path d="M62.6-23.9c-0.09,0-0.18-0.04-0.25-0.1c-0.06-0.07-0.1-0.16-0.1-0.25c0-0.1,0.04-0.19,0.11-0.25
				c0.11-0.12,0.36-0.13,0.49,0.01c0.06,0.05,0.1,0.14,0.1,0.24c0,0.09-0.04,0.18-0.1,0.25C62.78-23.94,62.69-23.9,62.6-23.9z"/>
			<path d="M65.35-20.15c-0.09,0-0.18-0.04-0.25-0.1c-0.06-0.07-0.1-0.16-0.1-0.25c0-0.1,0.04-0.19,0.11-0.25
				c0.11-0.12,0.35-0.13,0.49,0c0.06,0.06,0.1,0.15,0.1,0.25c0,0.09-0.04,0.18-0.1,0.25C65.53-20.19,65.44-20.15,65.35-20.15z"/>
			<path d="M69.85-26.9c-0.09,0-0.18-0.04-0.25-0.1c-0.06-0.07-0.1-0.16-0.1-0.25s0.04-0.18,0.1-0.25c0.12-0.13,0.36-0.13,0.5,0
				c0.06,0.07,0.1,0.16,0.1,0.25s-0.04,0.18-0.1,0.25C70.03-26.94,69.94-26.9,69.85-26.9z"/>
			<path d="M60.35-32.9c-0.1,0-0.19-0.04-0.25-0.11c-0.06-0.06-0.1-0.15-0.1-0.24s0.04-0.19,0.11-0.25c0.12-0.13,0.35-0.13,0.49,0
				c0.06,0.07,0.1,0.16,0.1,0.25s-0.04,0.18-0.1,0.25C60.53-32.94,60.45-32.9,60.35-32.9z"/>
			<path d="M32.85-24.9c-0.09,0-0.18-0.04-0.25-0.1c-0.06-0.07-0.1-0.16-0.1-0.25s0.04-0.18,0.1-0.25c0.14-0.13,0.36-0.13,0.49,0
				c0.07,0.07,0.11,0.16,0.11,0.25s-0.04,0.18-0.1,0.25C33.03-24.94,32.94-24.9,32.85-24.9z"/>
			<path d="M26.6-34.15c-0.09,0-0.18-0.04-0.25-0.1c-0.06-0.07-0.1-0.16-0.1-0.25s0.04-0.18,0.1-0.25c0.14-0.13,0.36-0.13,0.49,0
				c0.07,0.07,0.11,0.16,0.11,0.25s-0.04,0.18-0.1,0.25C26.78-34.19,26.69-34.15,26.6-34.15z"/>
			<path d="M30.1-36.4c-0.09,0-0.18-0.04-0.24-0.1c-0.07-0.07-0.11-0.16-0.11-0.25c0-0.1,0.04-0.19,0.11-0.25
				c0.12-0.12,0.36-0.13,0.49,0c0.06,0.06,0.1,0.15,0.1,0.25c0,0.09-0.04,0.18-0.1,0.25C30.28-36.44,30.19-36.4,30.1-36.4z"/>
			<path d="M10.85-42.4c-0.09,0-0.18-0.04-0.25-0.1c-0.06-0.07-0.1-0.16-0.1-0.25s0.04-0.18,0.1-0.25c0.13-0.12,0.36-0.13,0.49,0
				c0.07,0.06,0.11,0.15,0.11,0.25c0,0.09-0.04,0.18-0.1,0.25C11.03-42.44,10.94-42.4,10.85-42.4z"/>
			<path d="M6.35-40.4c-0.09,0-0.18-0.04-0.25-0.1C6.04-40.57,6-40.66,6-40.75S6.04-40.93,6.1-41c0.13-0.13,0.36-0.13,0.49,0
				c0.07,0.06,0.11,0.15,0.11,0.25s-0.04,0.18-0.1,0.25C6.53-40.44,6.44-40.4,6.35-40.4z"/>
			<path d="M2.85-36.65c-0.09,0-0.18-0.04-0.25-0.1C2.54-36.82,2.5-36.91,2.5-37s0.04-0.18,0.1-0.25c0.12-0.13,0.37-0.13,0.5,0
				c0.07,0.07,0.1,0.16,0.1,0.25s-0.03,0.17-0.1,0.24C3.03-36.69,2.94-36.65,2.85-36.65z"/>
			<path d="M17.35-29.9c-0.09,0-0.18-0.04-0.25-0.1c-0.06-0.07-0.1-0.16-0.1-0.25c0-0.1,0.04-0.19,0.11-0.25
				c0.13-0.13,0.36-0.13,0.49,0c0.06,0.06,0.1,0.15,0.1,0.25c0,0.09-0.04,0.18-0.1,0.25C17.53-29.94,17.45-29.9,17.35-29.9z"/>
			<path d="M13.1-35.9c-0.09,0-0.18-0.04-0.25-0.1c-0.06-0.07-0.1-0.16-0.1-0.25c0-0.1,0.04-0.19,0.11-0.25
				c0.11-0.12,0.35-0.13,0.49,0c0.06,0.06,0.1,0.15,0.1,0.25c0,0.09-0.04,0.18-0.1,0.25C13.28-35.94,13.2-35.9,13.1-35.9z"/>
			<path d="M26.85-41.65c-0.09,0-0.18-0.04-0.25-0.1c-0.06-0.07-0.1-0.16-0.1-0.25s0.04-0.18,0.1-0.25c0.13-0.13,0.37-0.13,0.5,0
				c0.06,0.07,0.1,0.16,0.1,0.25s-0.04,0.18-0.1,0.25C27.03-41.69,26.94-41.65,26.85-41.65z"/>
			<path d="M39.6-41.15c-0.09,0-0.18-0.04-0.25-0.1c-0.06-0.07-0.1-0.16-0.1-0.25s0.04-0.18,0.1-0.25c0.13-0.13,0.36-0.13,0.5,0
				c0.06,0.07,0.1,0.16,0.1,0.25s-0.04,0.18-0.1,0.25C39.78-41.19,39.7-41.15,39.6-41.15z"/>
			<path d="M38.6-39.15c-0.09,0-0.18-0.04-0.25-0.1c-0.06-0.07-0.1-0.16-0.1-0.25s0.04-0.18,0.1-0.25c0.13-0.13,0.37-0.13,0.5,0
				c0.06,0.07,0.1,0.16,0.1,0.25s-0.04,0.18-0.1,0.25C38.78-39.19,38.69-39.15,38.6-39.15z"/>
			<path d="M28.35-29.9c-0.09,0-0.18-0.04-0.25-0.1c-0.06-0.07-0.1-0.16-0.1-0.25s0.04-0.18,0.1-0.25c0.13-0.13,0.37-0.13,0.5,0
				c0.06,0.07,0.1,0.16,0.1,0.25s-0.04,0.18-0.1,0.25C28.53-29.94,28.44-29.9,28.35-29.9z"/>
			<path d="M6.85-51.4c-0.09,0-0.18-0.04-0.25-0.1c-0.06-0.07-0.1-0.16-0.1-0.25S6.54-51.93,6.6-52c0.12-0.13,0.36-0.13,0.5,0
				c0.06,0.07,0.1,0.16,0.1,0.25s-0.04,0.18-0.1,0.25C7.03-51.44,6.94-51.4,6.85-51.4z"/>
			<path d="M10.1-53.15c-0.09,0-0.18-0.04-0.25-0.1c-0.06-0.07-0.1-0.16-0.1-0.25s0.04-0.18,0.1-0.25c0.13-0.13,0.36-0.13,0.49,0
				c0.07,0.07,0.11,0.16,0.11,0.25s-0.04,0.18-0.1,0.25C10.28-53.19,10.19-53.15,10.1-53.15z"/>
			<path d="M12.1-48.4c-0.09,0-0.18-0.04-0.25-0.1c-0.06-0.07-0.1-0.16-0.1-0.25c0-0.1,0.04-0.19,0.11-0.25
				c0.11-0.12,0.35-0.13,0.49,0c0.06,0.06,0.1,0.15,0.1,0.25c0,0.09-0.04,0.18-0.1,0.25C12.28-48.44,12.2-48.4,12.1-48.4z"/>
			<path d="M3.35-46.15c-0.09,0-0.18-0.04-0.25-0.1C3.04-46.32,3-46.41,3-46.5s0.04-0.18,0.1-0.25c0.12-0.12,0.37-0.13,0.5,0
				c0.06,0.07,0.1,0.16,0.1,0.25s-0.04,0.18-0.1,0.25C3.53-46.19,3.44-46.15,3.35-46.15z"/>
			<path d="M64.6-42.4c-0.09,0-0.18-0.04-0.24-0.1c-0.07-0.07-0.11-0.16-0.11-0.25s0.04-0.18,0.1-0.25c0.13-0.13,0.36-0.13,0.49,0
				c0.07,0.07,0.11,0.16,0.11,0.25s-0.04,0.18-0.1,0.25C64.78-42.44,64.69-42.4,64.6-42.4z"/>
			<path d="M69.85-42.15c-0.09,0-0.18-0.04-0.25-0.1c-0.06-0.07-0.1-0.16-0.1-0.25s0.04-0.19,0.11-0.25c0.11-0.12,0.35-0.13,0.49,0
				c0.06,0.06,0.1,0.15,0.1,0.25c0,0.09-0.04,0.18-0.1,0.25C70.03-42.19,69.95-42.15,69.85-42.15z"/>
			<path d="M1.85-62.9c-0.09,0-0.18-0.04-0.25-0.1c-0.06-0.07-0.1-0.16-0.1-0.25s0.04-0.18,0.1-0.25c0.12-0.12,0.37-0.13,0.5,0
				c0.06,0.07,0.1,0.16,0.1,0.25S2.16-63.07,2.1-63C2.03-62.94,1.94-62.9,1.85-62.9z"/>
			<path d="M16.85-65.9c-0.09,0-0.18-0.04-0.25-0.1c-0.06-0.07-0.1-0.16-0.1-0.25c0-0.1,0.04-0.18,0.1-0.25
				c0.12-0.12,0.36-0.13,0.5,0c0.06,0.07,0.1,0.16,0.1,0.25s-0.04,0.18-0.1,0.25C17.03-65.94,16.94-65.9,16.85-65.9z"/>
			<path d="M4.1-65.9c-0.09,0-0.18-0.04-0.25-0.1c-0.06-0.07-0.1-0.16-0.1-0.25s0.04-0.18,0.1-0.25c0.13-0.13,0.36-0.13,0.49,0
				c0.07,0.07,0.11,0.16,0.11,0.25S4.41-66.07,4.35-66C4.28-65.94,4.19-65.9,4.1-65.9z"/>
			<path d="M13.1-57.65c-0.09,0-0.18-0.04-0.25-0.1c-0.06-0.07-0.1-0.16-0.1-0.25s0.04-0.18,0.1-0.25c0.13-0.13,0.36-0.13,0.49,0
				c0.07,0.07,0.11,0.16,0.11,0.25s-0.04,0.18-0.1,0.25C13.28-57.69,13.19-57.65,13.1-57.65z"/>
			<path d="M18.85-52.65c-0.09,0-0.18-0.04-0.25-0.1c-0.06-0.07-0.1-0.16-0.1-0.25s0.04-0.19,0.1-0.25c0.13-0.13,0.36-0.13,0.49,0
				c0.07,0.07,0.11,0.16,0.11,0.25s-0.04,0.18-0.1,0.25C19.03-52.69,18.94-52.65,18.85-52.65z"/>
			<path d="M21.6-34.9c-0.09,0-0.18-0.04-0.25-0.1c-0.06-0.07-0.1-0.16-0.1-0.25s0.04-0.19,0.1-0.25c0.12-0.12,0.36-0.13,0.49,0
				c0.07,0.07,0.11,0.16,0.11,0.25s-0.04,0.18-0.1,0.25C21.78-34.94,21.69-34.9,21.6-34.9z"/>
			<path d="M1.1-27.65c-0.09,0-0.18-0.04-0.25-0.1c-0.06-0.07-0.1-0.16-0.1-0.25c0-0.1,0.04-0.19,0.11-0.25
				c0.11-0.12,0.35-0.13,0.49,0c0.06,0.06,0.1,0.15,0.1,0.25c0,0.09-0.04,0.18-0.1,0.25C1.28-27.69,1.19-27.65,1.1-27.65z"/>
			<path d="M68.35-5.9c-0.09,0-0.18-0.04-0.25-0.1C68.04-6.07,68-6.16,68-6.25c0-0.1,0.04-0.19,0.11-0.25
				c0.11-0.12,0.35-0.13,0.49,0c0.06,0.06,0.1,0.15,0.1,0.25c0,0.09-0.04,0.18-0.1,0.25C68.53-5.94,68.44-5.9,68.35-5.9z"/>
			<path d="M60.1-2.15c-0.09,0-0.18-0.04-0.25-0.1c-0.07-0.07-0.1-0.16-0.1-0.25s0.04-0.18,0.1-0.25c0.14-0.13,0.36-0.13,0.5,0
				c0.06,0.06,0.1,0.15,0.1,0.25s-0.04,0.18-0.1,0.25C60.28-2.19,60.19-2.15,60.1-2.15z"/>
			<path d="M40.85-3.9c-0.09,0-0.18-0.04-0.25-0.1c-0.06-0.07-0.1-0.16-0.1-0.25s0.04-0.18,0.1-0.25c0.13-0.13,0.37-0.13,0.5,0
				c0.06,0.07,0.1,0.16,0.1,0.25S41.16-4.07,41.1-4C41.03-3.94,40.95-3.9,40.85-3.9z"/>
			<path d="M4.85-11.9c-0.09,0-0.18-0.04-0.25-0.1c-0.06-0.07-0.1-0.16-0.1-0.25s0.04-0.18,0.1-0.25c0.13-0.13,0.36-0.13,0.49,0
				c0.07,0.07,0.11,0.16,0.11,0.25S5.16-12.07,5.1-12C5.03-11.94,4.94-11.9,4.85-11.9z"/>
			<path d="M26.85-12.4c-0.09,0-0.18-0.04-0.25-0.1c-0.06-0.07-0.1-0.16-0.1-0.25s0.04-0.18,0.1-0.25c0.14-0.13,0.36-0.13,0.49,0
				c0.07,0.07,0.11,0.16,0.11,0.25s-0.04,0.18-0.1,0.25C27.03-12.44,26.94-12.4,26.85-12.4z"/>
			<path d="M37.6-23.4c-0.09,0-0.18-0.04-0.25-0.1c-0.06-0.07-0.1-0.16-0.1-0.25c0-0.1,0.04-0.18,0.1-0.25
				c0.14-0.13,0.36-0.13,0.5,0c0.06,0.07,0.1,0.16,0.1,0.25s-0.04,0.18-0.1,0.25C37.78-23.44,37.7-23.4,37.6-23.4z"/>
			<path d="M9.1-31.65c-0.09,0-0.18-0.04-0.25-0.1c-0.06-0.07-0.1-0.16-0.1-0.25c0-0.09,0.04-0.18,0.1-0.25
				c0.13-0.13,0.35-0.13,0.49,0c0.07,0.07,0.11,0.16,0.11,0.25c0,0.09-0.04,0.18-0.1,0.25C9.28-31.69,9.19-31.65,9.1-31.65z"/>
			<path d="M52.6-33.9c-0.09,0-0.18-0.04-0.25-0.11c-0.06-0.06-0.1-0.15-0.1-0.24c0-0.1,0.04-0.19,0.11-0.25
				c0.11-0.12,0.35-0.13,0.49,0c0.06,0.06,0.1,0.15,0.1,0.25c0,0.09-0.04,0.18-0.1,0.25C52.78-33.94,52.69-33.9,52.6-33.9z"/>
			<path d="M61.1-25.9c-0.09,0-0.18-0.04-0.25-0.1c-0.06-0.07-0.1-0.16-0.1-0.25c0-0.1,0.04-0.19,0.11-0.25
				c0.11-0.12,0.35-0.13,0.49,0c0.06,0.06,0.1,0.15,0.1,0.25c0,0.09-0.04,0.18-0.1,0.25C61.28-25.94,61.19-25.9,61.1-25.9z"/>
			<path d="M51.6-5.65c-0.09,0-0.18-0.04-0.25-0.1c-0.06-0.07-0.1-0.16-0.1-0.25s0.04-0.18,0.1-0.25c0.14-0.13,0.36-0.13,0.5,0
				c0.06,0.07,0.1,0.16,0.1,0.25s-0.03,0.18-0.1,0.25C51.78-5.69,51.69-5.65,51.6-5.65z"/>
			<path d="M40.35-34.15c-0.09,0-0.18-0.04-0.25-0.1c-0.06-0.07-0.1-0.16-0.1-0.25s0.04-0.18,0.1-0.25c0.15-0.13,0.36-0.13,0.49,0
				c0.07,0.07,0.11,0.16,0.11,0.25s-0.04,0.18-0.1,0.25C40.53-34.19,40.44-34.15,40.35-34.15z"/>
			<path d="M27.85-58.4c-0.09,0-0.18-0.04-0.25-0.1c-0.06-0.07-0.1-0.16-0.1-0.25s0.04-0.18,0.1-0.25c0.14-0.13,0.36-0.13,0.49,0
				c0.07,0.07,0.11,0.16,0.11,0.25s-0.04,0.18-0.1,0.25C28.03-58.44,27.94-58.4,27.85-58.4z"/>
			<path d="M20.1-45.4c-0.09,0-0.18-0.04-0.25-0.1c-0.06-0.07-0.1-0.16-0.1-0.25s0.04-0.19,0.1-0.25c0.12-0.12,0.36-0.13,0.49,0
				c0.07,0.07,0.11,0.16,0.11,0.25s-0.04,0.18-0.1,0.25C20.28-45.44,20.19-45.4,20.1-45.4z"/>
			<path d="M12.1-70.15c-0.09,0-0.18-0.04-0.25-0.1c-0.06-0.07-0.1-0.16-0.1-0.25s0.04-0.18,0.1-0.25c0.12-0.12,0.36-0.13,0.5,0
				c0.06,0.07,0.1,0.16,0.1,0.25s-0.04,0.18-0.1,0.25C12.28-70.19,12.19-70.15,12.1-70.15z"/>
			<path d="M55.6-68.15c-0.09,0-0.18-0.04-0.25-0.1c-0.06-0.07-0.1-0.16-0.1-0.25c0-0.1,0.04-0.19,0.11-0.25
				c0.11-0.12,0.35-0.13,0.49,0c0.06,0.06,0.1,0.15,0.1,0.25c0,0.09-0.04,0.18-0.1,0.25C55.78-68.19,55.69-68.15,55.6-68.15z"/>
			<path d="M47.6-2.15c-0.09,0-0.18-0.04-0.25-0.1c-0.06-0.07-0.1-0.15-0.1-0.25c0-0.09,0.04-0.18,0.1-0.25
				c0.14-0.13,0.36-0.13,0.49,0c0.07,0.07,0.11,0.16,0.11,0.25s-0.04,0.18-0.1,0.25C47.78-2.19,47.69-2.15,47.6-2.15z"/>
			<path d="M5.1-31.65c-0.09,0-0.18-0.04-0.25-0.1c-0.06-0.07-0.1-0.16-0.1-0.25c0-0.1,0.04-0.19,0.11-0.25
				c0.11-0.12,0.35-0.13,0.49,0c0.06,0.06,0.1,0.15,0.1,0.25c0,0.09-0.04,0.18-0.1,0.25C5.28-31.69,5.19-31.65,5.1-31.65z"/>
			<path d="M69.1-58.65c-0.09,0-0.18-0.04-0.25-0.1c-0.06-0.07-0.1-0.16-0.1-0.25s0.04-0.18,0.1-0.25c0.13-0.13,0.36-0.13,0.5,0
				c0.06,0.07,0.1,0.15,0.1,0.25s-0.04,0.18-0.1,0.25C69.28-58.69,69.19-58.65,69.1-58.65z"/>
			<path d="M23.6-57.9c-0.09,0-0.18-0.04-0.25-0.1c-0.06-0.07-0.1-0.16-0.1-0.25s0.04-0.18,0.1-0.25c0.14-0.13,0.36-0.13,0.49,0
				c0.07,0.07,0.11,0.16,0.11,0.25s-0.04,0.18-0.1,0.25C23.78-57.94,23.69-57.9,23.6-57.9z"/>
			<path d="M20.85-54.65c-0.09,0-0.18-0.04-0.25-0.1c-0.06-0.07-0.1-0.16-0.1-0.25s0.04-0.18,0.1-0.25c0.14-0.13,0.36-0.13,0.5,0
				c0.06,0.07,0.1,0.16,0.1,0.25s-0.04,0.18-0.1,0.25C21.03-54.69,20.94-54.65,20.85-54.65z"/>
			<path d="M15.1-54.65c-0.09,0-0.18-0.04-0.25-0.1c-0.06-0.07-0.1-0.16-0.1-0.25c0-0.1,0.04-0.19,0.11-0.25
				c0.11-0.12,0.35-0.13,0.49,0c0.06,0.06,0.1,0.15,0.1,0.25c0,0.09-0.04,0.18-0.1,0.25C15.28-54.69,15.19-54.65,15.1-54.65z"/>
			<path d="M6.35-60.15c-0.09,0-0.18-0.04-0.25-0.1C6.04-60.32,6-60.41,6-60.5s0.04-0.18,0.1-0.25c0.13-0.13,0.36-0.13,0.49,0
				C6.66-60.69,6.7-60.6,6.7-60.5c0,0.09-0.04,0.18-0.1,0.25C6.53-60.19,6.44-60.15,6.35-60.15z"/>
			<path d="M7.35-69.15c-0.09,0-0.17-0.04-0.24-0.1C7.04-69.32,7-69.41,7-69.5s0.04-0.18,0.1-0.25c0.13-0.13,0.36-0.13,0.49,0
				c0.07,0.07,0.11,0.16,0.11,0.25s-0.04,0.18-0.1,0.25C7.53-69.19,7.44-69.15,7.35-69.15z"/>
			<path d="M10.35-63.65c-0.09,0-0.18-0.04-0.25-0.1C10.04-63.82,10-63.91,10-64c0-0.09,0.04-0.18,0.1-0.25
				c0.13-0.13,0.36-0.13,0.49,0c0.07,0.07,0.11,0.16,0.11,0.25c0,0.09-0.04,0.18-0.1,0.25C10.53-63.69,10.44-63.65,10.35-63.65z"/>
			<path d="M14.6-63.65c-0.09,0-0.18-0.04-0.25-0.1c-0.06-0.07-0.1-0.16-0.1-0.25c0-0.1,0.04-0.19,0.11-0.25
				c0.11-0.12,0.35-0.13,0.49,0c0.06,0.06,0.1,0.15,0.1,0.25c0,0.09-0.04,0.18-0.1,0.25C14.78-63.69,14.69-63.65,14.6-63.65z"/>
			<path d="M26.1-64.9c-0.09,0-0.18-0.04-0.25-0.1c-0.06-0.07-0.1-0.16-0.1-0.25s0.04-0.18,0.1-0.25c0.14-0.13,0.36-0.13,0.49,0
				c0.07,0.07,0.11,0.16,0.11,0.25s-0.04,0.18-0.1,0.25C26.28-64.94,26.19-64.9,26.1-64.9z"/>
			<path d="M37.35-64.4c-0.09,0-0.18-0.04-0.25-0.1c-0.06-0.07-0.1-0.16-0.1-0.25s0.04-0.18,0.1-0.25c0.13-0.13,0.36-0.13,0.5,0
				c0.06,0.07,0.1,0.16,0.1,0.25s-0.04,0.18-0.1,0.25C37.53-64.44,37.44-64.4,37.35-64.4z"/>
			<path d="M37.85-67.65c-0.09,0-0.18-0.04-0.25-0.1c-0.06-0.07-0.1-0.16-0.1-0.25c0-0.1,0.04-0.19,0.11-0.25
				c0.12-0.13,0.36-0.13,0.49,0c0.06,0.06,0.1,0.15,0.1,0.25c0,0.09-0.04,0.18-0.1,0.25C38.03-67.69,37.94-67.65,37.85-67.65z"/>
			<path d="M43.6-69.65c-0.09,0-0.18-0.04-0.25-0.1c-0.06-0.07-0.1-0.16-0.1-0.25s0.04-0.18,0.1-0.25c0.13-0.13,0.36-0.13,0.5,0
				c0.06,0.07,0.1,0.16,0.1,0.25s-0.04,0.18-0.1,0.25C43.77-69.69,43.69-69.65,43.6-69.65z"/>
			<path d="M49.85-63.65c-0.09,0-0.18-0.04-0.25-0.1c-0.07-0.07-0.1-0.16-0.1-0.25c0-0.09,0.03-0.18,0.1-0.25
				c0.14-0.13,0.37-0.13,0.5,0c0.06,0.07,0.1,0.16,0.1,0.25c0,0.09-0.04,0.18-0.1,0.25C50.03-63.69,49.94-63.65,49.85-63.65z"/>
			<path d="M46.35-62.65c-0.09,0-0.18-0.04-0.25-0.1C46.04-62.82,46-62.91,46-63s0.04-0.18,0.1-0.25c0.14-0.13,0.36-0.13,0.5,0
				c0.06,0.07,0.1,0.16,0.1,0.25s-0.04,0.18-0.1,0.25C46.53-62.69,46.45-62.65,46.35-62.65z"/>
			<path d="M36.1-60.9c-0.09,0-0.18-0.04-0.25-0.1c-0.06-0.07-0.1-0.16-0.1-0.25c0-0.1,0.04-0.18,0.1-0.25
				c0.14-0.13,0.36-0.13,0.49,0c0.07,0.07,0.11,0.16,0.11,0.25s-0.04,0.18-0.1,0.25C36.28-60.94,36.19-60.9,36.1-60.9z"/>
			<path d="M39.6-56.9c-0.09,0-0.18-0.04-0.25-0.1c-0.06-0.07-0.1-0.16-0.1-0.25s0.04-0.18,0.1-0.25c0.14-0.13,0.36-0.13,0.49,0
				c0.07,0.07,0.11,0.16,0.11,0.25s-0.04,0.18-0.1,0.25C39.78-56.94,39.69-56.9,39.6-56.9z"/>
			<path d="M25.1-53.9c-0.09,0-0.18-0.04-0.25-0.1c-0.06-0.07-0.1-0.16-0.1-0.25s0.04-0.18,0.1-0.25c0.14-0.13,0.36-0.13,0.49,0
				c0.07,0.07,0.11,0.16,0.11,0.25s-0.04,0.18-0.1,0.25C25.28-53.94,25.19-53.9,25.1-53.9z"/>
			<path d="M8.6-44.65c-0.09,0-0.18-0.04-0.25-0.1c-0.06-0.07-0.1-0.16-0.1-0.25s0.04-0.18,0.1-0.25c0.13-0.13,0.36-0.13,0.49,0
				c0.07,0.07,0.11,0.16,0.11,0.25s-0.04,0.18-0.1,0.25C8.78-44.69,8.69-44.65,8.6-44.65z"/>
			<path d="M16.35-40.15c-0.09,0-0.18-0.04-0.25-0.1c-0.06-0.07-0.1-0.16-0.1-0.25s0.04-0.18,0.1-0.25c0.12-0.12,0.36-0.13,0.5,0
				c0.06,0.07,0.1,0.16,0.1,0.25s-0.04,0.18-0.1,0.25C16.53-40.19,16.44-40.15,16.35-40.15z"/>
			<path d="M10.85-38.4c-0.09,0-0.18-0.04-0.25-0.1c-0.06-0.07-0.1-0.16-0.1-0.25c0-0.1,0.04-0.19,0.11-0.25
				c0.11-0.12,0.35-0.13,0.49,0c0.06,0.06,0.1,0.15,0.1,0.25s-0.04,0.18-0.1,0.25C11.03-38.44,10.94-38.4,10.85-38.4z"/>
			<path d="M5.6-34.9c-0.09,0-0.18-0.04-0.25-0.1c-0.06-0.07-0.1-0.16-0.1-0.25s0.04-0.18,0.1-0.25c0.12-0.12,0.37-0.13,0.5,0
				c0.06,0.07,0.1,0.15,0.1,0.25c0,0.09-0.04,0.18-0.1,0.25C5.78-34.94,5.69-34.9,5.6-34.9z"/>
			<path d="M3.6-51.4c-0.09,0-0.18-0.04-0.25-0.1c-0.06-0.07-0.1-0.16-0.1-0.25s0.04-0.18,0.1-0.25c0.12-0.12,0.36-0.13,0.5,0
				c0.06,0.07,0.1,0.16,0.1,0.25s-0.04,0.18-0.1,0.25C3.78-51.44,3.69-51.4,3.6-51.4z"/>
			<path d="M20.85-41.15c-0.09,0-0.18-0.04-0.25-0.1c-0.06-0.07-0.1-0.16-0.1-0.25c0-0.1,0.04-0.19,0.11-0.25
				c0.13-0.13,0.35-0.13,0.49,0c0.06,0.06,0.1,0.15,0.1,0.25c0,0.09-0.04,0.18-0.1,0.25C21.03-41.19,20.94-41.15,20.85-41.15z"/>
			<path d="M17.85-36.4c-0.09,0-0.18-0.04-0.25-0.1c-0.06-0.07-0.1-0.16-0.1-0.25s0.04-0.18,0.1-0.25c0.14-0.13,0.36-0.13,0.5,0
				c0.06,0.07,0.1,0.16,0.1,0.25s-0.04,0.18-0.1,0.25C18.03-36.44,17.94-36.4,17.85-36.4z"/>
			<path d="M16.35-32.9c-0.09,0-0.18-0.04-0.25-0.1c-0.06-0.07-0.1-0.16-0.1-0.25c0-0.1,0.04-0.19,0.11-0.25
				c0.11-0.12,0.35-0.13,0.49,0c0.06,0.06,0.1,0.15,0.1,0.25c0,0.09-0.04,0.18-0.1,0.25C16.53-32.94,16.45-32.9,16.35-32.9z"/>
			<path d="M13.1-30.65c-0.09,0-0.18-0.04-0.25-0.1c-0.06-0.07-0.1-0.16-0.1-0.25c0-0.1,0.04-0.19,0.11-0.25
				c0.11-0.12,0.35-0.13,0.49,0c0.06,0.06,0.1,0.15,0.1,0.25c0,0.09-0.04,0.18-0.1,0.25C13.28-30.69,13.19-30.65,13.1-30.65z"/>
			<path d="M13.1-25.4c-0.09,0-0.18-0.04-0.25-0.1c-0.06-0.07-0.1-0.16-0.1-0.25c0-0.1,0.04-0.19,0.11-0.25
				c0.11-0.12,0.35-0.13,0.49,0c0.06,0.06,0.1,0.15,0.1,0.25c0,0.09-0.04,0.18-0.1,0.25C13.28-25.44,13.19-25.4,13.1-25.4z"/>
			<path d="M6.1-23.4c-0.09,0-0.18-0.04-0.25-0.1c-0.06-0.07-0.1-0.16-0.1-0.25s0.04-0.18,0.1-0.25c0.12-0.12,0.37-0.13,0.5,0
				c0.06,0.07,0.1,0.16,0.1,0.25s-0.04,0.18-0.1,0.25C6.28-23.44,6.19-23.4,6.1-23.4z"/>
			<path d="M11.35-17.4c-0.09,0-0.18-0.04-0.25-0.1c-0.06-0.07-0.1-0.16-0.1-0.25s0.04-0.18,0.1-0.25c0.12-0.12,0.37-0.13,0.5,0
				c0.06,0.07,0.1,0.16,0.1,0.25s-0.04,0.18-0.1,0.25C11.53-17.44,11.44-17.4,11.35-17.4z"/>
			<path d="M15.85-13.4c-0.09,0-0.18-0.04-0.25-0.1c-0.06-0.07-0.1-0.16-0.1-0.25s0.04-0.18,0.1-0.25c0.13-0.13,0.37-0.13,0.5,0
				c0.06,0.07,0.1,0.16,0.1,0.25s-0.04,0.18-0.1,0.25C16.03-13.44,15.94-13.4,15.85-13.4z"/>
			<path d="M6.35-8.4c-0.09,0-0.18-0.04-0.25-0.1C6.04-8.57,6-8.66,6-8.75S6.04-8.93,6.1-9c0.12-0.12,0.36-0.13,0.5,0
				c0.06,0.06,0.1,0.15,0.1,0.25c0,0.09-0.04,0.18-0.1,0.25C6.53-8.44,6.44-8.4,6.35-8.4z"/>
			<path d="M2.6-9.9c-0.09,0-0.18-0.04-0.25-0.1c-0.06-0.07-0.1-0.16-0.1-0.25s0.04-0.18,0.1-0.25c0.13-0.12,0.36-0.13,0.49,0
				c0.07,0.07,0.11,0.15,0.11,0.25c0,0.09-0.04,0.18-0.1,0.25C2.78-9.94,2.69-9.9,2.6-9.9z"/>
			<path d="M9.35-3.9C9.26-3.9,9.17-3.94,9.1-4C9.04-4.07,9-4.16,9-4.25S9.04-4.43,9.1-4.5c0.13-0.13,0.35-0.13,0.49,0
				C9.66-4.43,9.7-4.34,9.7-4.25S9.66-4.07,9.6-4C9.53-3.94,9.45-3.9,9.35-3.9z"/>
			<path d="M13.85-2.4c-0.09,0-0.18-0.04-0.25-0.1c-0.06-0.07-0.1-0.16-0.1-0.25S13.54-2.93,13.6-3c0.12-0.12,0.37-0.13,0.5,0
				c0.06,0.07,0.1,0.16,0.1,0.25s-0.04,0.18-0.1,0.25C14.03-2.44,13.94-2.4,13.85-2.4z"/>
			<path d="M21.85-3.4c-0.09,0-0.18-0.04-0.25-0.1c-0.06-0.07-0.1-0.16-0.1-0.25c0-0.1,0.04-0.19,0.11-0.25
				c0.12-0.13,0.36-0.13,0.49,0c0.06,0.06,0.1,0.15,0.1,0.25c0,0.09-0.04,0.18-0.1,0.25C22.03-3.44,21.94-3.4,21.85-3.4z"/>
			<path d="M23.35-6.15c-0.09,0-0.18-0.04-0.25-0.1C23.04-6.32,23-6.41,23-6.5s0.04-0.18,0.1-0.25c0.13-0.13,0.36-0.13,0.5,0
				c0.06,0.07,0.1,0.16,0.1,0.25s-0.04,0.18-0.1,0.25C23.53-6.19,23.45-6.15,23.35-6.15z"/>
			<path d="M22.6-11.9c-0.09,0-0.18-0.04-0.25-0.1c-0.06-0.07-0.1-0.16-0.1-0.25s0.04-0.18,0.1-0.25c0.12-0.12,0.36-0.13,0.5,0
				c0.06,0.07,0.1,0.16,0.1,0.25s-0.04,0.18-0.1,0.25C22.78-11.94,22.7-11.9,22.6-11.9z"/>
			<path d="M24.6-14.4c-0.09,0-0.18-0.04-0.25-0.1c-0.06-0.07-0.1-0.16-0.1-0.25c0-0.1,0.04-0.18,0.1-0.25
				c0.12-0.12,0.36-0.13,0.5,0c0.06,0.07,0.1,0.15,0.1,0.25c0,0.09-0.04,0.18-0.1,0.25C24.78-14.44,24.7-14.4,24.6-14.4z"/>
			<path d="M26.6-24.15c-0.09,0-0.18-0.04-0.25-0.1c-0.06-0.07-0.1-0.16-0.1-0.25s0.04-0.18,0.1-0.25c0.13-0.13,0.36-0.13,0.5,0
				c0.06,0.07,0.1,0.16,0.1,0.25s-0.04,0.18-0.1,0.25C26.78-24.19,26.69-24.15,26.6-24.15z"/>
			<path d="M26.1-28.4c-0.09,0-0.18-0.04-0.25-0.1c-0.06-0.07-0.1-0.16-0.1-0.25s0.04-0.18,0.1-0.25c0.13-0.13,0.36-0.13,0.5,0
				c0.06,0.07,0.1,0.16,0.1,0.25s-0.04,0.18-0.1,0.25C26.28-28.44,26.19-28.4,26.1-28.4z"/>
			<path d="M32.6-40.9c-0.09,0-0.18-0.04-0.25-0.1c-0.06-0.07-0.1-0.16-0.1-0.25c0-0.1,0.04-0.19,0.11-0.25
				c0.12-0.13,0.35-0.13,0.49,0c0.06,0.06,0.1,0.15,0.1,0.25c0,0.09-0.04,0.18-0.1,0.25C32.78-40.94,32.69-40.9,32.6-40.9z"/>
			<path d="M34.6-44.15c-0.09,0-0.18-0.04-0.25-0.1c-0.06-0.07-0.1-0.16-0.1-0.25s0.03-0.18,0.1-0.25c0.13-0.13,0.36-0.13,0.5,0
				c0.06,0.07,0.1,0.16,0.1,0.25s-0.04,0.18-0.1,0.25C34.78-44.19,34.7-44.15,34.6-44.15z"/>
			<path d="M42.1-46.15c-0.09,0-0.18-0.04-0.25-0.1c-0.06-0.07-0.1-0.16-0.1-0.25s0.04-0.18,0.1-0.25c0.13-0.13,0.37-0.13,0.5,0
				c0.06,0.07,0.1,0.16,0.1,0.25s-0.04,0.18-0.1,0.25C42.28-46.19,42.19-46.15,42.1-46.15z"/>
			<path d="M43.35-51.15c-0.09,0-0.18-0.04-0.25-0.11C43.04-51.32,43-51.4,43-51.5c0-0.09,0.04-0.18,0.1-0.25
				c0.13-0.13,0.36-0.13,0.5,0c0.06,0.07,0.1,0.16,0.1,0.25c0,0.1-0.04,0.18-0.11,0.25C43.53-51.19,43.44-51.15,43.35-51.15z"/>
			<path d="M36.85-52.65c-0.09,0-0.18-0.04-0.25-0.1c-0.07-0.08-0.1-0.16-0.1-0.25s0.03-0.18,0.1-0.24c0.16-0.15,0.37-0.14,0.5-0.01
				c0.06,0.07,0.1,0.16,0.1,0.25s-0.04,0.18-0.1,0.25C37.03-52.69,36.94-52.65,36.85-52.65z"/>
			<path d="M28.1-49.65c-0.09,0-0.18-0.04-0.25-0.1c-0.06-0.07-0.1-0.16-0.1-0.25s0.04-0.18,0.1-0.25c0.13-0.13,0.37-0.13,0.5,0
				c0.06,0.07,0.1,0.16,0.1,0.25s-0.04,0.18-0.1,0.25C28.28-49.69,28.19-49.65,28.1-49.65z"/>
			<path d="M52.35-49.9c-0.1,0-0.19-0.04-0.25-0.11c-0.06-0.06-0.1-0.15-0.1-0.24s0.04-0.18,0.1-0.25c0.14-0.13,0.36-0.13,0.49,0
				c0.07,0.07,0.11,0.16,0.11,0.25s-0.04,0.18-0.1,0.25C52.53-49.94,52.45-49.9,52.35-49.9z"/>
			<path d="M43.6-54.15c-0.09,0-0.19-0.04-0.25-0.1c-0.06-0.07-0.1-0.16-0.1-0.25s0.04-0.18,0.1-0.25c0.12-0.12,0.36-0.13,0.5,0
				c0.06,0.07,0.1,0.16,0.1,0.25s-0.04,0.18-0.1,0.25C43.78-54.19,43.69-54.15,43.6-54.15z"/>
			<path d="M50.85-53.9c-0.1,0-0.18-0.04-0.25-0.1c-0.06-0.07-0.1-0.16-0.1-0.25s0.04-0.18,0.1-0.25c0.14-0.13,0.36-0.13,0.49,0
				c0.07,0.07,0.11,0.16,0.11,0.25s-0.04,0.18-0.1,0.25C51.03-53.94,50.94-53.9,50.85-53.9z"/>
			<path d="M59.85-54.65c-0.09,0-0.18-0.04-0.25-0.1c-0.06-0.07-0.1-0.16-0.1-0.25c0-0.1,0.04-0.19,0.11-0.25
				c0.11-0.12,0.35-0.13,0.49,0c0.06,0.06,0.1,0.15,0.1,0.25c0,0.09-0.04,0.18-0.1,0.25C60.03-54.69,59.94-54.65,59.85-54.65z"/>
			<path d="M58.6-57.9c-0.1,0-0.18-0.04-0.25-0.1c-0.06-0.07-0.1-0.16-0.1-0.25s0.04-0.18,0.1-0.25c0.14-0.13,0.36-0.13,0.49,0
				c0.07,0.07,0.11,0.16,0.11,0.25s-0.04,0.18-0.1,0.25C58.78-57.94,58.69-57.9,58.6-57.9z"/>
			<path d="M61.85-60.9c-0.09,0-0.18-0.04-0.25-0.1c-0.06-0.07-0.1-0.16-0.1-0.25c0-0.1,0.04-0.19,0.11-0.25
				c0.11-0.12,0.36-0.13,0.49,0.01c0.06,0.05,0.1,0.14,0.1,0.24c0,0.09-0.04,0.18-0.1,0.25C62.03-60.94,61.94-60.9,61.85-60.9z"/>
			<path d="M59.1-64.4c-0.09,0-0.18-0.04-0.25-0.1c-0.07-0.07-0.1-0.16-0.1-0.25s0.03-0.18,0.1-0.24c0.15-0.15,0.36-0.14,0.49-0.01
				c0.07,0.07,0.11,0.15,0.11,0.25c0,0.09-0.04,0.18-0.1,0.25C59.28-64.44,59.19-64.4,59.1-64.4z"/>
			<path d="M60.35-67.15c-0.09,0-0.19-0.04-0.25-0.11c-0.06-0.06-0.1-0.15-0.1-0.24c0-0.1,0.04-0.19,0.11-0.25
				c0.11-0.12,0.35-0.13,0.49,0c0.06,0.06,0.1,0.15,0.1,0.25c0,0.09-0.04,0.18-0.1,0.25C60.53-67.19,60.44-67.15,60.35-67.15z"/>
			<path d="M67.85-65.9c-0.09,0-0.18-0.04-0.25-0.1c-0.06-0.06-0.1-0.15-0.1-0.25s0.04-0.18,0.1-0.25c0.13-0.12,0.37-0.13,0.5,0
				c0.06,0.07,0.1,0.16,0.1,0.25s-0.04,0.18-0.1,0.25C68.03-65.94,67.94-65.9,67.85-65.9z"/>
			<path d="M71.1-63.4c-0.09,0-0.18-0.04-0.25-0.1c-0.06-0.06-0.1-0.15-0.1-0.25s0.04-0.18,0.1-0.25c0.13-0.12,0.36-0.13,0.49,0
				c0.07,0.07,0.11,0.16,0.11,0.25s-0.04,0.18-0.1,0.25C71.28-63.44,71.19-63.4,71.1-63.4z"/>
			<path d="M66.1-62.15c-0.09,0-0.18-0.04-0.25-0.1c-0.06-0.07-0.1-0.16-0.1-0.25c0-0.1,0.04-0.18,0.1-0.25
				c0.12-0.12,0.37-0.13,0.5,0c0.06,0.07,0.1,0.16,0.1,0.25s-0.04,0.18-0.1,0.25C66.28-62.19,66.19-62.15,66.1-62.15z"/>
			<path d="M60.6-48.15c-0.09,0-0.18-0.04-0.25-0.1c-0.06-0.07-0.1-0.16-0.1-0.25s0.04-0.18,0.1-0.25c0.12-0.13,0.37-0.13,0.5,0
				c0.06,0.07,0.1,0.16,0.1,0.25s-0.04,0.18-0.1,0.25C60.78-48.19,60.69-48.15,60.6-48.15z"/>
			<path d="M55.85-48.15c-0.09,0-0.18-0.04-0.25-0.1c-0.06-0.07-0.1-0.16-0.1-0.25s0.04-0.18,0.1-0.25c0.12-0.12,0.37-0.13,0.5,0
				c0.06,0.07,0.1,0.16,0.1,0.25s-0.04,0.18-0.1,0.25C56.03-48.19,55.94-48.15,55.85-48.15z"/>
			<path d="M55.85-53.15c-0.09,0-0.19-0.04-0.25-0.11c-0.06-0.06-0.1-0.15-0.1-0.24c0-0.1,0.04-0.19,0.11-0.25
				c0.11-0.12,0.35-0.13,0.49,0c0.06,0.06,0.1,0.15,0.1,0.25c0,0.09-0.04,0.18-0.1,0.25C56.03-53.19,55.94-53.15,55.85-53.15z"/>
			<path d="M65.35-46.15c-0.09,0-0.18-0.04-0.25-0.1c-0.06-0.07-0.1-0.16-0.1-0.25c0-0.1,0.04-0.19,0.11-0.25
				c0.11-0.12,0.35-0.13,0.49,0c0.06,0.06,0.1,0.15,0.1,0.25c0,0.09-0.04,0.18-0.1,0.25C65.53-46.19,65.44-46.15,65.35-46.15z"/>
			<path d="M58.1-41.15c-0.1,0-0.19-0.04-0.25-0.11c-0.06-0.06-0.1-0.15-0.1-0.24c0-0.1,0.04-0.19,0.11-0.25
				c0.11-0.12,0.35-0.13,0.49,0c0.06,0.06,0.1,0.15,0.1,0.25c0,0.09-0.04,0.18-0.1,0.25C58.28-41.19,58.19-41.15,58.1-41.15z"/>
			<path d="M53.1-39.15c-0.09,0-0.18-0.04-0.25-0.11c-0.06-0.06-0.1-0.15-0.1-0.24c0-0.1,0.04-0.19,0.11-0.25
				c0.11-0.12,0.35-0.13,0.49,0c0.06,0.06,0.1,0.15,0.1,0.25c0,0.09-0.04,0.18-0.1,0.25C53.28-39.19,53.19-39.15,53.1-39.15z"/>
			<path d="M47.85-38.15c-0.09,0-0.18-0.04-0.25-0.11c-0.06-0.06-0.1-0.15-0.1-0.24c0-0.1,0.04-0.19,0.11-0.25
				c0.11-0.12,0.35-0.13,0.49,0c0.06,0.06,0.1,0.15,0.1,0.25c0,0.09-0.04,0.18-0.1,0.25C48.03-38.19,47.94-38.15,47.85-38.15z"/>
			<path d="M44.6-32.65c-0.09,0-0.18-0.04-0.25-0.11c-0.06-0.06-0.1-0.15-0.1-0.24s0.04-0.18,0.1-0.25c0.14-0.13,0.36-0.13,0.5,0
				c0.06,0.07,0.1,0.15,0.1,0.25s-0.04,0.19-0.11,0.25C44.78-32.69,44.69-32.65,44.6-32.65z"/>
			<path d="M34.35-30.4c-0.09,0-0.18-0.04-0.25-0.1c-0.06-0.07-0.1-0.16-0.1-0.25s0.04-0.18,0.1-0.25c0.14-0.13,0.36-0.13,0.5,0
				c0.06,0.07,0.1,0.16,0.1,0.25s-0.04,0.18-0.1,0.25C34.53-30.44,34.44-30.4,34.35-30.4z"/>
			<path d="M41.1-23.9c-0.09,0-0.18-0.04-0.25-0.1c-0.06-0.07-0.1-0.16-0.1-0.25s0.04-0.18,0.1-0.25c0.14-0.13,0.36-0.13,0.49,0
				c0.07,0.06,0.11,0.16,0.11,0.25s-0.04,0.18-0.1,0.25C41.28-23.94,41.19-23.9,41.1-23.9z"/>
			<path d="M46.1-19.65c-0.09,0-0.18-0.04-0.25-0.1c-0.06-0.07-0.1-0.16-0.1-0.25c0-0.1,0.04-0.19,0.11-0.25
				c0.12-0.13,0.36-0.13,0.49,0c0.06,0.06,0.1,0.15,0.1,0.25c0,0.09-0.04,0.18-0.1,0.25C46.28-19.69,46.19-19.65,46.1-19.65z"/>
			<path d="M46.85-15.15c-0.09,0-0.18-0.04-0.25-0.1c-0.06-0.07-0.1-0.16-0.1-0.25s0.04-0.18,0.1-0.25c0.15-0.14,0.36-0.13,0.49,0
				c0.07,0.07,0.11,0.16,0.11,0.25s-0.04,0.18-0.1,0.25C47.03-15.19,46.94-15.15,46.85-15.15z"/>
			<path d="M42.35-12.4c-0.09,0-0.18-0.04-0.24-0.1C42.04-12.57,42-12.66,42-12.75s0.04-0.18,0.1-0.25c0.14-0.13,0.36-0.13,0.5,0
				c0.06,0.07,0.1,0.16,0.1,0.25s-0.04,0.18-0.1,0.25C42.53-12.44,42.44-12.4,42.35-12.4z"/>
			<path d="M40.35-9.15c-0.09,0-0.18-0.04-0.25-0.1C40.04-9.32,40-9.41,40-9.5s0.04-0.18,0.1-0.25c0.13-0.13,0.37-0.13,0.5,0
				c0.06,0.07,0.1,0.16,0.1,0.25s-0.04,0.18-0.1,0.25C40.53-9.19,40.45-9.15,40.35-9.15z"/>
			<path d="M36.35-9.15c-0.09,0-0.18-0.04-0.25-0.1C36.04-9.32,36-9.41,36-9.5c0-0.1,0.04-0.19,0.11-0.25
				c0.12-0.13,0.35-0.13,0.49,0c0.06,0.06,0.1,0.15,0.1,0.25c0,0.09-0.04,0.18-0.1,0.25C36.53-9.19,36.44-9.15,36.35-9.15z"/>
			<path d="M36.85-19.15c-0.09,0-0.18-0.04-0.25-0.1c-0.07-0.07-0.1-0.16-0.1-0.25s0.04-0.18,0.1-0.25c0.14-0.13,0.38-0.13,0.5,0.01
				c0.06,0.05,0.1,0.14,0.1,0.24c0,0.09-0.04,0.18-0.1,0.25C37.03-19.19,36.94-19.15,36.85-19.15z"/>
			<path d="M30.35-8.4c-0.09,0-0.18-0.04-0.24-0.1C30.04-8.57,30-8.66,30-8.75c0-0.1,0.04-0.19,0.11-0.25
				c0.12-0.12,0.36-0.13,0.49,0c0.06,0.06,0.1,0.15,0.1,0.25c0,0.09-0.04,0.18-0.1,0.25C30.53-8.44,30.44-8.4,30.35-8.4z"/>
			<path d="M31.85-3.4c-0.09,0-0.18-0.04-0.25-0.1c-0.06-0.07-0.1-0.16-0.1-0.25S31.54-3.93,31.6-4c0.13-0.13,0.36-0.13,0.5,0
				c0.06,0.07,0.1,0.16,0.1,0.25s-0.04,0.18-0.1,0.25C32.03-3.44,31.94-3.4,31.85-3.4z"/>
			<path d="M37.35-0.9c-0.09,0-0.18-0.04-0.25-0.1C37.04-1.06,37-1.16,37-1.25c0-0.1,0.04-0.19,0.11-0.25
				c0.12-0.12,0.36-0.13,0.49,0c0.06,0.06,0.1,0.15,0.1,0.25c0,0.09-0.04,0.19-0.1,0.25C37.53-0.94,37.44-0.9,37.35-0.9z"/>
			<path d="M63.35-14.9c-0.09,0-0.18-0.04-0.25-0.1c-0.06-0.07-0.1-0.16-0.1-0.25c0-0.1,0.04-0.19,0.11-0.25
				c0.11-0.12,0.35-0.13,0.49,0c0.06,0.06,0.1,0.15,0.1,0.25c0,0.09-0.04,0.18-0.1,0.25C63.53-14.94,63.44-14.9,63.35-14.9z"/>
			<path d="M60.35-21.15c-0.1,0-0.19-0.04-0.25-0.11c-0.06-0.06-0.1-0.15-0.1-0.24s0.04-0.19,0.11-0.25c0.12-0.13,0.35-0.13,0.48,0
				c0.07,0.07,0.11,0.16,0.11,0.25s-0.04,0.18-0.1,0.25C60.53-21.19,60.45-21.15,60.35-21.15z"/>
			<path d="M54.85-21.4c-0.09,0-0.18-0.04-0.25-0.1c-0.06-0.07-0.1-0.15-0.1-0.25s0.04-0.19,0.1-0.25c0.14-0.13,0.36-0.13,0.49,0
				c0.07,0.07,0.11,0.16,0.11,0.25s-0.04,0.18-0.1,0.24C55.03-21.44,54.95-21.4,54.85-21.4z"/>
			<path d="M55.1-30.15c-0.09,0-0.18-0.04-0.25-0.11c-0.06-0.05-0.1-0.15-0.1-0.24s0.04-0.18,0.1-0.25c0.13-0.13,0.36-0.13,0.5,0
				c0.06,0.07,0.1,0.16,0.1,0.25s-0.04,0.19-0.11,0.25C55.28-30.19,55.19-30.15,55.1-30.15z"/>
			<path d="M62.85-29.65c-0.09,0-0.18-0.04-0.25-0.1c-0.06-0.07-0.1-0.16-0.1-0.25s0.04-0.18,0.1-0.25c0.13-0.13,0.36-0.13,0.5,0
				c0.06,0.07,0.1,0.16,0.1,0.25s-0.04,0.18-0.1,0.25C63.03-29.69,62.94-29.65,62.85-29.65z"/>
			<path d="M67.35-24.4c-0.09,0-0.18-0.04-0.24-0.1C67.04-24.57,67-24.66,67-24.75s0.04-0.18,0.1-0.25c0.13-0.13,0.36-0.13,0.49,0
				c0.08,0.07,0.11,0.16,0.11,0.25s-0.04,0.18-0.1,0.25C67.53-24.44,67.44-24.4,67.35-24.4z"/>
			<path d="M69.85-17.65c-0.09,0-0.18-0.04-0.24-0.1c-0.07-0.07-0.11-0.16-0.11-0.25s0.04-0.18,0.1-0.25c0.13-0.13,0.36-0.13,0.49,0
				c0.07,0.07,0.11,0.16,0.11,0.25s-0.04,0.18-0.1,0.25C70.03-17.69,69.94-17.65,69.85-17.65z"/>
			<path d="M63.85-10.15c-0.09,0-0.18-0.04-0.24-0.1c-0.07-0.07-0.11-0.16-0.11-0.25s0.04-0.18,0.1-0.25c0.13-0.13,0.36-0.13,0.49,0
				c0.08,0.07,0.11,0.16,0.11,0.25s-0.04,0.18-0.1,0.25C64.03-10.19,63.94-10.15,63.85-10.15z"/>
			<path d="M70.6-10.9c-0.09,0-0.18-0.04-0.25-0.1c-0.06-0.07-0.1-0.16-0.1-0.25c0-0.1,0.04-0.19,0.11-0.25
				c0.1-0.12,0.35-0.13,0.49,0c0.06,0.06,0.1,0.15,0.1,0.25c0,0.09-0.04,0.18-0.1,0.25C70.78-10.94,70.69-10.9,70.6-10.9z"/>
			<path d="M65.1-6.4c-0.09,0-0.18-0.04-0.25-0.1c-0.06-0.07-0.1-0.16-0.1-0.25s0.04-0.18,0.1-0.25c0.12-0.13,0.37-0.13,0.5,0.01
				c0.06,0.06,0.1,0.15,0.1,0.24s-0.04,0.18-0.1,0.25C65.28-6.44,65.19-6.4,65.1-6.4z"/>
			<path d="M66.1-3.65c-0.09,0-0.18-0.04-0.25-0.1c-0.06-0.07-0.1-0.16-0.1-0.25s0.04-0.18,0.1-0.25c0.12-0.13,0.37-0.13,0.5,0
				c0.06,0.07,0.1,0.16,0.1,0.25s-0.04,0.18-0.1,0.25C66.28-3.69,66.19-3.65,66.1-3.65z"/>
			<path d="M62.85-1.65c-0.09,0-0.18-0.04-0.25-0.1C62.54-1.82,62.5-1.91,62.5-2c0-0.09,0.04-0.19,0.11-0.25
				c0.11-0.12,0.36-0.13,0.49,0.01C63.16-2.19,63.2-2.1,63.2-2c0,0.09-0.04,0.18-0.1,0.25C63.03-1.69,62.94-1.65,62.85-1.65z"/>
			<path d="M53.1-2.15c-0.1,0-0.19-0.04-0.25-0.1c-0.06-0.07-0.1-0.16-0.1-0.25s0.04-0.18,0.1-0.25c0.14-0.13,0.36-0.13,0.49,0
				c0.07,0.07,0.11,0.16,0.11,0.25s-0.04,0.18-0.1,0.25C53.28-2.19,53.2-2.15,53.1-2.15z"/>
			<path d="M45.1-5.4c-0.1,0-0.18-0.04-0.25-0.11c-0.06-0.06-0.1-0.15-0.1-0.24c0-0.1,0.04-0.19,0.11-0.25
				c0.11-0.12,0.35-0.13,0.49,0c0.06,0.06,0.1,0.15,0.1,0.25c0,0.09-0.04,0.18-0.1,0.25C45.28-5.44,45.19-5.4,45.1-5.4z"/>
			<path d="M28.85-0.65c-0.09,0-0.18-0.04-0.25-0.1C28.54-0.81,28.5-0.9,28.5-1c0-0.1,0.04-0.19,0.11-0.25
				c0.12-0.13,0.35-0.13,0.49,0C29.16-1.19,29.2-1.1,29.2-1c0,0.1-0.04,0.19-0.11,0.25C29.03-0.69,28.94-0.65,28.85-0.65z"/>
			<path d="M3.35-42.4c-0.09,0-0.18-0.04-0.25-0.1C3.04-42.57,3-42.66,3-42.75S3.04-42.93,3.1-43c0.12-0.12,0.36-0.13,0.5,0
				c0.06,0.07,0.1,0.16,0.1,0.25s-0.04,0.18-0.1,0.25C3.53-42.44,3.44-42.4,3.35-42.4z"/>
			<path d="M13.6-66.9c-0.09,0-0.18-0.04-0.25-0.11c-0.06-0.05-0.1-0.14-0.1-0.24c0-0.09,0.04-0.19,0.1-0.25
				c0.13-0.13,0.36-0.13,0.49,0c0.07,0.07,0.11,0.16,0.11,0.25c0,0.1-0.04,0.19-0.11,0.25C13.78-66.94,13.69-66.9,13.6-66.9z"/>
			<path d="M70.6-37.4c-0.09,0-0.18-0.04-0.25-0.1c-0.06-0.07-0.1-0.16-0.1-0.25c0-0.1,0.04-0.19,0.11-0.25
				c0.11-0.12,0.35-0.13,0.49,0c0.06,0.06,0.1,0.15,0.1,0.25c0,0.09-0.04,0.18-0.1,0.25C70.78-37.44,70.69-37.4,70.6-37.4z"/>
			<path d="M71.6-30.65c-0.09,0-0.18-0.04-0.25-0.1c-0.06-0.07-0.1-0.16-0.1-0.25s0.04-0.18,0.1-0.25c0.13-0.13,0.36-0.13,0.5,0
				c0.06,0.07,0.1,0.16,0.1,0.25s-0.04,0.18-0.1,0.25C71.78-30.69,71.69-30.65,71.6-30.65z"/>
			<path d="M1.35-20.15c-0.09,0-0.18-0.04-0.25-0.1C1.04-20.32,1-20.41,1-20.5c0-0.1,0.04-0.19,0.11-0.25
				c0.11-0.12,0.35-0.13,0.49,0c0.06,0.06,0.1,0.15,0.1,0.25c0,0.09-0.04,0.18-0.1,0.25C1.53-20.19,1.44-20.15,1.35-20.15z"/>
			<path d="M72.35-48.4c-0.09,0-0.18-0.04-0.25-0.1c-0.06-0.07-0.1-0.16-0.1-0.25s0.04-0.18,0.1-0.25c0.12-0.12,0.36-0.13,0.5,0
				c0.06,0.07,0.1,0.16,0.1,0.25s-0.04,0.18-0.1,0.25C72.53-48.44,72.44-48.4,72.35-48.4z"/>
			<path d="M69.35-45.4c-0.09,0-0.18-0.04-0.25-0.1c-0.06-0.07-0.1-0.16-0.1-0.25s0.04-0.18,0.1-0.25c0.12-0.13,0.36-0.13,0.5,0
				c0.06,0.07,0.1,0.16,0.1,0.25s-0.03,0.18-0.1,0.25C69.53-45.44,69.44-45.4,69.35-45.4z"/>
			<path d="M68.85-11.65c-0.09,0-0.18-0.04-0.25-0.1c-0.06-0.07-0.1-0.16-0.1-0.25c0-0.1,0.04-0.18,0.1-0.25
				c0.12-0.12,0.37-0.13,0.5,0c0.06,0.07,0.1,0.16,0.1,0.25s-0.04,0.18-0.1,0.25C69.03-11.69,68.94-11.65,68.85-11.65z"/>
			<path d="M71.85-3.65c-0.09,0-0.18-0.04-0.25-0.1C71.54-3.82,71.5-3.91,71.5-4s0.04-0.18,0.1-0.25c0.12-0.13,0.36-0.13,0.5,0
				c0.06,0.07,0.1,0.16,0.1,0.25s-0.03,0.18-0.1,0.25C72.03-3.69,71.94-3.65,71.85-3.65z"/>
			<path d="M0.85-14.15c-0.09,0-0.18-0.04-0.25-0.1c-0.06-0.07-0.1-0.16-0.1-0.25s0.04-0.18,0.1-0.25c0.12-0.12,0.36-0.13,0.5,0
				c0.06,0.07,0.1,0.16,0.1,0.25s-0.04,0.18-0.1,0.25C1.03-14.19,0.94-14.15,0.85-14.15z"/>
			<path d="M3.1-0.65c-0.09,0-0.18-0.04-0.25-0.1C2.79-0.82,2.75-0.91,2.75-1c0-0.09,0.04-0.18,0.1-0.25c0.13-0.13,0.36-0.13,0.49,0
				C3.41-1.18,3.45-1.09,3.45-1c0,0.09-0.04,0.18-0.1,0.25C3.28-0.69,3.19-0.65,3.1-0.65z"/>
			<path d="M70.6-47.9c-0.09,0-0.18-0.04-0.25-0.1c-0.06-0.07-0.1-0.16-0.1-0.25c0-0.1,0.04-0.19,0.11-0.25
				c0.11-0.12,0.35-0.13,0.49,0c0.06,0.06,0.1,0.15,0.1,0.25c0,0.09-0.04,0.18-0.1,0.25C70.78-47.94,70.69-47.9,70.6-47.9z"/>
			<path d="M1.6-55.15c-0.09,0-0.18-0.04-0.25-0.1c-0.06-0.07-0.1-0.16-0.1-0.25s0.04-0.18,0.1-0.25c0.12-0.12,0.36-0.13,0.5,0
				c0.06,0.07,0.1,0.16,0.1,0.25s-0.04,0.18-0.1,0.25C1.78-55.19,1.69-55.15,1.6-55.15z"/>
			<path d="M18.35-58.85c-0.17,0-0.33-0.07-0.46-0.19c-0.12-0.13-0.19-0.29-0.19-0.46s0.07-0.34,0.19-0.46
				c0.24-0.24,0.68-0.24,0.92,0C18.93-59.84,19-59.67,19-59.5s-0.07,0.34-0.19,0.46C18.69-58.92,18.52-58.85,18.35-58.85z"/>
			<path d="M29.6-60.85c-0.17,0-0.34-0.07-0.46-0.19c-0.12-0.13-0.19-0.29-0.19-0.46s0.07-0.34,0.19-0.46
				c0.25-0.25,0.67-0.24,0.92,0c0.12,0.12,0.19,0.29,0.19,0.46s-0.07,0.33-0.19,0.46C29.93-60.92,29.77-60.85,29.6-60.85z"/>
			<path d="M29.6-68.35c-0.17,0-0.34-0.07-0.46-0.19c-0.12-0.12-0.19-0.29-0.19-0.46c0-0.18,0.07-0.34,0.19-0.46
				c0.24-0.24,0.68-0.24,0.92,0c0.12,0.12,0.19,0.29,0.19,0.46s-0.07,0.34-0.19,0.46C29.93-68.42,29.77-68.35,29.6-68.35z"/>
			<path d="M40.6-61.35c-0.17,0-0.33-0.07-0.46-0.19c-0.12-0.13-0.19-0.29-0.19-0.46s0.07-0.34,0.19-0.46
				c0.24-0.24,0.68-0.24,0.92,0c0.12,0.11,0.19,0.28,0.19,0.46c0,0.17-0.07,0.33-0.19,0.46C40.94-61.42,40.77-61.35,40.6-61.35z"/>
			<path d="M45.35-59.85c-0.18,0-0.34-0.07-0.46-0.2c-0.12-0.12-0.19-0.28-0.19-0.45s0.07-0.34,0.19-0.46
				c0.24-0.24,0.68-0.24,0.92,0C45.93-60.85,46-60.68,46-60.5s-0.07,0.34-0.2,0.46C45.69-59.92,45.53-59.85,45.35-59.85z"/>
			<path d="M47.6-48.85c-0.17,0-0.34-0.07-0.46-0.19c-0.12-0.12-0.19-0.29-0.19-0.46s0.07-0.34,0.19-0.46
				c0.23-0.24,0.68-0.24,0.92,0c0.12,0.12,0.19,0.29,0.19,0.46s-0.07,0.34-0.19,0.46C47.94-48.92,47.77-48.85,47.6-48.85z"/>
			<path d="M55.1-64.85c-0.18,0-0.34-0.07-0.46-0.19c-0.12-0.12-0.19-0.29-0.19-0.46s0.07-0.34,0.19-0.46
				c0.23-0.24,0.69-0.24,0.92,0c0.12,0.12,0.19,0.28,0.19,0.46c0,0.17-0.07,0.34-0.19,0.46C55.44-64.92,55.28-64.85,55.1-64.85z"/>
			<path d="M64.35-65.1c-0.17,0-0.34-0.07-0.46-0.19c-0.12-0.12-0.19-0.29-0.19-0.46s0.07-0.34,0.19-0.46
				c0.24-0.24,0.68-0.24,0.92,0c0.12,0.12,0.19,0.29,0.19,0.46s-0.07,0.34-0.19,0.46C64.69-65.17,64.52-65.1,64.35-65.1z"/>
			<path d="M65.35-69.1c-0.17,0-0.34-0.07-0.46-0.19c-0.12-0.13-0.19-0.29-0.19-0.46s0.07-0.34,0.19-0.46
				c0.25-0.24,0.67-0.24,0.92,0c0.12,0.13,0.19,0.29,0.19,0.46s-0.06,0.33-0.18,0.45C65.69-69.17,65.52-69.1,65.35-69.1z"/>
			<path d="M69.85-53.6c-0.17,0-0.34-0.07-0.46-0.19c-0.12-0.12-0.19-0.29-0.19-0.46s0.07-0.34,0.19-0.46
				c0.24-0.24,0.67-0.25,0.92,0c0.12,0.12,0.19,0.29,0.19,0.46s-0.07,0.34-0.19,0.46C70.19-53.67,70.02-53.6,69.85-53.6z"/>
			<path d="M8.35-24.6c-0.18,0-0.34-0.07-0.46-0.19c-0.12-0.13-0.19-0.29-0.19-0.46s0.07-0.34,0.19-0.46c0.24-0.24,0.68-0.24,0.92,0
				C8.93-25.59,9-25.42,9-25.25s-0.07,0.33-0.19,0.46C8.69-24.67,8.53-24.6,8.35-24.6z"/>
			<path d="M5.35-14.85c-0.18,0-0.34-0.07-0.46-0.19C4.77-15.16,4.7-15.33,4.7-15.5s0.07-0.34,0.19-0.46c0.25-0.25,0.68-0.24,0.92,0
				C5.93-15.84,6-15.67,6-15.5s-0.07,0.34-0.19,0.46C5.69-14.92,5.53-14.85,5.35-14.85z"/>
			<path d="M2.6-4.6c-0.17,0-0.34-0.07-0.46-0.19C2.02-4.92,1.95-5.08,1.95-5.25s0.07-0.34,0.19-0.46c0.24-0.24,0.68-0.24,0.92,0
				c0.12,0.12,0.19,0.29,0.19,0.46S3.18-4.92,3.06-4.79C2.94-4.67,2.77-4.6,2.6-4.6z"/>
			<path d="M18.1-1.85c-0.17,0-0.34-0.07-0.46-0.19c-0.12-0.13-0.19-0.29-0.19-0.46s0.07-0.34,0.19-0.46c0.24-0.24,0.68-0.24,0.92,0
				c0.12,0.12,0.19,0.29,0.19,0.46s-0.07,0.33-0.19,0.46C18.44-1.92,18.27-1.85,18.1-1.85z"/>
			<path d="M19.6-9.35c-0.17,0-0.34-0.07-0.46-0.19c-0.12-0.12-0.19-0.29-0.19-0.46c0-0.18,0.07-0.34,0.19-0.46
				c0.23-0.24,0.68-0.25,0.92,0c0.12,0.12,0.19,0.29,0.19,0.46c0,0.17-0.07,0.33-0.19,0.46C19.94-9.42,19.77-9.35,19.6-9.35z"/>
			<path d="M21.35-26.35c-0.17,0-0.34-0.07-0.46-0.19c-0.12-0.12-0.19-0.29-0.19-0.46c0-0.18,0.07-0.34,0.19-0.46
				c0.23-0.24,0.68-0.25,0.92,0C21.93-27.34,22-27.17,22-27s-0.07,0.33-0.19,0.46C21.69-26.42,21.53-26.35,21.35-26.35z"/>
			<path d="M28.85-20.6c-0.17,0-0.34-0.07-0.46-0.19c-0.12-0.12-0.19-0.29-0.19-0.46s0.07-0.34,0.19-0.46
				c0.24-0.24,0.68-0.25,0.92,0c0.12,0.12,0.19,0.29,0.19,0.46s-0.07,0.33-0.19,0.46C29.19-20.67,29.03-20.6,28.85-20.6z"/>
			<path d="M34.35-11.35c-0.17,0-0.34-0.07-0.46-0.19c-0.12-0.12-0.19-0.29-0.19-0.46c0-0.18,0.07-0.34,0.19-0.46
				c0.24-0.24,0.68-0.24,0.92,0C34.93-12.35,35-12.18,35-12s-0.07,0.34-0.19,0.46C34.69-11.42,34.52-11.35,34.35-11.35z"/>
			<path d="M34.6-4.85c-0.18,0-0.34-0.07-0.46-0.19c-0.12-0.12-0.19-0.29-0.19-0.46s0.07-0.34,0.19-0.46c0.25-0.25,0.68-0.24,0.92,0
				c0.12,0.12,0.19,0.28,0.19,0.46s-0.07,0.34-0.19,0.46C34.94-4.92,34.77-4.85,34.6-4.85z"/>
			<path d="M42.1-16.6c-0.17,0-0.34-0.07-0.46-0.19c-0.12-0.12-0.19-0.29-0.19-0.46s0.07-0.34,0.19-0.46c0.24-0.24,0.68-0.24,0.92,0
				c0.12,0.12,0.19,0.29,0.19,0.46s-0.07,0.34-0.19,0.46C42.44-16.67,42.27-16.6,42.1-16.6z"/>
			<path d="M52.6-11.85c-0.17,0-0.34-0.07-0.46-0.19c-0.12-0.12-0.19-0.29-0.19-0.46s0.07-0.34,0.19-0.46
				c0.23-0.24,0.68-0.24,0.92,0c0.12,0.12,0.19,0.29,0.19,0.46s-0.07,0.34-0.19,0.46C52.94-11.92,52.77-11.85,52.6-11.85z"/>
			<path d="M55.35-6.35c-0.17,0-0.34-0.07-0.46-0.19C54.77-6.67,54.7-6.83,54.7-7c0-0.18,0.07-0.34,0.19-0.46
				c0.23-0.24,0.68-0.24,0.92,0C55.93-7.34,56-7.18,56-7c0,0.17-0.07,0.33-0.19,0.46C55.69-6.42,55.52-6.35,55.35-6.35z"/>
			<path d="M25.6-47.1c-0.17,0-0.34-0.07-0.46-0.19c-0.12-0.13-0.19-0.29-0.19-0.46s0.07-0.34,0.19-0.46c0.23-0.24,0.68-0.24,0.92,0
				c0.12,0.12,0.19,0.29,0.19,0.46s-0.07,0.33-0.19,0.46C25.94-47.17,25.77-47.1,25.6-47.1z"/>
			<path d="M35.6-48.35c-0.18,0-0.34-0.07-0.46-0.19c-0.12-0.12-0.19-0.29-0.19-0.46s0.07-0.34,0.19-0.46
				c0.24-0.24,0.68-0.24,0.92,0c0.12,0.12,0.19,0.28,0.19,0.46s-0.07,0.34-0.19,0.46C35.94-48.42,35.78-48.35,35.6-48.35z"/>
			<path d="M45.35-42.1c-0.17,0-0.34-0.07-0.46-0.19c-0.12-0.12-0.19-0.29-0.19-0.46s0.07-0.34,0.19-0.46
				c0.23-0.24,0.69-0.24,0.92,0C45.93-43.1,46-42.93,46-42.75s-0.07,0.34-0.2,0.46C45.69-42.17,45.52-42.1,45.35-42.1z"/>
			<path d="M52.35-28.6c-0.17,0-0.34-0.07-0.46-0.19c-0.12-0.12-0.19-0.29-0.19-0.46s0.07-0.34,0.19-0.46
				c0.23-0.24,0.67-0.25,0.92,0c0.12,0.12,0.19,0.28,0.19,0.46c0,0.17-0.07,0.34-0.19,0.46C52.69-28.67,52.52-28.6,52.35-28.6z"/>
			<path d="M67.35-19.85c-0.17,0-0.34-0.07-0.46-0.19c-0.12-0.12-0.19-0.29-0.19-0.46c0-0.18,0.07-0.34,0.2-0.46
				c0.22-0.23,0.67-0.24,0.91,0C67.93-20.84,68-20.67,68-20.5s-0.07,0.34-0.19,0.46C67.69-19.92,67.52-19.85,67.35-19.85z"/>
			<path d="M47.6-23.85c-0.17,0-0.34-0.07-0.46-0.19c-0.12-0.12-0.19-0.29-0.19-0.46s0.07-0.34,0.19-0.46
				c0.23-0.24,0.68-0.24,0.92,0c0.12,0.12,0.19,0.29,0.19,0.46s-0.07,0.34-0.19,0.46C47.94-23.92,47.77-23.85,47.6-23.85z"/>
			<path d="M37.35-27.1c-0.17,0-0.34-0.07-0.46-0.19c-0.12-0.13-0.19-0.29-0.19-0.46s0.07-0.34,0.19-0.46
				c0.24-0.24,0.68-0.24,0.92,0c0.12,0.12,0.19,0.29,0.19,0.46s-0.07,0.33-0.19,0.46C37.69-27.17,37.52-27.1,37.35-27.1z"/>
			<path d="M17.35-43.1c-0.17,0-0.34-0.07-0.46-0.19c-0.12-0.12-0.19-0.29-0.19-0.46s0.07-0.34,0.19-0.46
				c0.25-0.24,0.68-0.24,0.92,0c0.12,0.12,0.19,0.29,0.19,0.46s-0.07,0.34-0.19,0.46C17.69-43.17,17.53-43.1,17.35-43.1z"/>
			<path d="M11.6-34.85c-0.17,0-0.34-0.07-0.46-0.19c-0.12-0.12-0.19-0.29-0.19-0.46c0-0.18,0.07-0.34,0.19-0.46
				c0.25-0.25,0.69-0.24,0.92,0c0.12,0.12,0.19,0.29,0.19,0.46s-0.07,0.34-0.19,0.46C11.94-34.92,11.77-34.85,11.6-34.85z"/>
			<path d="M67.85-40.85c-0.17,0-0.34-0.07-0.46-0.19c-0.12-0.13-0.19-0.29-0.19-0.46s0.07-0.34,0.19-0.46
				c0.24-0.24,0.68-0.24,0.92,0c0.12,0.12,0.19,0.28,0.19,0.46c0,0.17-0.07,0.34-0.19,0.46C68.19-40.92,68.02-40.85,67.85-40.85z"/>
			<path d="M7.6-55.85c-0.18,0-0.34-0.07-0.46-0.2c-0.12-0.11-0.19-0.28-0.19-0.45s0.07-0.34,0.19-0.46c0.24-0.24,0.68-0.25,0.92,0
				c0.12,0.12,0.19,0.29,0.19,0.46s-0.07,0.34-0.19,0.46C7.94-55.92,7.78-55.85,7.6-55.85z"/>
			<path d="M8.85-66.35c-0.17,0-0.33-0.07-0.46-0.19C8.27-66.66,8.2-66.83,8.2-67c0-0.18,0.07-0.34,0.19-0.46
				c0.24-0.24,0.68-0.25,0.92,0C9.43-67.34,9.5-67.18,9.5-67c0,0.17-0.07,0.34-0.19,0.46C9.19-66.42,9.02-66.35,8.85-66.35z"/>
			<path d="M3.85-69.1c-0.17,0-0.34-0.07-0.46-0.19c-0.12-0.13-0.19-0.29-0.19-0.46s0.07-0.34,0.19-0.46c0.24-0.24,0.67-0.24,0.92,0
				c0.12,0.12,0.19,0.29,0.19,0.46s-0.07,0.33-0.19,0.46C4.19-69.17,4.02-69.1,3.85-69.1z"/>
			<path d="M66.85-34.35c-0.17,0-0.34-0.07-0.46-0.19c-0.12-0.12-0.19-0.29-0.19-0.46s0.07-0.34,0.19-0.46
				c0.24-0.24,0.68-0.24,0.92,0c0.12,0.12,0.19,0.28,0.19,0.46c0,0.17-0.07,0.34-0.19,0.46C67.19-34.42,67.03-34.35,66.85-34.35z"/>
			<path d="M44.35-8.6c-0.17,0-0.34-0.07-0.46-0.19c-0.12-0.13-0.19-0.29-0.19-0.46s0.07-0.34,0.19-0.46c0.23-0.24,0.67-0.25,0.92,0
				C44.93-9.59,45-9.42,45-9.25s-0.07,0.33-0.19,0.46C44.69-8.67,44.52-8.6,44.35-8.6z"/>
			<path d="M26.1-1.6c-0.17,0-0.34-0.07-0.46-0.19c-0.12-0.13-0.19-0.29-0.19-0.46s0.07-0.34,0.19-0.46c0.25-0.25,0.68-0.24,0.92,0
				c0.12,0.12,0.19,0.29,0.19,0.46s-0.07,0.33-0.19,0.46C26.44-1.67,26.27-1.6,26.1-1.6z"/>
			<path d="M22.35-29.85c-0.17,0-0.34-0.07-0.46-0.19c-0.12-0.12-0.19-0.28-0.19-0.46s0.07-0.34,0.19-0.46
				c0.24-0.24,0.67-0.24,0.92,0C22.93-30.84,23-30.67,23-30.5s-0.07,0.34-0.19,0.46C22.69-29.92,22.52-29.85,22.35-29.85z"/>
			<path d="M24.35-42.6c-0.17,0-0.34-0.07-0.46-0.19c-0.12-0.13-0.19-0.29-0.19-0.46s0.07-0.34,0.19-0.46
				c0.23-0.24,0.68-0.25,0.92,0c0.12,0.12,0.19,0.28,0.19,0.46c0,0.17-0.07,0.34-0.19,0.46C24.69-42.67,24.52-42.6,24.35-42.6z"/>
			<path d="M41.85-37.1c-0.17,0-0.34-0.07-0.46-0.19c-0.12-0.12-0.19-0.29-0.19-0.46s0.07-0.34,0.19-0.46
				c0.24-0.24,0.68-0.24,0.92,0c0.12,0.12,0.19,0.29,0.19,0.46s-0.07,0.33-0.19,0.46C42.19-37.17,42.02-37.1,41.85-37.1z"/>
			<path d="M67.85-27.85c-0.17,0-0.34-0.07-0.46-0.19c-0.12-0.13-0.19-0.29-0.19-0.46s0.07-0.34,0.19-0.46
				c0.24-0.24,0.68-0.24,0.92,0c0.12,0.12,0.19,0.28,0.19,0.46c0,0.17-0.07,0.34-0.19,0.46C68.19-27.92,68.02-27.85,67.85-27.85z"/>
			<path d="M53.6-56.6c-0.17,0-0.34-0.07-0.46-0.19c-0.12-0.12-0.19-0.29-0.19-0.46s0.07-0.34,0.19-0.46c0.24-0.24,0.68-0.24,0.92,0
				c0.12,0.12,0.19,0.29,0.19,0.46s-0.07,0.33-0.19,0.46C53.94-56.67,53.77-56.6,53.6-56.6z"/>
			<path d="M34.35-55.6c-0.17,0-0.34-0.07-0.46-0.19c-0.12-0.13-0.19-0.29-0.19-0.46c0-0.18,0.07-0.34,0.19-0.46
				c0.24-0.24,0.69-0.24,0.92,0c0.12,0.12,0.19,0.28,0.19,0.46c0,0.17-0.07,0.34-0.19,0.46C34.69-55.67,34.52-55.6,34.35-55.6z"/>
			<path d="M13.1-52.35c-0.17,0-0.34-0.07-0.46-0.19c-0.12-0.12-0.19-0.29-0.19-0.46s0.07-0.34,0.19-0.46
				c0.25-0.25,0.68-0.24,0.92,0c0.12,0.12,0.19,0.29,0.19,0.46s-0.07,0.34-0.19,0.46C13.44-52.42,13.27-52.35,13.1-52.35z"/>
			<path d="M49.85-67.1c-0.17,0-0.34-0.07-0.46-0.19c-0.12-0.12-0.19-0.29-0.19-0.46s0.07-0.34,0.19-0.46
				c0.24-0.24,0.67-0.24,0.92,0c0.12,0.12,0.19,0.29,0.19,0.46s-0.07,0.34-0.19,0.46C50.19-67.17,50.02-67.1,49.85-67.1z"/>
			<path d="M59.35-50.85c-0.17,0-0.34-0.07-0.46-0.19c-0.12-0.12-0.19-0.29-0.19-0.46s0.07-0.34,0.19-0.46
				c0.25-0.24,0.67-0.24,0.92,0C59.93-51.84,60-51.68,60-51.5c0,0.17-0.07,0.34-0.19,0.46C59.69-50.92,59.52-50.85,59.35-50.85z"/>
			<path d="M67.85-14.35c-0.17,0-0.34-0.07-0.46-0.19c-0.12-0.13-0.19-0.29-0.19-0.46s0.07-0.34,0.19-0.46
				c0.24-0.24,0.68-0.24,0.92,0c0.12,0.12,0.19,0.28,0.19,0.46c0,0.17-0.07,0.34-0.19,0.46C68.19-14.42,68.02-14.35,67.85-14.35z"/>
			<path d="M5.6-1.85c-0.18,0-0.34-0.07-0.46-0.19S4.95-2.33,4.95-2.5s0.07-0.34,0.19-0.46c0.25-0.25,0.68-0.24,0.92,0
				C6.18-2.84,6.25-2.67,6.25-2.5S6.18-2.16,6.06-2.04C5.94-1.92,5.78-1.85,5.6-1.85z"/>
			<path d="M3.1-58.35c-0.18,0-0.34-0.07-0.46-0.2C2.52-58.66,2.45-58.83,2.45-59s0.07-0.34,0.19-0.46c0.24-0.25,0.68-0.24,0.92,0
				c0.12,0.12,0.19,0.29,0.19,0.46s-0.07,0.34-0.19,0.46C3.44-58.42,3.28-58.35,3.1-58.35z"/>
			<path d="M16.85-68.35c-0.17,0-0.34-0.07-0.46-0.19c-0.12-0.12-0.19-0.29-0.19-0.46s0.07-0.34,0.19-0.46
				c0.24-0.24,0.68-0.24,0.92,0c0.12,0.12,0.19,0.29,0.19,0.46s-0.07,0.34-0.19,0.46C17.19-68.42,17.02-68.35,16.85-68.35z"/>
			<path d="M40.85-67.1c-0.17,0-0.34-0.07-0.46-0.19c-0.12-0.12-0.19-0.29-0.19-0.46s0.07-0.34,0.19-0.46
				c0.25-0.24,0.68-0.24,0.92,0c0.12,0.12,0.19,0.28,0.19,0.46c0,0.17-0.07,0.34-0.19,0.46C41.19-67.17,41.02-67.1,40.85-67.1z"/>
			<path d="M3.1-39.6c-0.18,0-0.34-0.07-0.46-0.19c-0.12-0.12-0.19-0.29-0.19-0.46s0.07-0.34,0.19-0.46c0.24-0.24,0.69-0.24,0.92,0
				c0.12,0.12,0.19,0.29,0.19,0.46s-0.07,0.34-0.19,0.46C3.44-39.67,3.27-39.6,3.1-39.6z"/>
			<path d="M7.85-46.6c-0.18,0-0.34-0.07-0.46-0.19c-0.12-0.12-0.19-0.29-0.19-0.46s0.07-0.34,0.19-0.46c0.24-0.24,0.68-0.24,0.92,0
				c0.12,0.12,0.19,0.28,0.19,0.46c0,0.17-0.07,0.34-0.19,0.46C8.19-46.67,8.03-46.6,7.85-46.6z"/>
			<path d="M4.35-24.85c-0.17,0-0.34-0.07-0.46-0.19C3.77-25.17,3.7-25.33,3.7-25.5s0.07-0.34,0.19-0.46c0.23-0.24,0.67-0.25,0.92,0
				C4.93-25.84,5-25.67,5-25.5s-0.07,0.33-0.19,0.46C4.69-24.92,4.53-24.85,4.35-24.85z"/>
			<path d="M11.35-21.1c-0.17,0-0.34-0.07-0.46-0.19c-0.12-0.13-0.19-0.29-0.19-0.46c0-0.18,0.07-0.34,0.19-0.46
				c0.24-0.24,0.68-0.24,0.92,0c0.12,0.12,0.19,0.29,0.19,0.46s-0.07,0.33-0.19,0.46C11.69-21.17,11.52-21.1,11.35-21.1z"/>
			<path d="M10.35-11.85c-0.18,0-0.34-0.07-0.46-0.19C9.77-12.16,9.7-12.33,9.7-12.5s0.07-0.34,0.19-0.46
				c0.24-0.24,0.68-0.24,0.92,0C10.93-12.84,11-12.67,11-12.5s-0.07,0.34-0.19,0.46C10.69-11.92,10.53-11.85,10.35-11.85z"/>
			<path d="M13.85-5.85c-0.17,0-0.34-0.07-0.46-0.19C13.27-6.17,13.2-6.33,13.2-6.5c0-0.18,0.07-0.34,0.19-0.46
				c0.24-0.24,0.68-0.25,0.92,0c0.12,0.12,0.19,0.29,0.19,0.46s-0.07,0.33-0.19,0.46C14.19-5.92,14.02-5.85,13.85-5.85z"/>
			<path d="M22.35-18.35c-0.17,0-0.34-0.07-0.46-0.19c-0.12-0.12-0.19-0.28-0.19-0.46s0.07-0.35,0.2-0.46
				c0.22-0.24,0.67-0.24,0.91,0C22.93-19.34,23-19.17,23-19s-0.07,0.33-0.19,0.46C22.69-18.42,22.52-18.35,22.35-18.35z"/>
			<path d="M31.6-34.1c-0.17,0-0.34-0.07-0.46-0.19c-0.12-0.13-0.19-0.29-0.19-0.46s0.07-0.34,0.19-0.46c0.24-0.24,0.68-0.24,0.92,0
				c0.12,0.12,0.19,0.29,0.19,0.46s-0.07,0.33-0.19,0.46C31.94-34.17,31.77-34.1,31.6-34.1z"/>
			<path d="M26.35-37.6c-0.17,0-0.34-0.07-0.46-0.19c-0.12-0.12-0.19-0.29-0.19-0.46s0.07-0.34,0.19-0.46
				c0.25-0.25,0.68-0.24,0.92,0c0.12,0.12,0.19,0.29,0.19,0.46s-0.07,0.34-0.19,0.46C26.69-37.67,26.52-37.6,26.35-37.6z"/>
			<path d="M37.6-43.1c-0.17,0-0.34-0.07-0.46-0.19c-0.12-0.13-0.19-0.29-0.19-0.46s0.07-0.34,0.19-0.46c0.24-0.24,0.67-0.24,0.92,0
				c0.12,0.12,0.19,0.29,0.19,0.46s-0.07,0.33-0.19,0.46C37.94-43.17,37.77-43.1,37.6-43.1z"/>
			<path d="M62.1-55.1c-0.17,0-0.34-0.07-0.46-0.19c-0.12-0.13-0.19-0.29-0.19-0.46s0.07-0.34,0.19-0.46c0.24-0.24,0.68-0.24,0.92,0
				c0.12,0.12,0.19,0.28,0.19,0.46c0,0.17-0.07,0.34-0.19,0.46C62.44-55.17,62.27-55.1,62.1-55.1z"/>
			<path d="M61.6-44.6c-0.18,0-0.34-0.07-0.46-0.19c-0.12-0.13-0.19-0.29-0.19-0.46s0.07-0.34,0.19-0.46c0.24-0.24,0.68-0.24,0.92,0
				c0.12,0.12,0.19,0.29,0.19,0.46s-0.07,0.34-0.19,0.46C61.94-44.67,61.78-44.6,61.6-44.6z"/>
			<path d="M59.1-14.6c-0.17,0-0.34-0.07-0.46-0.19c-0.12-0.13-0.19-0.29-0.19-0.46s0.07-0.34,0.19-0.46c0.24-0.24,0.68-0.24,0.92,0
				c0.12,0.12,0.19,0.29,0.19,0.46s-0.07,0.33-0.19,0.46C59.44-14.67,59.27-14.6,59.1-14.6z"/>
			<path d="M59.6-27.35c-0.18,0-0.34-0.07-0.46-0.19c-0.12-0.12-0.19-0.29-0.19-0.46s0.07-0.34,0.19-0.46
				c0.24-0.24,0.68-0.24,0.92,0c0.12,0.12,0.19,0.29,0.19,0.46s-0.07,0.34-0.19,0.46C59.94-27.42,59.78-27.35,59.6-27.35z"/>
			<path d="M56.1-36.1c-0.17,0-0.34-0.07-0.46-0.19c-0.12-0.13-0.19-0.29-0.19-0.46s0.07-0.34,0.19-0.46c0.24-0.24,0.68-0.24,0.92,0
				c0.12,0.12,0.19,0.29,0.19,0.46s-0.07,0.33-0.19,0.46C56.44-36.17,56.27-36.1,56.1-36.1z"/>
			<path d="M69.6-1.1c-0.17,0-0.33-0.07-0.46-0.19c-0.12-0.12-0.19-0.29-0.19-0.46s0.07-0.34,0.19-0.46c0.23-0.23,0.68-0.24,0.92,0
				c0.12,0.12,0.19,0.29,0.19,0.46s-0.07,0.34-0.19,0.46C69.94-1.17,69.77-1.1,69.6-1.1z"/>
			<path d="M61.1-5.85c-0.17,0-0.34-0.07-0.46-0.19c-0.12-0.12-0.19-0.29-0.19-0.46s0.07-0.34,0.19-0.46c0.24-0.24,0.68-0.25,0.92,0
				c0.12,0.12,0.19,0.28,0.19,0.46c0,0.17-0.07,0.34-0.19,0.46C61.44-5.92,61.27-5.85,61.1-5.85z"/>
			<path d="M44.85-0.35c-0.17,0-0.34-0.07-0.46-0.19C44.27-0.66,44.2-0.83,44.2-1c0-0.17,0.07-0.34,0.19-0.46
				c0.24-0.24,0.69-0.24,0.92,0C45.43-1.34,45.5-1.17,45.5-1c0,0.17-0.07,0.34-0.19,0.46C45.19-0.42,45.02-0.35,44.85-0.35z"/>
			<path d="M24.85-70.6c-0.17,0-0.34-0.07-0.46-0.19c-0.12-0.12-0.19-0.29-0.19-0.46c0-0.18,0.07-0.34,0.19-0.46
				c0.23-0.24,0.68-0.25,0.92,0c0.12,0.12,0.19,0.29,0.19,0.46s-0.07,0.33-0.19,0.46C25.19-70.67,25.03-70.6,24.85-70.6z"/>
		</g>
		<g>
			<path d="M0.35-48.4c-0.09,0-0.18-0.04-0.25-0.1C0.04-48.57,0-48.66,0-48.75S0.04-48.93,0.1-49c0.12-0.12,0.36-0.13,0.5,0
				c0.06,0.07,0.1,0.16,0.1,0.25s-0.04,0.18-0.1,0.25C0.53-48.44,0.44-48.4,0.35-48.4z"/>
		</g>
	</g>
</pattern>
<g id="Layer_1">
	<polygon class="st3" points="6.02,80.72 18.07,173.49 60.24,261.45 75.9,373.49 146.98,366.27 260.1,373.49 338.55,327.71 
		518.07,328.92 518.07,8.43 113.25,24.1 131.32,72.29 157.83,134.94 184.33,209.64 154.21,221.69 140.96,151.81 116.86,113.25 
		118.33,90.53 	"/>
</g>
<g id="Layer_1_copy" class="st4">
	<pattern  id="SVGID_1_" xlink:href="#Burlap" patternTransform="matrix(2.2956 0.8687 -0.8687 2.2956 3760.4216 16309.2803)">
	</pattern>
	<polygon class="st5" points="154.21,221.69 133.52,367.64 75.9,373.5 60.23,261.45 18.06,173.5 6.02,80.72 118.32,90.54 
		116.86,113.25 140.96,151.81 	"/>
	
		<pattern  id="SVGID_2_" xlink:href="#USGS_19_Land_Inundation" patternTransform="matrix(4.3172 0 0 4.3172 25519.2832 24415.1191)">
	</pattern>
	<polygon class="st6" points="297.53,351.65 260.1,373.5 146.98,366.27 133.52,367.64 154.21,221.69 184.33,209.64 157.82,134.94 
		131.32,72.29 113.24,24.1 254.58,18.63 254.59,18.63 	"/>
	<pattern  id="SVGID_3_" xlink:href="#USGS_22_Gravel_Beach" patternTransform="matrix(1.6832 0 0 1.6832 5247.7759 4987.2603)">
	</pattern>
	<polygon class="st7" points="518.06,8.44 518.06,328.92 338.55,327.71 297.53,351.65 254.59,18.63 	"/>
</g>
</svg>
